<?xml version="1.0" encoding="utf-8"?>
<!-- Generator: Adobe Illustrator 19.2.1, SVG Export Plug-In . SVG Version: 6.00 Build 0)  -->
<svg version="1.1" id="e613b765-a21b-4502-9325-e6e5b4d66d88"
	 xmlns="http://www.w3.org/2000/svg" xmlns:xlink="http://www.w3.org/1999/xlink" x="0px" y="0px" viewBox="0 0 929.5 793.1"
	 style="enable-background:new 0 0 929.5 793.1;" xml:space="preserve">
<style type="text/css">
	.st0{fill:#57B894;}
	.st1{fill:#F2F2F2;}
	.st2{fill:#FF638B;}
	.st3{opacity:0.3;fill:#FF638B;enable-background:new    ;}
	.st4{fill:#E6E6E6;}
	.st5{fill:#3F3D56;}
	.st6{fill:#FFB8B8;}
	.st7{fill:#2F2E41;}
	.st8{opacity:0.2;fill:#2F2E41;enable-background:new    ;}
</style>
<title>folder</title>
<path class="st0" d="M837.2,441.1c-0.2,11.8-0.7,25.1-1.9,39.1l34.1-42.5l0.2,0.7c-2.8-9.6-6.9-18.7-12.3-27.2l0.3,0.6L837.2,441.1z
	"/>
<path class="st0" d="M837.3,439l19.8-28.4c-5.7-8.6-12.5-15.2-20.3-19.3c-0.4-0.2-0.8-0.4-1.2-0.6
	C835.9,393.9,837.5,412.7,837.3,439z"/>
<path class="st0" d="M873.7,521.5c0.8-5,1.5-9.9,2-14.8L824.2,547l-0.1-0.4c-0.8,2.9-1.6,5.8-2.4,8.6l51.8-34.6L873.7,521.5z"/>
<path class="st0" d="M830.1,519.9l46-42.6l0.2,0.7c-0.6-13.2-2.7-26.3-6.4-38.9l-34.7,43.3C833.9,495.4,832.3,507.9,830.1,519.9z"/>
<path class="st0" d="M834.3,481.6l-61.5-61.2l0.3-0.7c-5,8-9.2,16.4-12.5,25.2l70,66.4C832.2,501,833.4,490.9,834.3,481.6z"/>
<path class="st0" d="M829,520.6c0.5-2.5,0.9-5.1,1.3-7.6L760,446.4l0.3-0.8c-1.2,3.1-2.3,6.3-3.3,9.6l0.3-0.8L829,520.6z"/>
<path class="st0" d="M824.6,545l51-40l0.1,0.8c0.8-8.9,1-17.9,0.6-26.9L829.7,522C828.2,530,826.5,537.6,824.6,545z"/>
<path class="st0" d="M752.1,517.9l57.6,66.8c3.9-8.8,7.3-17.8,10.1-26.9l-69.4-64.9c-0.2,8.6,0.3,17.2,1.3,25.8L752.1,517.9z"/>
<path class="st0" d="M834.6,390.7l0.5-0.2c-12.1-5.6-24.8-4.2-36.6,2.9l37.9,45.6C836.6,410.6,834.6,391,834.6,390.7z"/>
<path class="st0" d="M820.3,560c-2.6,8.3-5.7,16.4-9.2,24.3l52.3-31l0.1,0.8c3.7-7.1,6.4-14.6,8.2-22.4c0.7-3.1,1.3-6.1,1.8-9.2
	l-52.4,35C820.8,558.3,820.6,559.2,820.3,560z"/>
<path class="st0" d="M836.3,441.1l-38.7-46.7l0.3-0.7c-8.9,5.5-17.2,14.1-24.5,25.4l61,60.7C835.6,465.9,836.2,452.8,836.3,441.1z"
	/>
<path class="st0" d="M820.4,556.2c3.4-11.1,6.1-22.4,8.3-33.9L756.7,456c-1.4,4.5-2.6,9.1-3.7,13.9c-1.5,6.9-2.3,13.9-2.5,21
	L820.4,556.2L820.4,556.2z"/>
<path class="st0" d="M894.4,627.9c-7.7,9-16.5,18.9-26.4,28.9l53.4-11l-0.2,0.7c4-9.2,6.6-18.8,7.9-28.8l-0.2,0.7L894.4,627.9z"/>
<path class="st0" d="M925.8,589.3c-0.2-0.4-0.4-0.8-0.6-1.2c-1.8,2.7-12.5,18.2-29.5,38.3l33.4-9.3
	C930.2,606.8,929.2,597.4,925.8,589.3z"/>
<path class="st0" d="M817,700.9c-2.5,1.7-4.9,3.4-7.3,5.1l62,6.4l-0.4,0.7c3.8-3.3,7.5-6.7,11-10.2l-65.3-1.7L817,700.9z"/>
<path class="st0" d="M838.7,684l62.6-3.5l-0.3,0.7c8-10.5,14.6-22,19.9-34.1l-54.4,11.2C857.2,667.7,847.9,676.2,838.7,684z"/>
<path class="st0" d="M818.4,699.9l64.8,1.7l-0.4,0.7c6.3-6.4,12.2-13.2,17.6-20.3l-63.5,3.5C830.8,690.6,824.6,695.4,818.4,699.9z"
	/>
<path class="st0" d="M741.3,736.4c0.4-0.5,0.9-1,1.3-1.5c13-2.9,25.7-7.3,37.6-13.2l-0.9-46.5c0.5-1.2,0.9-2.4,1.3-3.7l1,49.5
	c8.6-4.3,16.9-9,25-14.3l-11-86c0.4-0.3,0.9-0.5,1.4-0.8l11,85.9l0.1,0c9.7-6.4,19-13.4,28-20.8l-11.4-84.6c0.4-0.4,0.9-0.7,1.3-1.1
	l11.4,84.6c2-1.7,3.9-3.3,5.8-5l-10.4-85.7c0.4-0.4,0.9-0.8,1.3-1.2l10.4,85.8c7.9-6.9,15.2-13.9,21.8-20.5l-8.4-86.4l0.7-0.4
	c-2.4,0.8-4.8,1.6-7.2,2.6c4.3-5.6,8.2-11.5,11.5-17.7l-52.8,31.3c-3.3,7.3-7.2,14.5-11.4,21.3c-0.9,1-1.9,2-2.8,3l0.1,1.1
	c-0.4,0.6-0.8,1.2-1.2,1.8l-0.2-1.4c-0.5,0.6-1,1.2-1.6,1.8c6.2-8.9,11.6-18.3,16.1-28.2l-57.2-66.3c0.7,6.2,1.7,12.4,2.8,18.5
	c-5.4-7.7-11.8-14.7-19.1-20.7l0.5,0.5l-10.4,34.2c3.5,11.3,7.1,24.1,10.3,37.7l19-50.3c0.1,0.8,0.3,1.5,0.4,2.3l-19,50.1
	c2.9,12.8,5.2,25.2,6.8,37.2l23.8-42.6c0.2,0.6,0.4,1.2,0.6,1.7l-24,43.1c1,8,1.8,15.8,2.2,23.4l29.5-44c0.2,0.5,0.4,1.1,0.6,1.6
	l-29.9,44.5l-0.2-0.3c0.2,3,0.3,6,0.4,8.9L780,623c0.2,0.6,0.4,1.1,0.6,1.5L746.3,668c0,0.9,0,1.8,0,2.7c0.1,8.7-0.3,17.3-1.2,25.9
	l3.3-3.7c-0.6,1.4-1.1,2.8-1.7,4.2l-1.9,2.1c-0.1,1.3-0.3,2.6-0.5,3.8c-0.6,1.6-1.2,3.2-1.8,4.8c0.5-2.9,0.9-5.9,1.2-8.8l-74.9-45.4
	c21.6,47,59.6,90.7,62.1,93.5c1.6-3.5,3.1-7.1,4.4-10.8c0.4-0.1,0.9-0.1,1.3-0.2c-0.2,0.4-0.3,0.9-0.5,1.3c-0.2,0-0.5,0.1-0.7,0.1
	c0.2,0,0.4,0.1,0.6,0.1c-0.9,2.6-1.9,5.1-3,7.6c1.5-1.5,3.7-3.9,6.5-6.9c17.2,3.3,63.4,9.9,101.7-6l-60.6-9.6
	C768.1,728.9,754.9,733.5,741.3,736.4z M779,658.2l1.4-1.5l0,2.2l-1.4,1.5L779,658.2z"/>
<path class="st0" d="M924.5,587.4l0.5,0.1c-5.8-12-16.4-19-30-21.1l0,59.3C913.3,604,924.3,587.7,924.5,587.4z"/>
<path class="st0" d="M805.5,708.7c-7.3,4.7-14.8,9-22.5,12.9L843,731l-0.4,0.7c7.3-3.1,14.3-7.2,20.6-12c2.5-1.9,4.9-3.9,7.3-5.9
	l-62.7-6.5C807,707.7,806.2,708.2,805.5,708.7z"/>
<path class="st0" d="M867.6,655.9c9.7-9.9,18.5-19.6,26.1-28.5l0-60.7l0.7-0.4c-10.3-1.5-22.3-0.1-35,3.9L867.6,655.9z"/>
<path class="st0" d="M735.1,517.2c-8.1-6.4-16.6-10.6-25.2-12c-0.5-0.1-0.9-0.1-1.3-0.2c1.3,3,8.7,20.3,16.5,45.4L735.1,517.2z"/>
<path class="st0" d="M735.4,591.8L658,552.6l0-0.8c-2.3,9.1-3.6,18.4-4.1,27.8l87.1,41.5C739.5,610.8,737.5,600.9,735.4,591.8z"/>
<path class="st0" d="M741.3,622.9l-87.5-41.7l0-0.8c-0.1,3.3-0.2,6.7-0.1,10.1l0-0.8l88.7,40.7C742.1,628,741.7,625.4,741.3,622.9z"
	/>
<path class="st0" d="M745.3,668.7l-86-40.3c2.5,8.2,5.6,16.3,9.2,24.2l0.1-0.9l75.5,45.7C745,687.9,745.4,678.3,745.3,668.7z"/>
<path class="st0" d="M707.6,505.2l0.4-0.4c-13.2-1.6-24.8,3.7-33.9,14l50.1,31.7C715.7,523.5,707.7,505.5,707.6,505.2z"/>
<path class="st0" d="M724.8,552.6l-51.3-32.4l0.1-0.8c-6.7,7.9-12,18.7-15.4,31.7l76.8,38.8C731.9,576.4,728.3,563.8,724.8,552.6z"
	/>
<path class="st0" d="M745.2,667c-0.2-11.6-1.1-23.2-2.6-34.8l-88.9-40.8c0.1,4.7,0.4,9.5,0.8,14.4c0.7,7,2.1,14,4.1,20.7L745.2,667
	L745.2,667z"/>
<path class="st1" d="M672.8,461l-258.1-32.5c-11.7-97.3,6-192.3,36.2-286.8L709,174.2C670,266.9,658.6,362.5,672.8,461z"/>
<rect x="556.2" y="114.9" transform="matrix(0.1251 -0.9921 0.9921 0.1251 301.2282 730.3752)" class="st2" width="17.1" height="159"/>
<rect x="552.6" y="123.1" transform="matrix(0.1251 -0.9921 0.9921 0.1251 258.1861 754.3973)" class="st3" width="8.5" height="215.5"/>
<rect x="549.1" y="150.4" transform="matrix(0.1251 -0.9921 0.9921 0.1251 228.0069 774.925)" class="st3" width="8.5" height="215.5"/>
<rect x="545.7" y="177.8" transform="matrix(0.1251 -0.9921 0.9921 0.1251 197.8276 795.4529)" class="st3" width="8.5" height="215.5"/>
<rect x="542.2" y="205.2" transform="matrix(0.1251 -0.9921 0.9921 0.1251 167.6483 815.9807)" class="st3" width="8.5" height="215.5"/>
<rect x="538.8" y="232.6" transform="matrix(0.1251 -0.9921 0.9921 0.1251 137.469 836.5085)" class="st3" width="8.5" height="215.5"/>
<rect x="535.3" y="259.9" transform="matrix(0.1251 -0.9921 0.9921 0.1251 107.2897 857.0363)" class="st3" width="8.5" height="215.5"/>
<rect x="531.8" y="287.3" transform="matrix(0.1251 -0.9921 0.9921 0.1251 77.1105 877.5641)" class="st3" width="8.5" height="215.5"/>
<path class="st4" d="M550.6,365.1l-241.5-96.8C322.4,171.2,363.6,83.8,416.7,0l241.5,96.8C597,176.6,561.7,266.3,550.6,365.1z"/>
<rect x="504.9" y="0.4" transform="matrix(0.372 -0.9282 0.9282 0.372 248.3155 526.7494)" class="st2" width="17.1" height="159"/>
<rect x="492.3" y="5.3" transform="matrix(0.372 -0.9282 0.9282 0.372 206.8839 531.9689)" class="st3" width="8.5" height="215.5"/>
<rect x="482.1" y="31" transform="matrix(0.372 -0.9282 0.9282 0.372 176.6652 538.5231)" class="st3" width="8.5" height="215.5"/>
<rect x="471.8" y="56.6" transform="matrix(0.372 -0.9282 0.9282 0.372 146.4465 545.0772)" class="st3" width="8.5" height="215.5"/>
<rect x="461.5" y="82.2" transform="matrix(0.372 -0.9282 0.9282 0.372 116.2278 551.6314)" class="st3" width="8.5" height="215.5"/>
<rect x="451.3" y="107.8" transform="matrix(0.372 -0.9282 0.9282 0.372 86.0092 558.1856)" class="st3" width="8.5" height="215.5"/>
<rect x="441" y="133.4" transform="matrix(0.372 -0.9282 0.9282 0.372 55.7904 564.7398)" class="st3" width="8.5" height="215.5"/>
<rect x="430.7" y="159" transform="matrix(0.372 -0.9282 0.9282 0.372 25.5717 571.2939)" class="st3" width="8.5" height="215.5"/>
<path class="st1" d="M490.9,388.4H230.7c-23.8-95.1-18.1-191.5,0-289.1h260.2C463.8,196.2,464.4,292.5,490.9,388.4z"/>
<rect x="270.8" y="128.9" class="st2" width="159" height="17.1"/>
<rect x="239.3" y="170.3" class="st3" width="215.5" height="8.5"/>
<rect x="239.3" y="197.9" class="st3" width="215.5" height="8.5"/>
<rect x="239.3" y="225.5" class="st3" width="215.5" height="8.5"/>
<rect x="239.3" y="253.1" class="st3" width="215.5" height="8.5"/>
<rect x="239.3" y="280.7" class="st3" width="215.5" height="8.5"/>
<rect x="239.3" y="308.3" class="st3" width="215.5" height="8.5"/>
<rect x="239.3" y="335.8" class="st3" width="215.5" height="8.5"/>
<path class="st5" d="M315.5,330.7L225.9,261c-1.8-3.2-5.2-5.1-8.9-5.1h-48.4c-5.7,0-10.2,4.6-10.2,10.2l0,0v426.9
	c0,18.3,14.9,33.2,33.2,33.2h496.6c18.3,0,33.2-14.9,33.2-33.2V360.9c0-16.7-13.5-30.2-30.2-30.2H315.5z"/>
<rect x="614.4" y="429.7" class="st2" width="90.1" height="31.5"/>
<path class="st1" d="M0,791.1c0,0,411.9-235.6,909.4,0"/>
<g>
	<path class="st6" d="M237.3,448.3c-4.7-7.1-14.2-9-21.3-4.4c-0.8,0.5-1.5,1.1-2.1,1.7l-48.6-25.1l3,28.2l45.7,19.5
		c6.3,5.8,16.1,5.4,21.9-0.9C240.7,462.1,241.3,454.2,237.3,448.3L237.3,448.3z"/>
	<path class="st2" d="M194.1,459.6c-1.8,0.8-3.8,0.8-5.6,0.1l-46.1-20c-15.8-6.8-28.5-19.2-35.9-34.7l-24.3-51.2
		c-7.5-9.7-5.8-23.6,3.9-31.1c9.7-7.5,23.6-5.8,31.1,3.9c0,0,0,0,0,0l42.6,79.1l39.4,29.7c2.3,1.8,3.3,4.8,2.4,7.5l-3.9,12.5
		c-0.4,1.3-1.2,2.5-2.3,3.4C195.1,459.1,194.6,459.4,194.1,459.6z"/>
	<circle class="st6" cx="81.2" cy="256" r="37.6"/>
	<polygon class="st6" points="96.4,748.8 115.2,748.8 124.1,676.5 96.4,676.5 	"/>
	<path class="st7" d="M151.3,766.2l-58.9,0l0,0l0-22.8l0,0l36.2,0C141.1,743.4,151.3,753.6,151.3,766.2L151.3,766.2L151.3,766.2z"/>
	<polygon class="st6" points="35.2,748.8 54,748.8 62.9,676.5 35.2,676.5 	"/>
	<path class="st7" d="M90.1,766.2l-58.9,0l0,0l0-22.8l0,0l36.2,0C79.9,743.4,90.1,753.6,90.1,766.2L90.1,766.2L90.1,766.2z"/>
	<path class="st7" d="M28.7,728.1c-1.3-1.5-1.9-3.5-1.6-5.4l32.8-246.2l81.6,13.9l8.7-5.2l-22.5,233.6c-0.4,3.3-3,5.8-6.3,6.1
		l-24.7,2.1c-3.8,0.3-7.1-2.5-7.4-6.3c0-0.3,0-0.6,0-1l6.4-111.3c0-0.4-0.3-0.8-0.7-0.8c-0.4,0-0.7,0.2-0.8,0.6L62.5,725.4
		c-0.8,3-3.5,5.1-6.6,5.1h-22C31.9,730.4,30,729.6,28.7,728.1z"/>
	<path class="st2" d="M85.2,493.7c-1.9-1.7-4.8-1.9-6.9-0.3L62,506.1c-3,2.3-7.3,1.8-9.7-1.2c-0.5-0.7-0.9-1.5-1.2-2.3
		c-8-28-26.1-98.5-21.7-148.2c2.5-28.1,26.8-49.5,54.2-47.7c18.7,1.2,31,12,36.5,32c13.6,49.1,28.6,139.3,31.5,156.8
		c0.5,2.8-0.8,5.6-3.3,7c-7.7,4.6-16.5,7.1-25.5,7.2C112,509.7,98.9,505.9,85.2,493.7z"/>
	<path class="st6" d="M91.3,511.1c0.7-8.5-5.6-15.9-14.1-16.6c-0.9-0.1-1.8-0.1-2.7,0l-22.7-49.7L36.7,469l23.9,43.5
		c1.4,8.4,9.3,14.1,17.7,12.8C85.4,524.1,90.8,518.3,91.3,511.1L91.3,511.1z"/>
	<path class="st2" d="M50.3,493.4c-1.9-0.5-3.5-1.7-4.5-3.4l-24-44.2c-8.2-15.1-10.6-32.7-6.8-49.5l12.5-55.3
		c0-12.2,10-22.1,22.3-22.1c12.2,0,22.1,10,22.1,22.3c0,0,0,0,0,0.1l-15.3,88.5l12.6,47.7c0.7,2.8-0.4,5.8-2.7,7.4l-10.7,7.4
		c-1.2,0.8-2.5,1.2-3.9,1.2C51.4,493.6,50.9,493.6,50.3,493.4z"/>
	<polygon class="st8" points="68.9,378.7 55.2,436.8 75,485.7 61.3,438.3 	"/>
	<path class="st7" d="M59.8,286.9c-3.3,0.1-6.7-0.5-9.8-1.8c-1.4-0.5-2.8-1-4.2-1.5c-12.1-4.7-20-17.5-20.3-30.4
		c-0.3-12.9,6.4-25.5,16.3-33.7S64.7,207,77.6,206c13.9-1.1,29.5,2.5,37.3,14c2.1,3.1,3.5,6.8,2.3,10.5c-0.4,1.1-1,2.1-1.9,2.9
		c-3.5,3.1-6.9,0.8-10.4,0.6c-4.9-0.3-9.2,3.6-10.8,8.2c-1.6,4.6-0.9,9.7,0.4,14.4c1,2.8,1.6,5.8,1.8,8.7c0.2,3-1.2,6-3.6,7.7
		c-3,1.8-7,0.8-10.1-1.1c-3-1.8-5.7-4.4-8.9-5.7c-3.3-1.3-7.7-1-9.6,1.9c-0.6,1.1-1,2.3-1.2,3.5C61.1,279.6,61.5,279.1,59.8,286.9
		L59.8,286.9z"/>
</g>
</svg>
