<?xml version="1.0" encoding="utf-8"?>
<!-- Generator: Adobe Illustrator 19.2.1, SVG Export Plug-In . SVG Version: 6.00 Build 0)  -->
<svg version="1.1" id="be3e1a43-0c7b-454d-900a-5620992e061d"
	 xmlns="http://www.w3.org/2000/svg" xmlns:xlink="http://www.w3.org/1999/xlink" x="0px" y="0px" viewBox="0 0 867.2 422.6"
	 style="enable-background:new 0 0 867.2 422.6;" xml:space="preserve">
<style type="text/css">
	.st0{fill:#F2F2F2;}
	.st1{fill:#E6E6E6;}
	.st2{fill:#3F3D56;}
	.st3{fill:#FFFFFF;}
	.st4{fill:#FF638B;}
	.st5{fill:#FF6584;}
	.st6{fill:none;stroke:#3F3D56;stroke-width:2;stroke-linecap:round;stroke-miterlimit:10;}
	.st7{fill:none;stroke:#3F3D56;stroke-width:2;stroke-linecap:round;stroke-miterlimit:10;stroke-dasharray:6.0241,12.0482;}
	.st8{fill:none;stroke:#3F3D56;stroke-width:2;stroke-linecap:round;stroke-miterlimit:10;stroke-dasharray:12;}
</style>
<rect x="96.3" y="152.3" class="st0" width="30.3" height="104.4"/>
<polygon class="st0" points="76.2,237.1 150,149.8 298.2,151.1 388,238.1 386.2,239.3 386.8,239.3 386.8,420.3 76.4,420.3 
	76.4,239.3 "/>
<polygon class="st1" points="150,150 242.1,257.4 242.1,420.3 76.4,420.3 76.4,237 "/>
<rect x="141.8" y="330.2" class="st2" width="33.8" height="29.7"/>
<rect x="141.8" y="278.7" class="st2" width="33.8" height="29.3"/>
<rect x="141.8" y="330.2" class="st3" width="33.8" height="29.7"/>
<rect x="141.8" y="278.7" class="st3" width="33.8" height="29.3"/>
<rect x="292.2" y="322.3" class="st3" width="33.8" height="29.7"/>
<rect x="292.2" y="270.9" class="st3" width="33.8" height="29.3"/>
<rect x="335.7" y="152.3" class="st0" width="30.3" height="104.4"/>
<ellipse class="st2" cx="127.6" cy="323.2" rx="29.3" ry="59.4"/>
<path class="st4" d="M130.3,420.4c-11.7-69.9-0.1-139.6,0-140.3l2.3,0.4c-0.1,0.7-11.7,70,0,139.5L130.3,420.4z"/>
<polygon class="st4" points="154.5,312.5 153.4,310.5 126.9,324.5 128,326.6 "/>
<polygon class="st4" points="126.5,331.6 100,317.5 99,319.5 125.4,333.6 "/>
<ellipse class="st4" cx="57.3" cy="231.7" rx="57.3" ry="116.1"/>
<path class="st2" d="M63.6,421.6c-22.9-136.6-0.2-272.7,0-274l2.3,0.4c-0.2,1.4-22.8,137.1,0,273.3L63.6,421.6z"/>
<polygon class="st2" points="109.3,209.7 108.2,207.6 56.4,235.2 57.5,237.2 "/>
<polygon class="st2" points="54.6,249 2.9,221.4 1.8,223.5 53.5,251 "/>
<ellipse class="st4" cx="192.9" cy="161.8" rx="78.3" ry="158.9"/>
<path class="st2" d="M202,421.6c-31.3-186.8-0.3-373,0-374.9l2.3,0.4c-0.3,1.9-31.3,187.6,0,374.1L202,421.6z"/>
<polygon class="st2" points="263.8,131.3 262.8,129.3 191.9,167 193,169 "/>
<polygon class="st2" points="189.1,185.8 118.2,148.2 117.1,150.2 188,187.9 "/>
<path class="st2" d="M300.6,110.7l-9.3-7.4c7.2-0.8,10.2,3.1,11.4,6.2c5.6-2.3,11.7,0.7,11.7,0.7L296,117
	C296.9,114.5,298.5,112.3,300.6,110.7z"/>
<path class="st2" d="M68.3,47.7L59,40.4c7.2-0.8,10.2,3.1,11.4,6.2c5.6-2.3,11.7,0.7,11.7,0.7L63.6,54
	C64.5,51.5,66.1,49.3,68.3,47.7z"/>
<path class="st2" d="M249.1,407.8c2.5,0,4.9,0.6,7,1.9c6.2-5.5,15.7-5.1,21.3,1.1c2.5,2.8,3.9,6.3,3.9,10.1h-46.2
	C235.6,413.5,241.8,407.8,249.1,407.8z"/>
<polygon class="st2" points="321,375 454.4,375 454.4,379.3 433.6,379.3 433.6,419.9 429.3,419.9 429.3,379.3 348.3,379.3 
	348.3,419.9 344,419.9 344,379.3 321,379.3 "/>
<rect x="320.7" y="362.2" class="st2" width="133.4" height="4.3"/>
<rect x="320.7" y="351.5" class="st2" width="133.4" height="4.3"/>
<rect x="320.7" y="340.8" class="st2" width="133.4" height="4.3"/>
<circle class="st5" cx="403.4" cy="63.9" r="52.4"/>
<ellipse transform="matrix(9.811869e-002 -0.9952 0.9952 9.811869e-002 185.2255 811.5798)" class="st2" cx="540.4" cy="303.6" rx="70.9" ry="34.7"/>
<path class="st4" d="M532.1,419.5c-5.7-84.5,16.2-166,16.5-166.8l2.6,0.8c-0.3,0.8-22,81.9-16.4,165.9L532.1,419.5z"/>
<rect x="538.6" y="298.1" transform="matrix(0.9238 -0.3829 0.3829 0.9238 -72.2593 235.8703)" class="st4" width="35.7" height="2.8"/>
<rect x="521.1" y="286.7" transform="matrix(0.5561 -0.8311 0.8311 0.5561 -21.2028 569.4634)" class="st4" width="2.8" height="35.7"/>
<ellipse transform="matrix(9.811869e-002 -0.9952 0.9952 9.811869e-002 193.3778 602.3115)" class="st1" cx="429" cy="194.5" rx="138.8" ry="68"/>
<path class="st2" d="M414.2,421C403.1,256,445.9,96.8,446.3,95.2l2.6,0.8c-0.4,1.6-43,160.3-32,325L414.2,421z"/>
<rect x="425.5" y="185.1" transform="matrix(0.9238 -0.3829 0.3829 0.9238 -36.3339 190.4716)" class="st2" width="69.7" height="2.8"/>
<rect x="392.7" y="161.6" transform="matrix(0.5561 -0.8311 0.8311 0.5561 11.6274 414.7297)" class="st2" width="2.8" height="69.7"/>
<path class="st2" d="M475.8,8.5l10.5-8.4c-8.1-0.9-11.5,3.5-12.8,7.1c-6.3-2.6-13.3,0.8-13.3,0.8l21,7.6
	C480.1,12.8,478.3,10.4,475.8,8.5z"/>
<g>
	<g>
		<line class="st6" x1="0" y1="421.6" x2="3" y2="421.6"/>
		<line class="st7" x1="15" y1="421.6" x2="786.1" y2="421.6"/>
		<line class="st6" x1="792.2" y1="421.6" x2="795.2" y2="421.6"/>
	</g>
</g>
<line class="st8" x1="497.1" y1="462.2" x2="649.8" y2="483.2"/>
</svg>
