<?xml version="1.0" encoding="utf-8"?>
<!-- Generator: Adobe Illustrator 19.2.1, SVG Export Plug-In . SVG Version: 6.00 Build 0)  -->
<svg version="1.1" id="ba852881-1fdd-4058-baca-f1caa98e12dd"
	 xmlns="http://www.w3.org/2000/svg" xmlns:xlink="http://www.w3.org/1999/xlink" x="0px" y="0px" viewBox="0 0 1500 398.8"
	 style="enable-background:new 0 0 1500 398.8;" xml:space="preserve">
<style type="text/css">
	.st0{fill:#F0F0F8;}
	.st1{fill:#FF638B;}
	.st2{fill:#3F3D56;}
	.st3{fill:#E6E6E6;}
	.st4{fill:#FF9698;}
	.st5{fill:#FFFFFF;stroke:#6D6D6D;stroke-miterlimit:10;}
	.st6{fill:#82BD59;}
	.st7{opacity:0.3;fill:#82BD59;enable-background:new    ;}
	.st8{fill:none;stroke:#535461;stroke-width:2;stroke-miterlimit:10;}
	.st9{fill:#FF6366;}
	.st10{fill:#FF7FA0;}
	.st11{fill:#FF6584;}
	.st12{opacity:0.4;fill:#FFFFFF;enable-background:new    ;}
	.st13{fill:none;stroke:#535461;stroke-miterlimit:10;}
	.st14{opacity:0.1;enable-background:new    ;}
	.st15{fill:#A8A8A8;}
	.st16{opacity:0.2;enable-background:new    ;}
</style>
<path class="st0" d="M408,341C180,265,0,399,0,399h822l300,1.3C664,133.3,575,138,408,341z"/>
<g>
	<path class="st1" d="M5,168.6C5,129,32.2,35,65.8,35s60.8,93.9,60.8,133.6s-27.3,71.6-60.9,71.6C32.2,240.4,5,208.2,5,168.6
		L5,168.6z"/>
	<path class="st2" d="M65.8,386c-0.3,0-0.5-0.3-0.5-0.7V95.5c0-0.5,0.2-0.7,0.5-0.7s0.5,0.3,0.5,0.7v290
		C66.3,385.7,66.1,386,65.8,386z"/>
	<path class="st2" d="M65.8,143.1c-0.2,0-0.3,0-0.4-0.1l-24-28.5c-0.2-0.3-0.2-0.6,0-0.8c0.2-0.3,0.5-0.3,0.7,0l0,0L66.2,142
		c0.2,0.3,0.2,0.6,0,0.8C66.1,142.9,66,143.1,65.8,143.1L65.8,143.1z"/>
	<path class="st2" d="M65.8,192.1c-0.3,0-0.5-0.3-0.5-0.6c0-0.1,0.1-0.3,0.2-0.4l40.3-47.5c0.2-0.3,0.5-0.3,0.7,0s0.2,0.6,0,0.8l0,0
		L66.2,192C66.1,192.1,66,192.1,65.8,192.1z"/>
	<path class="st3" d="M323.6,207.3c0-28.5,19.6-96,43.7-96s43.7,67.6,43.7,96s-19.6,51.6-43.8,51.6
		C343.2,258.9,323.6,235.8,323.6,207.3L323.6,207.3z"/>
	<path class="st2" d="M367.3,338.8c-0.2,0-0.4-0.1-0.4-0.4l0,0V154.6c0-0.3,0.2-0.4,0.4-0.4s0.4,0.1,0.4,0.4v183.8
		C367.7,338.7,367.5,338.8,367.3,338.8L367.3,338.8z"/>
	<path class="st2" d="M367.3,189c-0.1,0-0.2,0-0.3-0.1l-17.3-20.5c-0.2-0.1-0.2-0.4,0-0.6c0.2-0.1,0.4-0.1,0.5,0l17.3,20.5
		c0.2,0.1,0.2,0.4,0,0.6C367.5,188.8,367.4,189,367.3,189L367.3,189z"/>
	<path class="st2" d="M367.3,224.2c-0.2,0-0.4-0.1-0.4-0.4c0-0.1,0.1-0.3,0.1-0.3l29-34.2c0.2-0.1,0.4-0.1,0.5,0s0.2,0.4,0,0.6
		l-29,34.2C367.5,224.2,367.4,224.2,367.3,224.2z"/>
	<ellipse class="st4" cx="154.9" cy="99.3" rx="31" ry="36.6"/>
	<path class="st3" d="M130,185.7c4.5-53.3,26-94.2,48.1-91.7s36.5,47.8,32,101.1s-26,94.2-48.1,91.7
		C139.9,284.1,125.5,238.9,130,185.7z"/>
	<path class="st2" d="M161.3,353c-6.6-117.2,18.8-230.2,19-231.4l1.6,0.6c-0.3,1.1-25.5,113.9-19,230.8H161.3z"/>
	<polygon class="st2" points="169.2,193.2 207.3,174.6 208,176.4 169.9,195.1 	"/>
	<polygon class="st2" points="131.8,179.1 132.7,177.4 167,204.5 166.1,206.1 	"/>
	<path class="st1" d="M214.9,129C221,56.2,250.5,0,280.7,3.5s49.9,65.5,43.8,138.2s-35.6,129-65.8,125.5
		C228.4,263.8,208.8,201.9,214.9,129z"/>
	<path class="st2" d="M258.1,351.7c-9-157.6,25.7-309.4,26-310.9l1.6,0.6c-0.4,1.5-34.9,153.1-26,310.4L258.1,351.7z"/>
	<polygon class="st2" points="268.7,139.7 320.9,114.2 321.5,116 269.4,141.5 	"/>
	<polygon class="st2" points="217.6,119.6 218.5,118.1 265.4,155.1 264.5,156.6 	"/>
	<path class="st2" d="M367.8,136.8l6.2-4.2c-4.8-0.5-6.8,1.8-7.6,3.5c-3.8-1.3-7.9,0.4-7.9,0.4l12.4,3.8
		C370.3,138.9,369.2,137.7,367.8,136.8z"/>
	<path class="st2" d="M197.8,144l6.2-4.2c-4.8-0.5-6.8,1.8-7.6,3.5c-3.8-1.3-7.9,0.4-7.9,0.4l12.4,3.8
		C200.3,146.2,199.2,144.9,197.8,144z"/>
	<path class="st2" d="M96.5,293.5l6.2-4.2c-4.8-0.5-6.8,1.8-7.6,3.5c-3.8-1.3-7.9,0.4-7.9,0.4l12.4,3.8
		C99,295.6,98,294.4,96.5,293.5z"/>
	<path class="st2" d="M192.4,249.8c2.3-27.2,13.3-48.2,24.6-46.8c11.3,1.3,18.6,24.4,16.3,51.6s-13.3,48.2-24.6,46.8
		C197.4,299.9,190.2,277,192.4,249.8z"/>
	<path class="st1" d="M208,350.7c-3.4-68,9.6-133.5,9.8-134.2l1.6,0.7c-0.2,0.7-13,65.9-9.7,133.5H208L208,350.7z"/>
	<polygon class="st1" points="212.3,253.1 231.8,243.6 232.4,245.4 212.9,254.9 	"/>
	<polygon class="st1" points="193.1,246.7 194,245.1 211.5,258.9 210.6,260.6 	"/>
</g>
<g>
	<path class="st5" d="M723.1,396.3l-118.7-11.8C599,349,607.1,314.4,621,280l118.7,11.8C721.8,325.6,716.5,360.5,723.1,396.3z"/>
	<polygon class="st6" points="636.6,298.7 637.6,292.5 710.1,299.7 709.1,305.9 	"/>
	<polygon class="st7" points="620.3,309.1 620.8,306 719.1,315.8 718.7,318.9 	"/>
	<polygon class="st7" points="618.7,319.1 619.2,316 717.5,325.8 717,328.9 	"/>
	<polygon class="st7" points="617.1,329 617.6,326 715.9,335.8 715.5,338.9 	"/>
	<polygon class="st7" points="615.6,339 616,336 714.4,345.8 713.9,348.9 	"/>
	<polygon class="st7" points="614,349 614.5,345.9 712.8,355.7 712.3,358.8 	"/>
	<polygon class="st7" points="612.4,359 612.9,355.9 711.2,365.7 710.7,368.8 	"/>
	<polygon class="st7" points="610.8,369 611.3,365.9 709.6,375.7 709.1,378.8 	"/>
	<path class="st5" d="M666.9,361.4l-111.1-35.3c6.1-35.4,25.1-67.2,49.5-97.8l111.1,35.3C688.2,292.7,672,325.4,666.9,361.4z"/>
	<polygon class="st6" points="614.4,249.6 617.3,243.8 685.2,265.3 682.3,271.1 	"/>
	<polygon class="st7" points="595.3,256.4 596.7,253.5 688.7,282.7 687.3,285.6 	"/>
	<polygon class="st7" points="590.6,265.7 592.1,262.9 684,292.1 682.6,294.9 	"/>
	<polygon class="st7" points="585.9,275.1 587.3,272.2 679.3,301.4 677.9,304.3 	"/>
	<polygon class="st7" points="581.1,284.4 582.6,281.5 674.6,310.8 673.1,313.6 	"/>
	<polygon class="st7" points="576.4,293.7 577.9,290.8 669.9,320.1 668.4,322.9 	"/>
	<polygon class="st7" points="571.7,303.1 573.1,300.2 665.1,329.4 663.7,332.3 	"/>
	<polygon class="st7" points="567,312.4 568.4,309.5 660.4,338.7 658.9,341.6 	"/>
	<path class="st5" d="M639.4,369.9H519.7c-10.9-34.7-8.3-69.8,0-105.4h119.7C626.9,299.8,627.2,334.9,639.4,369.9z"/>
	<rect x="538.2" y="275.3" class="st6" width="73.1" height="6.2"/>
	<rect x="523.7" y="290.4" class="st7" width="99.1" height="3.1"/>
	<rect x="523.7" y="300.5" class="st7" width="99.1" height="3.1"/>
	<rect x="523.7" y="310.5" class="st7" width="99.1" height="3.1"/>
	<rect x="523.7" y="320.6" class="st7" width="99.1" height="3.1"/>
	<rect x="523.7" y="330.6" class="st7" width="99.1" height="3.1"/>
	<rect x="523.7" y="340.7" class="st7" width="99.1" height="3.1"/>
	<rect x="523.7" y="350.7" class="st7" width="99.1" height="3.1"/>
</g>
<g>
	<path class="st8" d="M708.2,288.8c1-3.5,2.4-6.9,4.1-10.1c5.5-10.5,7.7-22.4,5.9-34.1c-0.9-5.6-2.3-11-4.2-16.3"/>
	<path class="st4" d="M722.3,212.5c-0.2,4.2-8.4,16.2-8.4,16.2s-7.2-12.6-7-16.9c0.3-4.2,3.9-7.5,8.2-7.2
		C719.2,204.9,722.4,208.4,722.3,212.5z"/>
	<path class="st4" d="M734,236.6c-2.5,3.5-15.9,9.1-15.9,9.1s0.9-14.5,3.3-18c2.4-3.5,7.2-4.4,10.7-2.1c3.5,2.4,4.4,7.2,2.1,10.7
		C734.1,236.4,734,236.5,734,236.6L734,236.6z"/>
	<path class="st4" d="M731.7,276.7c-3.9,1.7-18.3-0.2-18.3-0.2s8.1-12.1,11.9-13.8c3.9-1.7,8.4,0.1,10.1,4
		C737.1,270.5,735.4,275,731.7,276.7z"/>
	<path class="st4" d="M701.9,245.8c2.9,3.1,17,6.8,17,6.8s-2.9-14.2-5.8-17.3c-3-3-7.8-3.1-10.9-0.1
		C699.3,238,699.2,242.7,701.9,245.8z"/>
	<path class="st4" d="M692.4,281c3.7,2.1,18.2,1.4,18.2,1.4s-7-12.7-10.7-14.8c-3.8-2-8.4-0.5-10.4,3.2
		C687.6,274.4,688.8,278.9,692.4,281z"/>
	<path class="st9" d="M722.3,212.5c-0.2,4.2-8.4,16.2-8.4,16.2s-7.2-12.6-7-16.9c0.3-4.2,3.9-7.5,8.2-7.2
		C719.2,204.9,722.4,208.4,722.3,212.5z"/>
	<path class="st9" d="M734,236.6c-2.5,3.5-15.9,9.1-15.9,9.1s0.9-14.5,3.3-18c2.4-3.5,7.2-4.4,10.7-2.1c3.5,2.4,4.4,7.2,2.1,10.7
		C734.1,236.4,734,236.5,734,236.6L734,236.6z"/>
	<path class="st9" d="M731.7,276.7c-3.9,1.7-18.3-0.2-18.3-0.2s8.1-12.1,11.9-13.8c3.9-1.7,8.4,0.1,10.1,4
		C737.1,270.5,735.4,275,731.7,276.7z"/>
	<path class="st9" d="M701.9,245.8c2.9,3.1,17,6.8,17,6.8s-2.9-14.2-5.8-17.3c-3-3-7.8-3.1-10.9-0.1
		C699.3,238,699.2,242.7,701.9,245.8z"/>
	<path class="st9" d="M692.4,281c3.7,2.1,18.2,1.4,18.2,1.4s-7-12.7-10.7-14.8c-3.8-2-8.4-0.5-10.4,3.2
		C687.6,274.4,688.8,278.9,692.4,281z"/>
	<path class="st8" d="M706.5,288c0,0,5.9-2.4,14.1-17.9c8.1-15.4,18.5-28.7,18.5-28.7"/>
	<path class="st4" d="M734.3,275.9l-15.8-3.6C718.5,272.3,722.2,289,734.3,275.9z"/>
	<path class="st4" d="M710.1,258.8l9.1,13.6C719.2,272.5,701.4,273.7,710.1,258.8z"/>
	<path class="st4" d="M740.5,263.1l-14.4-2.5C726.1,260.5,735.1,274.3,740.5,263.1z"/>
	<path class="st4" d="M719.1,250.9l7.1,9.3C726.3,260.2,713.6,261.4,719.1,250.9z"/>
	<path class="st4" d="M733.5,249c0,0,12.3,0.6,13.7,1.8s-1.8,8.1-6.5,6.9C736.1,256.6,733.5,249,733.5,249z"/>
	<path class="st4" d="M728.6,238c0,0,5,9.2,4.8,10.9s-7.7,3.7-9.2-2.9S728.6,238,728.6,238z"/>
	
		<ellipse transform="matrix(0.3019 -0.9533 0.9533 0.3019 286.0942 876.8472)" class="st10" cx="741.8" cy="243.1" rx="3.4" ry="3.4"/>
	
		<ellipse transform="matrix(0.3019 -0.9533 0.9533 0.3019 285.6266 869.3228)" class="st10" cx="736.4" cy="239.6" rx="3.4" ry="3.4"/>
</g>
<g>
	<path class="st11" d="M585.8,330.8h-81.5l0,0c0-14.7,11.9-26.7,26.7-26.7c14.8-4.6,34.2-3.1,54.8,0V330.8z"/>
	<path class="st2" d="M574.2,324.9h38.3c1.3,0,2.4,1.1,2.4,2.4l0,0c0,1.3-1.1,2.4-2.4,2.4h-38.3l0,0V324.9L574.2,324.9z"/>
	<path class="st2" d="M580.8,281.2l10.3-12.5c0.6-1.3,2.3-1.9,3.6-1.3c0.7,0.3,1.2,1,1.4,1.7l4.1,14.3L580.8,281.2z"/>
	<path class="st11" d="M568.4,287.6l3.9-15.7c0-1.5,1.2-2.7,2.7-2.7c0.8,0,1.5,0.3,2,0.9l9.8,11.1L568.4,287.6z"/>
	<path class="st11" d="M504.3,330.8h7.8l0,0v16.5c0,4.3-3.5,7.8-7.8,7.8l0,0l0,0l0,0V330.8L504.3,330.8z"/>
	<path class="st11" d="M572.7,325.9H611c1.3,0,2.4,1.1,2.4,2.4l0,0c0,1.3-1.1,2.4-2.4,2.4h-38.3l0,0V325.9L572.7,325.9z"/>
	<circle class="st11" cx="585.8" cy="304.6" r="26.2"/>
	<ellipse class="st2" cx="611.1" cy="306.5" rx="2.9" ry="6.8"/>
	<ellipse class="st2" cx="604" cy="299.5" rx="0.7" ry="1.7"/>
	<ellipse class="st2" cx="609.4" cy="296.1" rx="0.7" ry="1.7"/>
	<path class="st2" d="M583.6,278.1c0,0-1.5-2.5-1.5-4.1"/>
	<path class="st2" d="M584.3,276.4c0,0,0.8-2.8,1.9-3.9"/>
</g>
<g>
	<path class="st4" d="M773.2,375.2c0,0-50.5-11.3,13.8-77.4c0,0,27.7,26.3,17.6,58.9c-4.1,13.1-17.2,21.2-30.6,18.6L773.2,375.2z"/>
	<path class="st12" d="M773.2,375.2c-1.1-0.2-49.5-12.4,13.8-77.4c0,0,27.7,26.3,17.6,58.9c-4.1,13.1-17.2,21.2-30.6,18.6
		L773.2,375.2z"/>
	<path class="st13" d="M773.9,375.5c0,0,26.7-40.2,13.1-77.8"/>
	<path class="st4" d="M785.1,399.4c0,0,14.8-11-3.8-49.5c0,0-24.7-30.6,0-59.4c0,0-53.9,1.4-52.9,51.5c1,50.2,27,57.4,27,57.4H785.1
		z"/>
	<path class="st8" d="M771.3,399.4c0,0-3.7-26.5-13.7-42.6c-2-3.3-3.4-6.8-4.2-10.6c-3.3-14.6,1.4-30,12.2-40.4l15.7-15.3"/>
	<path class="st4" d="M815.8,311.1c0,0,3.4,4.4-1.6,11.1s-9,12.4-7.4,16.5c0,0,7.5-12.4,13.6-12.6
		C826.5,326,822.5,318.6,815.8,311.1z"/>
	<path class="st14" d="M815.8,311.1c0.3,0.4,0.5,0.9,0.7,1.4c5.9,7,9.1,13.5,3.4,13.7c-5.3,0.2-11.7,9.7-13.2,12.1
		c0.1,0.2,0.1,0.4,0.2,0.5c0,0,7.5-12.4,13.6-12.6C826.5,326,822.5,318.6,815.8,311.1z"/>
	<path class="st10" d="M822.1,316.8c0,1.6-0.2,2.8-0.4,2.8s-0.4-1.3-0.4-2.8s0.2-0.8,0.4-0.8C822,315.9,822.1,315.2,822.1,316.8z"/>
	<path class="st10" d="M824.3,318.6c-1.4,0.7-2.6,1.2-2.7,1c-0.1-0.2,0.9-0.9,2.3-1.7c1.4-0.8,0.8-0.2,0.9,0
		C825,318.1,825.7,317.9,824.3,318.6z"/>
	<path class="st4" d="M797.9,311.1c0,0-3.4,4.4,1.6,11.1s9,12.4,7.4,16.5c0,0-7.5-12.4-13.6-12.6C787.2,326,791.2,318.6,797.9,311.1
		z"/>
	<path class="st14" d="M797.9,311.1c-0.3,0.4-0.5,0.9-0.7,1.4c-5.9,7-9.1,13.5-3.4,13.7c5.3,0.2,11.7,9.7,13.2,12.1
		c-0.1,0.2-0.1,0.4-0.2,0.5c0,0-7.5-12.4-13.6-12.6C787.2,326,791.2,318.6,797.9,311.1z"/>
	<path class="st10" d="M791.6,316.8c0,1.6,0.2,2.8,0.4,2.8s0.4-1.3,0.4-2.8s-0.2-0.8-0.4-0.8C791.7,315.9,791.6,315.2,791.6,316.8z"
		/>
	<path class="st10" d="M789.4,318.6c1.4,0.7,2.6,1.2,2.7,1c0.1-0.2-0.9-0.9-2.3-1.7c-1.4-0.8-0.8-0.2-0.9,0S788.1,317.9,789.4,318.6
		z"/>
</g>
<g>
	<path class="st8" d="M469,376c0,0-5.6-19.1,1.1-33.1c2.8-5.9,3.7-12.5,2.4-18.9c-0.6-3-1.5-6-2.7-8.9"/>
	<path class="st1" d="M474,306.2c0,2.3-4.2,9.1-4.2,9.1s-4.2-6.8-4.2-9.1c0.1-2.3,2-4.2,4.4-4.1C472.1,302.2,473.9,303.9,474,306.2z
		"/>
	<path class="st1" d="M481,319.1c-1.3,2-8.5,5.4-8.5,5.4s0.1-8,1.4-10s3.9-2.5,5.9-1.3C481.7,314.5,482.2,317.2,481,319.1L481,319.1
		z"/>
	<path class="st1" d="M480.7,341.3c-2.1,1.1-10.1,0.3-10.1,0.3s4.2-6.8,6.2-7.9c2.1-1.1,4.6-0.2,5.7,1.9
		C483.6,337.7,482.8,340.3,480.7,341.3L480.7,341.3z"/>
	<path class="st1" d="M476.7,358c-1.9,1.4-9.9,2-9.9,2s2.9-7.4,4.8-8.8s4.5-1,5.9,0.9C479,353.9,478.6,356.6,476.7,358L476.7,358z"
		/>
	<path class="st1" d="M463.6,324.9c1.7,1.6,9.5,3.3,9.5,3.3s-1.9-7.8-3.6-9.4c-1.7-1.7-4.3-1.6-6,0S461.8,323.2,463.6,324.9
		C463.5,324.9,463.5,324.9,463.6,324.9L463.6,324.9z"/>
	<path class="st1" d="M459.1,344.5c2.1,1.1,10.1,0.3,10.1,0.3s-4.1-6.8-6.2-7.9c-2.1-1-4.6-0.1-5.6,2
		C456.3,341,457.1,343.5,459.1,344.5z"/>
	<path class="st1" d="M457.4,364.2c1.9,1.4,9.9,2,9.9,2s-2.9-7.4-4.8-8.8s-4.5-1-5.9,0.9C455.1,360.1,455.5,362.8,457.4,364.2
		L457.4,364.2L457.4,364.2z"/>
	<path class="st1" d="M474,306.2c0,2.3-4.2,9.1-4.2,9.1s-4.2-6.8-4.2-9.1c0.1-2.3,2-4.2,4.4-4.1C472.1,302.2,473.9,303.9,474,306.2z
		"/>
	<path class="st1" d="M481,319.1c-1.3,2-8.5,5.4-8.5,5.4s0.1-8,1.4-10s3.9-2.5,5.9-1.3C481.7,314.5,482.2,317.2,481,319.1L481,319.1
		z"/>
	<path class="st1" d="M480.7,341.3c-2.1,1.1-10.1,0.3-10.1,0.3s4.2-6.8,6.2-7.9c2.1-1.1,4.6-0.2,5.7,1.9
		C483.6,337.7,482.8,340.3,480.7,341.3L480.7,341.3z"/>
	<path class="st1" d="M476.7,358c-1.9,1.4-9.9,2-9.9,2s2.9-7.4,4.8-8.8s4.5-1,5.9,0.9C479,353.9,478.6,356.6,476.7,358L476.7,358z"
		/>
	<path class="st1" d="M463.6,324.9c1.7,1.6,9.5,3.3,9.5,3.3s-1.9-7.8-3.6-9.4c-1.7-1.7-4.3-1.6-6,0S461.8,323.2,463.6,324.9
		C463.5,324.9,463.5,324.9,463.6,324.9L463.6,324.9z"/>
	<path class="st1" d="M459.1,344.5c2.1,1.1,10.1,0.3,10.1,0.3s-4.1-6.8-6.2-7.9c-2.1-1-4.6-0.1-5.6,2
		C456.3,341,457.1,343.5,459.1,344.5z"/>
	<path class="st1" d="M457.4,364.2c1.9,1.4,9.9,2,9.9,2s-2.9-7.4-4.8-8.8s-4.5-1-5.9,0.9C455.1,360.1,455.5,362.8,457.4,364.2
		L457.4,364.2L457.4,364.2z"/>
	<path class="st15" d="M455.7,374.8c0,0,6.9-1.4,8.7-3.2s10-5,11-2.7s12.3,10,4.6,11.3c-7.8,1.4-18.3,1.8-20.5,0.9
		C457.1,380.2,455.7,374.8,455.7,374.8z"/>
	<path class="st16" d="M479.9,379.4c-7.8,1.4-18.3,1.8-20.5,0.9c-1.7-0.7-2.9-4-3.4-5.6h-0.2c0,0,1.4,5.4,3.7,6.3
		c2.3,0.9,12.8,0.5,20.5-0.9c2.2-0.4,2.9-1.3,2.6-2.5C482.3,378.5,481.6,379.1,479.9,379.4z"/>
</g>
</svg>
