<?xml version="1.0" encoding="utf-8"?>
<!-- Generator: Adobe Illustrator 19.2.1, SVG Export Plug-In . SVG Version: 6.00 Build 0)  -->
<svg version="1.1" id="ba852881-1fdd-4058-baca-f1caa98e12dd"
	 xmlns="http://www.w3.org/2000/svg" xmlns:xlink="http://www.w3.org/1999/xlink" x="0px" y="0px" viewBox="0 0 1500 398.8"
	 style="enable-background:new 0 0 1500 398.8;" xml:space="preserve">
<style type="text/css">
	.st0{fill:#FFF8F0;}
	.st1{fill:#FF638B;}
	.st2{fill:#3F3D56;}
	.st3{fill:#E6E6E6;}
	.st4{fill:#FF9698;}
	.st5{fill:none;stroke:#535461;stroke-width:2;stroke-miterlimit:10;}
	.st6{fill:#A8A8A8;}
	.st7{opacity:0.2;enable-background:new    ;}
	.st8{fill:#444053;}
	.st9{fill:none;stroke:#444053;stroke-miterlimit:10;}
	.st10{fill:none;stroke:#444053;stroke-width:0.75;stroke-miterlimit:10;}
	.st11{fill:#504F60;}
	.st12{opacity:0.1;enable-background:new    ;}
	.st13{fill:#FFFFFF;stroke:#606060;stroke-miterlimit:10;}
	.st14{fill:#2F2E41;}
	.st15{fill:#464353;}
	.st16{opacity:0.9;fill:#FDD8D8;enable-background:new    ;}
	.st17{opacity:0.2;fill:none;stroke:#2F2E41;stroke-width:0.25;stroke-miterlimit:10;enable-background:new    ;}
	.st18{opacity:0.9;fill:#FF638B;enable-background:new    ;}
	.st19{opacity:0.1;fill:#FF638B;enable-background:new    ;}
	.st20{fill:#E8EAF2;}
	.st21{opacity:0.3;fill:#FF638B;enable-background:new    ;}
	.st22{fill:#F86D70;}
	.st23{fill:#FABDBD;}
	.st24{fill:url(#SVGID_1_);}
	.st25{fill:#434175;}
	.st26{fill:#AE6E79;}
	.st27{fill:#FF6584;}
</style>
<path class="st0" d="M408,341C180,265,0,399,0,399h822l300,1.3C664,133.3,575,138,408,341z"/>
<g>
	<path class="st1" d="M5,168.6C5,129,32.2,35,65.8,35s60.8,93.9,60.8,133.6s-27.3,71.6-60.9,71.6C32.2,240.4,5,208.2,5,168.6
		L5,168.6z"/>
	<path class="st2" d="M65.8,386c-0.3,0-0.5-0.3-0.5-0.7V95.5c0-0.5,0.2-0.7,0.5-0.7s0.5,0.3,0.5,0.7v290
		C66.3,385.7,66.1,386,65.8,386z"/>
	<path class="st2" d="M65.8,143.1c-0.2,0-0.3,0-0.4-0.1l-24-28.5c-0.2-0.3-0.2-0.6,0-0.8c0.2-0.3,0.5-0.3,0.7,0l0,0L66.2,142
		c0.2,0.3,0.2,0.6,0,0.8C66.1,142.9,66,143.1,65.8,143.1L65.8,143.1z"/>
	<path class="st2" d="M65.8,192.1c-0.3,0-0.5-0.3-0.5-0.6c0-0.1,0.1-0.3,0.2-0.4l40.3-47.5c0.2-0.3,0.5-0.3,0.7,0s0.2,0.6,0,0.8l0,0
		L66.2,192C66.1,192.1,66,192.1,65.8,192.1z"/>
	<path class="st3" d="M323.6,207.3c0-28.5,19.6-96,43.7-96s43.7,67.6,43.7,96s-19.6,51.6-43.8,51.6
		C343.2,258.9,323.6,235.8,323.6,207.3L323.6,207.3z"/>
	<path class="st2" d="M367.3,338.8c-0.2,0-0.4-0.1-0.4-0.4l0,0V154.6c0-0.3,0.2-0.4,0.4-0.4s0.4,0.1,0.4,0.4v183.8
		C367.7,338.7,367.5,338.8,367.3,338.8L367.3,338.8z"/>
	<path class="st2" d="M367.3,189c-0.1,0-0.2,0-0.3-0.1l-17.3-20.5c-0.2-0.1-0.2-0.4,0-0.6c0.2-0.1,0.4-0.1,0.5,0l17.3,20.5
		c0.2,0.1,0.2,0.4,0,0.6C367.5,188.8,367.4,189,367.3,189L367.3,189z"/>
	<path class="st2" d="M367.3,224.2c-0.2,0-0.4-0.1-0.4-0.4c0-0.1,0.1-0.3,0.1-0.3l29-34.2c0.2-0.1,0.4-0.1,0.5,0s0.2,0.4,0,0.6
		l-29,34.2C367.5,224.2,367.4,224.2,367.3,224.2z"/>
	<ellipse class="st4" cx="154.9" cy="99.3" rx="31" ry="36.6"/>
	<path class="st3" d="M130,185.7c4.5-53.3,26-94.2,48.1-91.7s36.5,47.8,32,101.1s-26,94.2-48.1,91.7
		C139.9,284.1,125.5,238.9,130,185.7z"/>
	<path class="st2" d="M161.3,353c-6.6-117.2,18.8-230.2,19-231.4l1.6,0.6c-0.3,1.1-25.5,113.9-19,230.8H161.3z"/>
	<polygon class="st2" points="169.2,193.2 207.3,174.6 208,176.4 169.9,195.1 	"/>
	<polygon class="st2" points="131.8,179.1 132.7,177.4 167,204.5 166.1,206.1 	"/>
	<path class="st1" d="M214.9,129C221,56.2,250.5,0,280.7,3.5s49.9,65.5,43.8,138.2s-35.6,129-65.8,125.5
		C228.4,263.8,208.8,201.9,214.9,129z"/>
	<path class="st2" d="M258.1,351.7c-9-157.6,25.7-309.4,26-310.9l1.6,0.6c-0.4,1.5-34.9,153.1-26,310.4L258.1,351.7z"/>
	<polygon class="st2" points="268.7,139.7 320.9,114.2 321.5,116 269.4,141.5 	"/>
	<polygon class="st2" points="217.6,119.6 218.5,118.1 265.4,155.1 264.5,156.6 	"/>
	<path class="st2" d="M367.8,136.8l6.2-4.2c-4.8-0.5-6.8,1.8-7.6,3.5c-3.8-1.3-7.9,0.4-7.9,0.4l12.4,3.8
		C370.3,138.9,369.2,137.7,367.8,136.8z"/>
	<path class="st2" d="M197.8,144l6.2-4.2c-4.8-0.5-6.8,1.8-7.6,3.5c-3.8-1.3-7.9,0.4-7.9,0.4l12.4,3.8
		C200.3,146.2,199.2,144.9,197.8,144z"/>
	<path class="st2" d="M96.5,293.5l6.2-4.2c-4.8-0.5-6.8,1.8-7.6,3.5c-3.8-1.3-7.9,0.4-7.9,0.4l12.4,3.8
		C99,295.6,98,294.4,96.5,293.5z"/>
	<path class="st2" d="M192.4,249.8c2.3-27.2,13.3-48.2,24.6-46.8c11.3,1.3,18.6,24.4,16.3,51.6s-13.3,48.2-24.6,46.8
		C197.4,299.9,190.2,277,192.4,249.8z"/>
	<path class="st1" d="M208,350.7c-3.4-68,9.6-133.5,9.8-134.2l1.6,0.7c-0.2,0.7-13,65.9-9.7,133.5H208L208,350.7z"/>
	<polygon class="st1" points="212.3,253.1 231.8,243.6 232.4,245.4 212.9,254.9 	"/>
	<polygon class="st1" points="193.1,246.7 194,245.1 211.5,258.9 210.6,260.6 	"/>
</g>
<g>
	<path class="st5" d="M777,376c0,0-5.6-19.1,1.1-33.1c2.8-5.9,3.7-12.5,2.4-18.9c-0.6-3-1.5-6-2.7-8.9"/>
	<path class="st1" d="M782,306.2c0,2.3-4.2,9.1-4.2,9.1s-4.2-6.8-4.2-9.1c0.1-2.3,2-4.2,4.4-4.1C780.1,302.2,781.9,303.9,782,306.2z
		"/>
	<path class="st1" d="M789,319.1c-1.3,2-8.5,5.4-8.5,5.4s0.1-8,1.4-10c1.3-2,3.9-2.5,5.9-1.3C789.7,314.5,790.2,317.2,789,319.1
		L789,319.1z"/>
	<path class="st1" d="M788.7,341.3c-2.1,1.1-10.1,0.3-10.1,0.3s4.2-6.8,6.2-7.9c2.1-1.1,4.6-0.2,5.7,1.9
		C791.6,337.7,790.8,340.3,788.7,341.3L788.7,341.3z"/>
	<path class="st1" d="M784.7,358c-1.9,1.4-9.9,2-9.9,2s2.9-7.4,4.8-8.8c1.9-1.4,4.5-1,5.9,0.9S786.6,356.6,784.7,358L784.7,358z"/>
	<path class="st1" d="M771.6,324.9c1.7,1.6,9.5,3.3,9.5,3.3s-1.9-7.8-3.6-9.4c-1.7-1.7-4.3-1.6-6,0
		C769.8,320.5,769.8,323.2,771.6,324.9C771.5,324.9,771.5,324.9,771.6,324.9L771.6,324.9z"/>
	<path class="st1" d="M767.1,344.5c2.1,1.1,10.1,0.3,10.1,0.3s-4.1-6.8-6.2-7.9c-2.1-1-4.6-0.1-5.6,2
		C764.3,341,765.1,343.5,767.1,344.5z"/>
	<path class="st1" d="M765.4,364.2c1.9,1.4,9.9,2,9.9,2s-2.9-7.4-4.8-8.8c-1.9-1.4-4.5-1-5.9,0.9
		C763.1,360.1,763.5,362.8,765.4,364.2L765.4,364.2L765.4,364.2z"/>
	<path class="st1" d="M782,306.2c0,2.3-4.2,9.1-4.2,9.1s-4.2-6.8-4.2-9.1c0.1-2.3,2-4.2,4.4-4.1C780.1,302.2,781.9,303.9,782,306.2z
		"/>
	<path class="st1" d="M789,319.1c-1.3,2-8.5,5.4-8.5,5.4s0.1-8,1.4-10c1.3-2,3.9-2.5,5.9-1.3C789.7,314.5,790.2,317.2,789,319.1
		L789,319.1z"/>
	<path class="st1" d="M788.7,341.3c-2.1,1.1-10.1,0.3-10.1,0.3s4.2-6.8,6.2-7.9c2.1-1.1,4.6-0.2,5.7,1.9
		C791.6,337.7,790.8,340.3,788.7,341.3L788.7,341.3z"/>
	<path class="st1" d="M784.7,358c-1.9,1.4-9.9,2-9.9,2s2.9-7.4,4.8-8.8c1.9-1.4,4.5-1,5.9,0.9S786.6,356.6,784.7,358L784.7,358z"/>
	<path class="st1" d="M771.6,324.9c1.7,1.6,9.5,3.3,9.5,3.3s-1.9-7.8-3.6-9.4c-1.7-1.7-4.3-1.6-6,0
		C769.8,320.5,769.8,323.2,771.6,324.9C771.5,324.9,771.5,324.9,771.6,324.9L771.6,324.9z"/>
	<path class="st1" d="M767.1,344.5c2.1,1.1,10.1,0.3,10.1,0.3s-4.1-6.8-6.2-7.9c-2.1-1-4.6-0.1-5.6,2
		C764.3,341,765.1,343.5,767.1,344.5z"/>
	<path class="st1" d="M765.4,364.2c1.9,1.4,9.9,2,9.9,2s-2.9-7.4-4.8-8.8c-1.9-1.4-4.5-1-5.9,0.9
		C763.1,360.1,763.5,362.8,765.4,364.2L765.4,364.2L765.4,364.2z"/>
	<path class="st6" d="M763.7,374.8c0,0,6.9-1.4,8.7-3.2s10-5,11-2.7c0.9,2.3,12.3,10,4.6,11.3c-7.8,1.4-18.3,1.8-20.5,0.9
		S763.7,374.8,763.7,374.8z"/>
	<path class="st7" d="M787.9,379.4c-7.8,1.4-18.3,1.8-20.5,0.9c-1.7-0.7-2.9-4-3.4-5.6h-0.2c0,0,1.4,5.4,3.7,6.3s12.8,0.5,20.5-0.9
		c2.2-0.4,2.9-1.3,2.6-2.5C790.3,378.5,789.6,379.1,787.9,379.4z"/>
</g>
<g>
	<path class="st1" d="M788.8,239.3c0,0-6.2-2.3-25.8,5.9s-22.1,7.2-27.2,5.9c-5.1-1.2-7.9-1.6-13.4-8.4c0,0-3.8-19-7.6-21.9
		c-3.7-2.9-19.5,1.7-19.5,1.7s-18.9,4-22.6-19.1c0,0,2.6-17.4-0.9-22.7c0,0,7,2.8,18.7-1.7c11.6-4.5,20.9,4.8,20.9,4.8
		s2.9,6.9,2.6,11c-0.3,4.1,1.6,5.7,7.1,3.7c0,0,2.7-3.5-1.1-9.4c-3.9-5.8-6.6-10.2-5.5-14.7s4.2-10.8,14.1-14
		c9.9-3.1,23.4-3.7,29.9-6.2s8.1-4.1,8.1-4.1s-4,3.6,5.4,19.1c9.4,15.4,3.4,22.1,3.4,22.1s-5,10.9-27.1,10c0,0-21.3,0.7-9.7,8.9
		c0,0,7.4-1.4,18.5-4.6s19.1,10.1,21.1,19.3C780.4,234.2,788.8,239.3,788.8,239.3z"/>
	<path class="st8" d="M760.3,161.9L760.3,161.9c1,2.9-8.5,14.8-16.7,24.2l-0.1-0.1C755,172.7,760.9,164.1,760.3,161.9z"/>
	<path class="st8" d="M743.7,185.8l0.1,0.1c-6.5,7.5-14.6,16.5-21.2,23.1c-0.6,0.6-1.2,1.3-1.8,2l-0.2-0.1c0.6-0.7,1.2-1.4,1.8-2
		C728.9,202.3,737.2,193.3,743.7,185.8z"/>
	<path class="st8" d="M720.7,210.7l0.1,0.2c-11.9,13.5-12.7,34.6-12.7,34.7l-2.5-2.7C705.6,242.8,708.7,224.4,720.7,210.7z"/>
	<path class="st9" d="M775.1,232c0,0-14-6.6-24.9-4.3c-10.9,2.4-35.5-8.5-35.5-8.5s-10.4-3.9-12.5-8.3c0,0-7.2-6.9-7.6-10.5
		s-7.4-12.6-11.9-12.9"/>
	<path class="st9" d="M773,238.4c0,0-7.1-4.3-6.2-9.4"/>
	<path class="st9" d="M762.2,244c0,0-10.1-3.3-11.1-16.4"/>
	<path class="st9" d="M745.9,247.4c0,0-9.6-7.3-6.4-20"/>
	<path class="st9" d="M726.3,243.8c0,0-6.4-12.3-0.7-20.3"/>
	<path class="st9" d="M775.2,223.9c0,0-7.3,2.1-5.7,5.6"/>
	<path class="st9" d="M766.4,211.8c0,0-9.8,2.8-10,15.4"/>
	<path class="st9" d="M752.8,208.9c0,0-8.9,10-8.2,19.1"/>
	<path class="st9" d="M737.2,212.8c0,0-8.8,7.7-7.7,12"/>
	<path class="st9" d="M731.9,210.1c0,0-8.3,1.4-9.4-1.1"/>
	<path class="st9" d="M721.1,201c0,0,4.2,5.1,5.2,3.9"/>
	<path class="st9" d="M762.6,197.8c0,0-20.9,1.4-25.6-4.4"/>
	<path class="st9" d="M716.8,175.5c0,0,9.8,19.2,16.9,21.6"/>
	<path class="st9" d="M727,166.4c0,0,6,17.6,13.5,23.1"/>
	<path class="st10" d="M771.4,183.3c0,0-15.9,6.2-25.4-0.1"/>
	<path class="st10" d="M741.2,162.7c0,0,3.6,13,8.5,16.1"/>
	<path class="st10" d="M769,168.7c0,0-8.9,3.1-12.2,0.7"/>
	<path class="st9" d="M713.5,205.2c0,0,0,11.3-3.4,12.1"/>
	<path class="st9" d="M685.9,219.9c0,0,13.4,1.1,19.6-5.3"/>
	<path class="st9" d="M710,191.9c0,0-3.2,11.5-12.2,14.5"/>
	<path class="st9" d="M677.9,207.8c0,0,9.5,3,17.6-4.6"/>
	<path class="st9" d="M699.5,182c0,0-0.9,9.7-6.7,14.3"/>
	<path class="st9" d="M678.2,193c0,0,7.9,0,9.7-2.3"/>
	<polygon class="st11" points="655.9,343.6 655.8,344.4 651.9,392.4 645.3,392.4 648.5,344.4 648.6,343.5 	"/>
	<polygon class="st12" points="655.9,343.6 655.8,344.4 651.9,392.4 645.3,392.4 648.5,344.4 648.6,343.5 	"/>
	<polygon class="st11" points="694.2,384.3 689.3,384.3 615.5,384.2 611.6,384.2 613.7,382 693.7,382 	"/>
	<polygon class="st12" points="655.9,345.6 655.8,347.6 648.5,347.6 648.6,345.3 	"/>
	<rect x="646.4" y="342.5" class="st11" width="12.3" height="4.2"/>
	<polygon class="st12" points="616.2,382 615.5,384.2 611.6,384.2 613.7,382 	"/>
	<polygon class="st11" points="626.8,342.4 626.6,343.1 610.2,398.8 602.7,398.7 620,343.1 620.1,342.5 	"/>
	<polygon class="st12" points="694.2,384.3 689.3,384.3 688.6,382 693.7,382 	"/>
	<polygon class="st11" points="702.1,398.7 694.6,398.8 678.2,343.1 678,342.4 684.6,342.5 684.8,343.1 	"/>
	<rect x="539.6" y="197.4" class="st13" width="223.6" height="144.5"/>
	<path class="st11" d="M654.6,170.2V189h-6.4v-18.8c-0.1-0.9,1.3-1.6,3.1-1.6s3.3,0.6,3.4,1.5C654.6,170.1,654.6,170.1,654.6,170.2z
		"/>
	<rect x="648.1" y="187.2" class="st12" width="6.4" height="1.7"/>
	<path class="st11" d="M657.1,188.5v6.2h-11.5v-6.2c0-0.4,0.7-0.8,1.6-0.8l0,0h8.3C656.4,187.7,657.1,188.1,657.1,188.5z"/>
	<ellipse class="st12" cx="651.4" cy="191.6" rx="2.4" ry="1.2"/>
	<ellipse class="st2" cx="651.4" cy="191.4" rx="2.4" ry="1.2"/>
	<rect x="645.6" y="193.3" class="st12" width="11.5" height="1.4"/>
	<rect x="640.9" y="195.2" class="st12" width="20.9" height="3.2"/>
	<rect x="640.9" y="194.2" class="st11" width="20.9" height="3.2"/>
	<path class="st12" d="M609,338.1h87.9c2.1,0,3.8,1.5,3.8,3.5v0.8l0,0h-95.4l0,0v-0.8C605.2,339.7,606.9,338.1,609,338.1z"/>
	<polygon class="st12" points="620.1,342.6 626.8,342.4 626.6,344.2 620,344.2 	"/>
	<rect x="646.4" y="342.5" class="st12" width="12.3" height="1.7"/>
	<polygon class="st12" points="684.8,344.2 678.2,344.2 678,342.4 684.6,342.6 	"/>
	<path class="st11" d="M609,339.1h87.9c2.1,0,3.8,1.5,3.8,3.5v0.8l0,0h-95.4l0,0v-0.8C605.2,340.6,606.9,339.1,609,339.1z"/>
	<g>
		<path class="st14" d="M505.7,381.5l0.5,0.6c0,0,45.2-16.4,50.6-20.8l-1.1-1.9C555.6,359.4,542.2,363.3,505.7,381.5z"/>
		<path class="st15" d="M557.4,358.3c0,0-2.7,0.8-2.3,1.4s1.3,2.3,1.7,2.2c0.4-0.1,2.6-1.1,2.6-1.1s0.3-1.8-1.3-2.7L557.4,358.3z"/>
		<path class="st16" d="M571.9,352.7l-0.1,0.3c0,0-1.3-0.4-3.2,2.2c-0.3,0.5-0.7,1-1,1.5c-2.4,4.1-6,5.2-8.2,3.9
			c-0.1,0-0.1-0.1-0.2-0.1l-1.2-2.1l0.2-0.2c1.2-0.9,2.3-2,3.2-3.2c1.1-1.5,2.9-2.6,4.8-2.9C568.1,351.7,570.1,352,571.9,352.7z"/>
		<path class="st17" d="M558.3,358.5c0,0,1.6-0.4,4-3.3s7.6-2.7,7.6-2.7s-5.1,0.8-6.4,3.3s-5,3-5,3L558.3,358.5z"/>
		<path class="st17" d="M558.8,359.1c0,0,2,0.5,4.2-1.3s5.8-5.4,7.2-5.2c0,0-2.6,1.6-3.7,3.1c-1.1,1.6-3,3.6-4.5,3.6
			c0,0-2.4,0.5-3.2,0.1V359.1z"/>
		<path class="st17" d="M559.1,359.9c0,0,1.8,1.2,4.9-0.4c1.2-0.8,2.3-1.9,2.9-3.2c0.9-1.4,2.1-2.6,3.7-3.3"/>
		<path class="st18" d="M573.2,352.6L573,353c0,0-1.6-0.6-4,3c-0.3-0.1-0.5-0.1-0.8-0.3c-0.2-0.1-0.4-0.2-0.6-0.3
			c-0.2-0.1-0.4-0.2-0.5-0.4c-0.4-0.3-0.7-0.7-0.9-1.1c-0.1-0.3-0.2-0.6-0.3-0.9c0-0.2,0-0.4,0-0.6s0.1-0.4,0.2-0.6
			C568.1,351.4,570.4,351.6,573.2,352.6z"/>
	</g>
	<g>
		<path class="st19" d="M757,283.4c0,3.4-0.4,6.8-1.3,10.1c-0.7,2.7-1.7,5.3-3,7.8c-0.2,0.4-0.4,0.8-0.7,1.2c0,4.9-1.5,9.7-4.4,13.9
			c-5,7.1-13.6,11.8-23.5,11.8H581.9c-6.6,0-13-1.7-18.5-4.8c-4.5-2.6-8.4-6-11.3-10.1c-3.7-5.3-5.7-11.5-5.7-17.8
			c-0.6-1-1.2-2-1.7-3.1c-1.7-3.4-2.8-7.1-3.4-10.8c-0.3-2-0.5-4.1-0.5-6.1c0-11.5,4.9-21.8,12.6-28.5c5.7-5,13-7.9,20.8-7.9
			c0.7,0,1.3,0,1.9,0.1c0.4-0.6,0.7-1.3,1.1-1.9c10.5-17.6,31.2-30.4,55.8-33.4c3.7-0.5,7.5-0.7,11.2-0.7c2.4,0,4.7,0.1,7,0.3l0,0
			c15.5,1.2,29.6,6.2,40.8,13.9c0.3,0.2,0.7,0.5,1,0.7c4.8-2.9,10.3-4.6,16.2-4.6c1,0,2,0,3,0.1c14.5,1.4,26.3,12.8,29.5,27.9
			c0.6,2.8,0.9,5.6,0.9,8.4c0,1.3-0.1,2.6-0.2,3.8c1.1,0.8,2.1,1.7,3.1,2.6C752.7,262.8,757,272.5,757,283.4z"/>
		<path class="st19" d="M563.2,323.2c0.8,0.5,1.7,0.9,2.5,1.3l85.3-46.6l1.1,1.9L602.5,328H615l41.5-42.2l1.5,1.2l-10.1,41h14.2
			l9.9-35.3h3.6l14.1,35.3h13.6l-10.1-41l1.5-1.2l39.7,40.4c2.9-1.1,5.6-2.6,7.9-4.4l-43.2-42l1.1-1.9l51.5,28.1
			c0.2-1.2,0.3-2.5,0.3-3.7c0.2-0.4,0.4-0.8,0.7-1.2c1.3-2.5,2.3-5.1,3-7.8c0.2-0.6,0.3-1.2,0.4-1.8l-55.8-19.3v-4.7l55,4.3
			c-1.9-6.2-5.2-11.7-9.6-15.9l-0.1-0.1l-45.3,8.2v-4.5l41.4-19.5c-1.8-7.5-5.7-14-11.1-18.7l-35.8,36.5l-1.5-1.2l10.6-43.1
			c-3.9,0.7-7.5,2.1-10.8,4.1c-0.3-0.2-0.7-0.5-1-0.7c-0.7-0.5-1.5-1-2.3-1.5L675.6,251H672l-13.2-47c-2.5-0.4-5.1-0.7-7.7-0.9l0,0
			c-2.1-0.2-4.2-0.2-6.4-0.3l13.2,53.8l-1.5,1.2l-47.2-48c-10.1,4.4-18.9,10.6-25.6,18.1l67.2,31.7v4.5l-97.4-17.7
			c-0.1,0.1-0.3,0.2-0.4,0.3c-7.7,6.7-12.6,17-12.6,28.5c0,0.3,0,0.7,0,1l110.3-8.7v4.7l-102.3,35.3
			C551.6,314,556.7,319.5,563.2,323.2L563.2,323.2z"/>
		<polygon class="st19" points="697.2,328.2 680.4,328.2 675.6,286.4 675.5,285.7 675.5,285.7 675.1,282.2 691.9,282.1 692.4,282.1 
			692.5,282.4 		"/>
		<polygon class="st19" points="675.8,286.1 675.6,286.4 630.4,328.2 607.3,328.2 664.6,274.1 675.5,285.7 		"/>
		<path class="st20" d="M744.6,320.6c-5.2,5.1-12.5,8-20.2,8H582.1c-9.1,0-17.9-3.2-24.5-9h0.2c20.8-3,53.4-5,90-5
			c40.6,0,76.2,2.4,96.3,6C744.3,320.5,744.4,320.6,744.6,320.6z"/>
		<path class="st21" d="M744.6,320.7c-5.2,5.1-12.5,8-20.2,8H582.1c-9.1,0-17.9-3.2-24.5-9h0.2c20.8-3,53.4-5,90-5
			c40.6,0,76.2,2.4,96.3,6C744.3,320.6,744.4,320.7,744.6,320.7z"/>
		<ellipse class="st22" cx="673.5" cy="271.8" rx="30" ry="27.4"/>
		<path class="st2" d="M702.5,319.7l-1.5,5.2c-0.6,2-2.6,3.4-4.8,3.4H601c-2.3,0-4.2-1.4-4.8-3.4l-1.5-5.2c-1.3-4.5,2.2-9.1,7.3-9.3
			c0.1,0,0.2,0,0.4,0h92.7c0.1,0,0.3,0,0.4,0C700.4,310.6,703.9,315.2,702.5,319.7z"/>
		<path class="st12" d="M693.3,312.8c0,5.6-20.7,10.1-46.3,10.1s-46.3-4.5-46.3-10.1c0-0.8,0.4-1.6,1.3-2.3h90
			C692.9,311.2,693.3,311.9,693.3,312.8z"/>
		<path class="st1" d="M705.9,289.8c0-4.1-4.1-7.4-9.3-7.4c-5.1,0-9.3,3.3-9.3,7.4c-5.1,0-9.3,3.3-9.3,7.5c0,4.1,4.1,7.5,9.3,7.5
			c1.6,0,3.2-0.3,4.6-1c2.9,1.3,6.3,1.3,9.3,0c1.4,0.7,3,1,4.6,1c5.1,0,9.3-3.3,9.3-7.5C715.2,293.1,711,289.8,705.9,289.8z"/>
		<path class="st12" d="M705.9,289.8c0-4.1-4.1-7.4-9.3-7.4c-5.1,0-9.3,3.3-9.3,7.4c-5.1,0-9.3,3.3-9.3,7.5c0,4.1,4.1,7.5,9.3,7.5
			c1.6,0,3.2-0.3,4.6-1c2.9,1.3,6.3,1.3,9.3,0c1.4,0.7,3,1,4.6,1c5.1,0,9.3-3.3,9.3-7.5C715.2,293.1,711,289.8,705.9,289.8z"/>
		<path class="st1" d="M684,252.1c0-1-0.2-2.1-0.6-3c4.8-1.6,7.4-6.4,5.6-10.8c-1.3-3.4-4.8-5.6-8.7-5.6c0-4.7-4.2-8.5-9.3-8.5
			c-4.3,0-8,2.7-9,6.5c-0.1,0-0.2,0-0.3,0c0-4.7-4.1-8.5-9.3-8.5c-4.5,0-8.3,2.9-9.1,6.9c-4-2.9-9.9-2.2-13,1.4
			c-1.3,1.5-2,3.3-2,5.2c-5.1,0-9.3,3.8-9.3,8.5c0,2.8,1.6,5.5,4.2,7.1c-0.1,0.5-0.2,1.1-0.2,1.7c-5.1,0-9.3,3.8-9.3,8.5
			s4.2,8.5,9.3,8.5c1.6,0,3.2-0.4,4.6-1.1c2.9,1.5,6.4,1.5,9.3,0c3.5,1.9,8,1.4,11-1.1c0.2,0,0.3,0,0.5,0c1.6,0,3.2-0.4,4.6-1.1
			c2.1,1.1,4.5,1.4,6.9,0.9c3,2,7,2.2,10.2,0.5c2.9,1.5,6.4,1.5,9.3,0c4.4,2.3,10.1,1,12.7-3.1c2.6-4,1-9.2-3.4-11.6
			C687.3,252.5,685.7,252.1,684,252.1L684,252.1z M641.7,252.9c0-0.4,0-0.7-0.1-1.1c0.2-0.1,0.5-0.2,0.7-0.3
			c0.4,0.2,0.8,0.4,1.2,0.5c-0.5,0.3-0.9,0.6-1.3,0.9C642,252.9,641.8,252.9,641.7,252.9z"/>
		<path class="st1" d="M679.8,275.4c-0.1-4.2-3.9-7.6-8.5-7.5c-4.5,0.1-8.2,3.4-8.2,7.5c-4.6,0-8.4,3.4-8.4,7.6s3.7,7.6,8.4,7.6
			c1.5,0,2.9-0.4,4.2-1c2.6,1.4,5.8,1.4,8.4,0c4,2.1,9.1,0.9,11.4-2.8c2.3-3.6,0.9-8.3-3.1-10.4
			C682.7,275.8,681.3,275.4,679.8,275.4z"/>
		<path class="st12" d="M679.8,275.4c-0.1-4.2-3.9-7.6-8.5-7.5c-4.5,0.1-8.2,3.4-8.2,7.5c-4.6,0-8.4,3.4-8.4,7.6s3.7,7.6,8.4,7.6
			c1.5,0,2.9-0.4,4.2-1c2.6,1.4,5.8,1.4,8.4,0c4,2.1,9.1,0.9,11.4-2.8c2.3-3.6,0.9-8.3-3.1-10.4
			C682.7,275.8,681.3,275.4,679.8,275.4z"/>
		<path class="st12" d="M684,252.1c0-1-0.2-2.1-0.6-3c4.8-1.6,7.4-6.4,5.6-10.8c-1.3-3.4-4.8-5.6-8.7-5.6c0-4.7-4.2-8.5-9.3-8.5
			c-4.3,0-8,2.7-9,6.5c-0.1,0-0.2,0-0.3,0c0-4.7-4.1-8.5-9.3-8.5c-4.5,0-8.3,2.9-9.1,6.9c-4-2.9-9.9-2.2-13,1.4
			c-1.3,1.5-2,3.3-2,5.2c-5.1,0-9.3,3.8-9.3,8.5c0,2.8,1.6,5.5,4.2,7.1c-0.1,0.5-0.2,1.1-0.2,1.7c-5.1,0-9.3,3.8-9.3,8.5
			s4.2,8.5,9.3,8.5c1.6,0,3.2-0.4,4.6-1.1c2.9,1.5,6.4,1.5,9.3,0c3.5,1.9,8,1.4,11-1.1c0.2,0,0.3,0,0.5,0c1.6,0,3.2-0.4,4.6-1.1
			c2.1,1.1,4.5,1.4,6.9,0.9c3,2,7,2.2,10.2,0.5c2.9,1.5,6.4,1.5,9.3,0c4.4,2.3,10.1,1,12.7-3.1c2.6-4,1-9.2-3.4-11.6
			C687.3,252.5,685.7,252.1,684,252.1L684,252.1z M641.7,252.9c0-0.4,0-0.7-0.1-1.1c0.2-0.1,0.5-0.2,0.7-0.3
			c0.4,0.2,0.8,0.4,1.2,0.5c-0.5,0.3-0.9,0.6-1.3,0.9C642,252.9,641.8,252.9,641.7,252.9z"/>
		<path class="st2" d="M677,293.7c-0.7-0.3-1.5-0.5-2.2-0.6c-0.1,0-0.2,0-0.2,0c0-0.1,0-0.1,0-0.2c0-0.9,0.3-1.8,1-2.4
			s1.6-0.9,2-1.7c-1.6-0.4-3.2-0.6-4.8-0.7c-0.4,0-0.9,0-1.2,0.2c-0.4,0.3-0.6,0.7-0.8,1.2c-0.4,1.5-0.7,3-1.2,4.4h-0.1
			c-1.8,0.3-4,0.1-4.8-1.4c0.2-0.7,0.5-1.4,0.8-2.1c0.9-2.1,2.4-4.1,3.8-6c0.9-1.2,1.9-2.5,2.8-3.7c-1.4-0.4-2.8-0.7-4.2-0.9
			c-0.3-0.1-0.6-0.1-0.9,0.1c-0.2,0.1-0.3,0.3-0.4,0.5c-1.4,3.1-3,6.4-3.5,9.7c-0.3-0.1-0.5-0.2-0.8-0.4l-4.4-1.7
			c-0.2-0.1-0.4-0.2-0.6-0.4c-0.4-0.5,0-1.2,0.6-1.4c0.6-0.2,1.2-0.2,1.9-0.2c0.6-0.1,1.3-0.3,1.6-0.8c0.3-0.6-0.3-1.3-0.9-1.7
			c-0.6-0.3-1.4-0.4-2.1-0.7c-1.1-0.4-1.8-1.3-2.1-2.4h-1c1.4-1.2,2.8-2.4,4.5-3.2c0.8-0.4,1.6-0.8,2.4-1.3c2-1.4,3-3.6,2.7-5.9
			c-0.1-0.6-0.3-1.3-0.1-1.9c0.2-0.5,0.6-0.9,1-1.3l3.8-3.3c-2.4-0.5-4.9-0.7-7.4-0.7c-0.6,0-1.3,0.1-1.8,0.3
			c-1,0.5-1.5,1.5-1.9,2.5c-0.3,0.7-0.6,1.4-0.7,2.1c-0.3,1.2-0.2,2.6-1,3.6c-0.6,0.8-1.6,1.3-2.5,1.9c-2.6,1.6-4.5,3.9-5.4,6.6
			c-0.1,0.2-0.2,0.4-0.3,0.6c-2.2,0.2-4.4,0.6-6.5,1.3c-2.6,1-4.8,2.6-7.1,4.1c-2.4,1.7-5,3.7-5.9,6.4c-1,3,0.5,6.3,2.9,8.6
			c1.9,1.9,4.4,3.2,6.8,4.3c1.6,0.8,1.9,0.6,3.3-0.4l3.8-2.8c1.1-0.8,2.2-1.6,2.9-2.7c1-1.5,1.3-3.4,2.5-4.7c1.7-1.8,5.1-2,7-0.3
			c0.5,0.5,1,1.1,1.7,1.3c0.4,0.1,0.8,0,1.1,0.2c0.6,0.3,0.7,1,0.9,1.6c0.6,1.6,2.7,2.4,4.5,2.2c1.8-0.2,3.4-1.3,4.7-2.6
			c0.3-0.3,0.7-0.7,1.1-0.9c0.4-0.1,0.8-0.2,1.2-0.2c1.3-0.1,2.7,0.2,3.9,0.8c1.1,0.5,2.1,1.3,3.2,1.7c2.3,0.8,4.9,0,7.1-0.9
			L677,293.7z"/>
		<path class="st12" d="M677,293.7c-0.7-0.3-1.5-0.5-2.2-0.6c-0.1,0-0.2,0-0.2,0c0-0.1,0-0.1,0-0.2c0-0.9,0.3-1.8,1-2.4
			s1.6-0.9,2-1.7c-1.6-0.4-3.2-0.6-4.8-0.7c-0.4,0-0.9,0-1.2,0.2c-0.4,0.3-0.6,0.7-0.8,1.2c-0.4,1.5-0.7,3-1.2,4.4h-0.1
			c-1.8,0.3-4,0.1-4.8-1.4c0.2-0.7,0.5-1.4,0.8-2.1c0.9-2.1,2.4-4.1,3.8-6c0.9-1.2,1.9-2.5,2.8-3.7c-1.4-0.4-2.8-0.7-4.2-0.9
			c-0.3-0.1-0.6-0.1-0.9,0.1c-0.2,0.1-0.3,0.3-0.4,0.5c-1.4,3.1-3,6.4-3.5,9.7c-0.3-0.1-0.5-0.2-0.8-0.4l-4.4-1.7
			c-0.2-0.1-0.4-0.2-0.6-0.4c-0.4-0.5,0-1.2,0.6-1.4c0.6-0.2,1.2-0.2,1.9-0.2c0.6-0.1,1.3-0.3,1.6-0.8c0.3-0.6-0.3-1.3-0.9-1.7
			c-0.6-0.3-1.4-0.4-2.1-0.7c-1.1-0.4-1.8-1.3-2.1-2.4h-1c1.4-1.2,2.8-2.4,4.5-3.2c0.8-0.4,1.6-0.8,2.4-1.3c2-1.4,3-3.6,2.7-5.9
			c-0.1-0.6-0.3-1.3-0.1-1.9c0.2-0.5,0.6-0.9,1-1.3l3.8-3.3c-2.4-0.5-4.9-0.7-7.4-0.7c-0.6,0-1.3,0.1-1.8,0.3
			c-1,0.5-1.5,1.5-1.9,2.5c-0.3,0.7-0.6,1.4-0.7,2.1c-0.3,1.2-0.2,2.6-1,3.6c-0.6,0.8-1.6,1.3-2.5,1.9c-2.6,1.6-4.5,3.9-5.4,6.6
			c-0.1,0.2-0.2,0.4-0.3,0.6c-2.2,0.2-4.4,0.6-6.5,1.3c-2.6,1-4.8,2.6-7.1,4.1c-2.4,1.7-5,3.7-5.9,6.4c-1,3,0.5,6.3,2.9,8.6
			c1.9,1.9,4.4,3.2,6.8,4.3c1.6,0.8,1.9,0.6,3.3-0.4l3.8-2.8c1.1-0.8,2.2-1.6,2.9-2.7c1-1.5,1.3-3.4,2.5-4.7c1.7-1.8,5.1-2,7-0.3
			c0.5,0.5,1,1.1,1.7,1.3c0.4,0.1,0.8,0,1.1,0.2c0.6,0.3,0.7,1,0.9,1.6c0.6,1.6,2.7,2.4,4.5,2.2c1.8-0.2,3.4-1.3,4.7-2.6
			c0.3-0.3,0.7-0.7,1.1-0.9c0.4-0.1,0.8-0.2,1.2-0.2c1.3-0.1,2.7,0.2,3.9,0.8c1.1,0.5,2.1,1.3,3.2,1.7c2.3,0.8,4.9,0,7.1-0.9
			L677,293.7z"/>
		<path class="st1" d="M646.1,272.6c0-4.2-4.9-7.7-10.9-7.7s-10.9,3.4-10.9,7.7c-6,0-10.9,3.4-10.9,7.7c0,4.2,4.9,7.7,10.9,7.7
			c1.9,0,3.7-0.3,5.5-1c3.5,1.4,7.4,1.4,10.9,0c1.7,0.7,3.6,1,5.5,1c6,0,10.9-3.4,10.9-7.7S652.1,272.6,646.1,272.6z"/>
		<path class="st12" d="M646.1,272.6c0-4.2-4.9-7.7-10.9-7.7s-10.9,3.4-10.9,7.7c-6,0-10.9,3.4-10.9,7.7c0,4.2,4.9,7.7,10.9,7.7
			c1.9,0,3.7-0.3,5.5-1c3.5,1.4,7.4,1.4,10.9,0c1.7,0.7,3.6,1,5.5,1c6,0,10.9-3.4,10.9-7.7S652.1,272.6,646.1,272.6z"/>
		<path class="st2" d="M669.5,315.9l-6.3-2.6c-0.5-0.2-1.1-0.5-1.2-1c-0.1-0.3-0.1-0.5,0-0.8c0.2-1.4-0.2-2.7-0.9-3.9
			c-0.5-0.7-1.1-1.4-1.4-2.2c-0.6-1.7,0.6-3.5,0.6-5.4c0.1-1.8-0.9-3.5-2.4-4.7c-0.4-0.4-0.9-0.7-1.2-1.1c-1-1.2-0.6-2.9-0.1-4.4
			l0.1-0.1c0.1-0.1,0-0.4-0.1-0.9c1.8-0.4,3.5-1.2,5-2.2c0.5-0.3,0.9-0.7,1.5-0.9c0.8-0.3,1.7-0.3,2.4-0.5c1.5-0.5,2.3-1.9,3-3.2
			c1.6-3,3.3-6.2,3.5-9.5c-1.3-0.9-2.9-1.5-4.6-1.5c-0.3,0-0.6,0-0.8,0.2c-0.1,0.1-0.2,0.3-0.2,0.4c-0.6,2.4-1.6,4.7-2.9,6.8
			c-0.5,0.9-1.2,1.7-2,2.4c-0.9,0.9-2.1,1.5-3.2,2.1c-1,0.5-2.2,1.1-3.3,1.7c-0.8-1.8-1.4-3.4-1.4-3.6c0.9-2.7,1-5.6,0.1-8.3
			c-0.2-0.7-0.5-1.3-0.6-2s0.1-1.4,0.1-2.1c0.1-1.4-0.1-2.8-0.1-4.2c0-1.9,0.5-3.7,0.9-5.6c-1.3-0.2-2.5-0.3-3.8-0.2
			c-0.3,0-0.5,0.1-0.7,0.2c-0.3,0.2-0.4,0.5-0.5,0.9c-0.8,2.6-2.4,4.9-3.3,7.5s-1.1,5.5,0.6,7.7c0.6,0.8,1.4,1.5,1.6,2.4
			c0.1,0.5-0.1,1-0.2,1.5c-0.3,0.9,3.8,10.3,4.1,11.1c0,0,0,0,0,0.1c-0.1,0-0.3,0-0.4,0.1c-0.2,2.4-1.2,4.8-3,6.6
			c-0.2-0.6-0.4-1.2-0.5-1.9c-0.1-0.9-0.1-1.9-0.5-2.8c-0.5-1.4-1.7-2.4-2.7-3.5c-1.8-1.9-3.3-4.2-4.3-6.6c-0.8,0.3-1.6,0.5-2.4,0.6
			c-0.4,0.1-1.9,0.1-2.1,0.4c-0.4,0.5,1.2,2.9,1.5,3.5c1.1,1.9,3,3.5,4.1,5.4c0.5,0.9,0.8,1.8,1.1,2.7c0.6,1.7,1.2,3.4,1.7,5.2
			c-0.5,0.5-1,1.1-1.5,1.7c-1.7,2.1-3.9,3.7-6.4,4.8c-0.3,0.1-0.6,0.3-0.8,0.6v0.1c-1-0.7-2-1.4-2.7-2.4c-0.3-0.4-0.5-0.9-0.9-1.3
			c-1.1-1.4-3-2-4.6-2.9c-0.7-0.4-1.3-0.9-2-1.2c-0.8-0.3-1.7-0.4-2.6-0.4c-0.7,0-3.4-0.6-3.8,0c-0.5,0.8,1.1,2,1.7,2.3
			c1.1,0.5,2.3,0.6,3.4,1c1,0.4,1.9,0.9,2.7,1.5c0.4,0.2,0.7,0.5,0.9,0.9c0.3,0.4,0.4,0.8,0.6,1.3c0.7,1.3,2.3,1.9,3.7,2.7
			c-0.4,0-0.7,0.1-1.1,0.2c-1.1,0.4-1.5,1.5-2.2,2.4c-0.6,0.8-1.4,1.4-2.1,2.1c-0.7,0.7-1.2,1.6-1.2,2.5c0,0.6,0.3,1.2-0.1,1.7
			c0.8,0.3,1.8,0.7,2.6,0.8c0.9,0.1,1.8-0.1,2.4-0.6c0.2-0.2,0.4-0.4,0.6-0.5c0.5-0.3,1.3-0.2,1.9,0s1.1,0.7,1.6,1
			c1.5,1,3.5,1.3,5.3,0.9c0.4-0.1,0.9-0.2,0.8-0.5c-1.6-0.7-2.7-2.2-2.8-3.8c1.2-0.2,2.5,0.2,3.2,1.1c-0.5,0-0.9,0.7-0.6,1.1
			c2,0,3.9-1,5.1-2.5c1.4-0.5,2.9,0.1,3.5,1.3c0.1,0.3,0.2,0.7,0.2,1l2.7,1.2c0.4,0.2,0.9,0.4,1.4,0.4s1-0.4,0.9-0.8
			c0-0.5-0.7-1-0.3-1.4c0.6,0.3,1.1,0.8,1.8,1s1.6-0.1,1.6-0.7c0-0.2-0.1-0.4-0.3-0.6c-0.7-1-1.7-1.9-2.9-2.5
			c-0.1-0.6,1.3-1.2,1.7-0.8l3.5,3.5c0.3,0.3,0.6,0.6,0.9,0.8c1.2,0.7,2.8,0,4.2,0c1.5,0,3.1,0.8,4.6,0.3c0.4-0.1,0.8-0.5,0.6-0.8
			C670.1,316.1,669.8,316,669.5,315.9z"/>
		<path class="st1" d="M678.9,251.1c0-0.9-0.2-1.7-0.5-2.5c4-1.3,6.1-5.3,4.7-9c-1.1-2.8-4-4.7-7.3-4.7c0-3.9-3.5-7-7.7-7
			c-3.6,0-6.7,2.2-7.5,5.4c-0.1,0-0.1,0-0.2,0c0-3.9-3.4-7-7.7-7.1c-3.7,0-6.9,2.4-7.6,5.8c-3.3-2.4-8.2-1.9-10.8,1.2
			c-1.1,1.2-1.6,2.8-1.6,4.3c-4.3,0-7.7,3.2-7.7,7c0,2.4,1.3,4.6,3.5,5.9c-0.1,0.5-0.1,0.9-0.1,1.4c-4.3,0-7.7,3.1-7.7,7
			s3.4,7,7.7,7c1.4,0,2.7-0.3,3.9-0.9c2.4,1.3,5.3,1.3,7.7,0c2.9,1.5,6.6,1.2,9.1-0.9c0.1,0,0.3,0,0.4,0c1.4,0,2.7-0.3,3.9-0.9
			c1.7,0.9,3.8,1.2,5.7,0.7c2.5,1.7,5.8,1.8,8.4,0.4c2.4,1.3,5.3,1.3,7.7,0c3.7,1.9,8.4,0.8,10.5-2.6s0.9-7.7-2.8-9.6
			C681.6,251.4,680.3,251.1,678.9,251.1L678.9,251.1z M643.7,251.8c0-0.3,0-0.6-0.1-0.9c0.2-0.1,0.4-0.2,0.6-0.3
			c0.3,0.2,0.6,0.3,1,0.4c-0.4,0.2-0.7,0.5-1.1,0.8C643.9,251.8,643.8,251.8,643.7,251.8z"/>
		<path class="st1" d="M705.1,290c0-3.9-3.9-7-8.7-7s-8.7,3.2-8.7,7c-4.8,0-8.7,3.2-8.7,7c0,3.9,3.9,7,8.7,7c1.5,0,3-0.3,4.4-0.9
			c2.8,1.3,6,1.3,8.7,0c1.4,0.6,2.9,0.9,4.4,0.9c4.8,0,8.7-3.1,8.7-7S710,290,705.1,290z"/>
		<path class="st1" d="M678.9,275.7c0.1-3.9-3.3-7.1-7.6-7.1c-4.3-0.1-7.8,3-7.8,6.9c0,0.1,0,0.1,0,0.2c-4.3,0-7.7,3.2-7.7,7
			c0,3.9,3.5,7,7.7,7c1.4,0,2.7-0.3,3.9-0.9c2.4,1.3,5.3,1.3,7.7,0c3.7,1.9,8.4,0.8,10.5-2.6s0.9-7.7-2.8-9.6
			C681.6,276,680.3,275.7,678.9,275.7L678.9,275.7z"/>
		<path class="st1" d="M645.2,272.9c0-3.9-4.5-7-10-7s-10,3.1-10,7c-5.5,0-10,3.2-10,7c0,3.9,4.5,7,10,7c1.7,0,3.4-0.3,5-0.9
			c3.2,1.3,6.8,1.3,10,0c1.6,0.6,3.3,1,5,0.9c5.5,0,10-3.2,10-7S650.7,272.9,645.2,272.9z"/>
		<path class="st1" d="M626.4,293.5c0.1-4.1-3.6-7.6-8.1-7.6c-4.5-0.1-8.3,3.2-8.4,7.4c0,0.1,0,0.2,0,0.2c-4.5,0-8.2,3.4-8.2,7.5
			s3.7,7.5,8.2,7.5c1.4,0,2.9-0.3,4.1-1c2.5,1.3,5.7,1.3,8.2,0c3.9,2.1,9,0.8,11.2-2.7c2.3-3.6,0.9-8.2-3-10.3
			C629.3,293.9,627.9,293.5,626.4,293.5z"/>
		<path class="st12" d="M626.4,293.5c0.1-4.1-3.6-7.6-8.1-7.6c-4.5-0.1-8.3,3.2-8.4,7.4c0,0.1,0,0.2,0,0.2c-4.5,0-8.2,3.4-8.2,7.5
			s3.7,7.5,8.2,7.5c1.4,0,2.9-0.3,4.1-1c2.5,1.3,5.7,1.3,8.2,0c3.9,2.1,9,0.8,11.2-2.7c2.3-3.6,0.9-8.2-3-10.3
			C629.3,293.9,627.9,293.5,626.4,293.5z"/>
		<path class="st1" d="M625.9,293.8c0.1-3.9-3.3-7.1-7.6-7.1s-7.8,3-7.8,6.9c0,0.1,0,0.1,0,0.2c-4.3,0-7.7,3.2-7.7,7
			c0,3.9,3.5,7,7.7,7c1.4,0,2.7-0.3,3.9-0.9c2.4,1.3,5.3,1.3,7.7,0c3.7,1.9,8.4,0.8,10.5-2.6s0.9-7.7-2.8-9.6
			C628.6,294.1,627.3,293.8,625.9,293.8L625.9,293.8z"/>
		<path class="st12" d="M650.1,236.5c3.7,0,6.9,2.5,7.4,5.9c0.6-3.7-2.2-7.2-6.3-7.7s-7.9,2-8.5,5.8c-0.1,0.3-0.1,0.7-0.1,1
			s0,0.6,0.1,0.9C643.2,239,646.4,236.5,650.1,236.5z"/>
		<path class="st12" d="M665.4,248.7c3.4,1.4,5.1,4.9,4,8.1c2.2-3.2,1.2-7.4-2.3-9.4s-8.1-1.1-10.3,2.1c-0.2,0.3-0.3,0.5-0.5,0.8
			c-0.1,0.3-0.3,0.6-0.4,0.9C658,248.3,662,247.3,665.4,248.7z"/>
		<path class="st12" d="M643.5,253.8c3.4,1.4,5.1,4.9,4,8.1c0.2-0.3,0.4-0.5,0.5-0.8c1.7-3.4,0-7.5-3.7-9s-8.1-0.1-9.8,3.3
			c-0.1,0.3-0.3,0.6-0.4,0.9C636.1,253.5,640.2,252.4,643.5,253.8z"/>
		<path class="st12" d="M635.8,275.6c1.7,1.3,2,3.6,0.8,5.3c0.2-0.1,0.3-0.3,0.4-0.4c1.6-1.7,1.4-4.3-0.4-5.7
			c-1.9-1.5-4.7-1.3-6.3,0.4l0,0c-0.1,0.1-0.3,0.3-0.4,0.4C631.6,274.3,634.1,274.3,635.8,275.6z"/>
		<path class="st12" d="M706,294.4c1.7,1.3,2,3.6,0.8,5.3c0.2-0.1,0.3-0.3,0.4-0.4c1.6-1.7,1.4-4.3-0.4-5.7
			c-1.9-1.5-4.7-1.3-6.3,0.4c-0.1,0.1-0.3,0.3-0.4,0.4C701.8,293,704.3,293,706,294.4z"/>
		<path class="st12" d="M618.4,294.3c1.8-1.2,4.3-1.1,5.9,0.4c-0.1-0.2-0.2-0.3-0.3-0.5c-1.5-1.8-4.3-2.1-6.3-0.7
			c-1.9,1.3-2.3,3.8-0.9,5.6c0.1,0.1,0.3,0.3,0.4,0.4C616.1,297.8,616.7,295.5,618.4,294.3z"/>
		<path class="st12" d="M670.4,279.1c1.8-1.2,4.3-1.1,5.9,0.4c-0.1-0.2-0.2-0.3-0.3-0.5c-1.4-1.8-4.2-2.2-6.2-0.9s-2.5,3.9-1,5.7
			l0.1,0.1c0.1,0.2,0.3,0.3,0.4,0.4C668.1,282.5,668.6,280.3,670.4,279.1z"/>
		<path class="st1" d="M662.3,309.6c-0.5-0.3-0.4-1.2-0.4-1.2s0.9-0.3,1.4,0.1c0.5,0.3,0.7,0.9,0.4,1.2
			C663.4,310,662.8,309.9,662.3,309.6z"/>
		<path class="st1" d="M664,318.7c-0.5-0.3-0.4-1.2-0.4-1.2s0.9-0.3,1.4,0.1c0.5,0.3,0.7,0.9,0.4,1.2
			C665.1,319.1,664.5,319,664,318.7z"/>
		<path class="st1" d="M662.3,319.6c-0.5-0.3-0.4-1.2-0.4-1.2s0.9-0.3,1.4,0.1c0.5,0.3,0.7,0.9,0.4,1.2
			C663.4,319.9,662.8,319.9,662.3,319.6z"/>
		<path class="st1" d="M674,312.8c-0.5-0.3-0.4-1.2-0.4-1.2s0.9-0.3,1.4,0.1s0.7,0.9,0.4,1.2C675.1,313.2,674.5,313.2,674,312.8z"/>
		<path class="st1" d="M625.3,286.2c0.4-0.4,1.3-0.4,1.3-0.4s0.3,0.8-0.1,1.2c-0.4,0.4-1,0.6-1.3,0.4S624.9,286.6,625.3,286.2z"/>
		<ellipse class="st19" cx="631" cy="248.7" rx="4.7" ry="4.3"/>
		<path class="st21" d="M569.7,322c0.1-0.3,0.4-0.6,0.8-0.6c0.2,0,0.4-0.1,0.6,0c1.2,0,2.1,0.5,3.2,0.7c1,0.2,2.2,0.2,3.4,0.2
			c0.7,0,1.4,0,2.1-0.2c1.1-0.2,1.9-0.7,2.6-1.2"/>
		<path class="st21" d="M703.1,320.3c0.1-0.3,0.4-0.6,0.8-0.6c0.2,0,0.4-0.1,0.6,0c1.2,0,2.1,0.5,3.2,0.7c1,0.2,2.2,0.2,3.4,0.2
			c0.7,0,1.4,0,2.1-0.2c1.1-0.2,1.9-0.7,2.6-1.2"/>
		<path class="st21" d="M713.7,324.1c0.1-0.3,0.4-0.6,0.8-0.6c0.2,0,0.4-0.1,0.6,0c1.2,0,2.1,0.5,3.2,0.7c1,0.2,2.2,0.2,3.4,0.2
			c0.7,0,1.4,0,2.1-0.2c1.1-0.2,1.9-0.7,2.6-1.2"/>
		<path class="st21" d="M704.8,323.3c0.1-0.1,0.2-0.2,0.3-0.2s0.1,0,0.2,0c0.4,0,0.8,0.1,1.2,0.2s0.8,0.1,1.2,0.1c0.3,0,0.5,0,0.8,0
			c0.3-0.1,0.7-0.2,0.9-0.3"/>
		<path class="st21" d="M706.7,321.4c0.1-0.1,0.2-0.2,0.3-0.2s0.1,0,0.2,0c0.4,0,0.8,0.1,1.2,0.2s0.8,0.1,1.2,0.1c0.3,0,0.5,0,0.8,0
			c0.3-0.1,0.7-0.2,0.9-0.3"/>
		<path class="st21" d="M588.8,318.3c0.1-0.1,0.2-0.2,0.3-0.2s0.1,0,0.2,0c0.5,0,0.8,0.1,1.2,0.2c0.4,0,0.9,0.1,1.3,0.1
			c0.3,0,0.5,0,0.8,0s0.7-0.2,1-0.3"/>
		<path class="st21" d="M583.3,318.5c0.1-0.1,0.2-0.2,0.3-0.2s0.1,0,0.2,0c0.5,0,0.8,0.1,1.2,0.2c0.4,0,0.9,0.1,1.3,0.1
			c0.3,0,0.5,0,0.8,0s0.7-0.2,1-0.3"/>
		<path class="st21" d="M580.8,325.5c0.1-0.3,0.4-0.6,0.8-0.6c0.2,0,0.4-0.1,0.6,0c1.2,0,2.1,0.5,3.2,0.7c1,0.2,2.2,0.2,3.4,0.2
			c0.7,0,1.4,0,2.1-0.2c1.1-0.2,1.9-0.7,2.6-1.2"/>
		<path class="st23" d="M690.2,315.8c0,0.1,0,0.1,0,0.2s0.2,0.2,0.4,0.2c0.3,0,0.7,0,1,0l3.1-0.1h0.1l0.1-0.1
			c0.2-0.4,0.3-0.7,0.4-1.1c0-0.1,0-0.1,0-0.2s-0.1-0.1-0.2-0.1c-0.4-0.2-0.9-0.3-1.3-0.4c-0.3-0.1-0.6-0.1-0.9-0.2
			c-0.4-0.1-0.8-0.4-1.1-0.5s-0.4,0.2-0.5,0.4C690.9,314.6,690.4,315.1,690.2,315.8z"/>
		
			<linearGradient id="SVGID_1_" gradientUnits="userSpaceOnUse" x1="1467.8424" y1="-1946.5457" x2="1480.5883" y2="-1946.5457" gradientTransform="matrix(0.9661 0.2583 0.2583 -0.9661 -223.9155 -1949.3138)">
			<stop  offset="0" style="stop-color:#808080;stop-opacity:0.25"/>
			<stop  offset="0.54" style="stop-color:#808080;stop-opacity:0.12"/>
			<stop  offset="1" style="stop-color:#808080;stop-opacity:0.1"/>
		</linearGradient>
		<path class="st24" d="M701.8,319.7c-0.1-0.3-0.4-0.6-0.7-0.8c-0.3-0.2-0.6-0.4-1-0.6c0.5-0.3,1-0.6,1.4-1c0.3-0.2,0.5-0.4,0.7-0.7
			c0.2-0.3,0.2-0.6,0.2-0.9c-0.1-0.4-0.4-0.6-0.8-0.8c-0.4-0.1-0.8-0.2-1.2-0.2c-0.3,0-0.6,0-0.9,0c0.2,0,0.4-0.1,0.5-0.1
			c0.7-0.2,1.3-0.5,1.9-0.8c0.2-0.1,0.4-0.2,0.4-0.4c0-0.2,0-0.4-0.2-0.5s-0.4-0.2-0.6-0.2c-0.6,0-1.1,0.2-1.5,0.5
			c-0.1,0.1-0.3,0.2-0.4,0.3c-0.2,0.1-0.5,0.1-0.6-0.1c0-0.1-0.1-0.2-0.1-0.2l0,0c0.5-0.4,0.7-1,0.6-1.6c-0.1-0.4-0.2-0.9-0.5-1.2
			c0.3-0.1,0.7-0.2,1-0.2c0.1,0,0.2,0,0.3,0c0.2-0.1,0.3-0.2,0.3-0.4c0-0.2,0.1-0.3,0.2-0.5c0.8,0.5,2,0.3,2.6-0.4
			c0.4,0,0.7-0.1,1.1-0.2c0.4-0.2,0.7-0.7,0.5-1.1c-0.1-0.1-0.2-0.2-0.3-0.3c-0.2-0.2-0.3-0.4-0.4-0.6c-0.4-0.9-1.3-1.3-2.4-1.5
			c-0.5-0.1-1-0.1-1.5,0c-0.4,0.1-0.7,0.2-1.1,0.3l-0.2,0.1c0-0.3-0.1-0.5-0.1-0.7c0-0.1,0-0.2,0-0.3c0.1-0.1,0.2-0.2,0.4-0.3
			l2.1-0.8c0.2-0.1,0.5-0.2,0.7-0.2c0.7-0.2,1.5,0,2.1-0.3c0.4-0.2,0.6-0.5,0.7-0.9c0.1-0.3,0-0.6-0.2-0.7c-0.3-0.1-0.6,0-0.9,0.1
			c-0.9,0.4-1.8,0.8-2.8,1.1c-0.9,0.3-1.9,0.5-2.7,0.9c-0.2,0.1-0.3,0.2-0.4,0.3c-0.1,0.1-0.2,0.3-0.3,0.4l-0.3,0.6
			c-0.3,0.5-0.5,1-0.3,1.5l-0.1,0.1c-0.1,0.1-0.1,0.3-0.1,0.4c-0.1,0.1-0.4,0.2-0.5,0.3c-0.2,0.1-0.4,0.3-0.6,0.4
			c-0.8,0.5-1.4,1.2-2.1,1.8c-0.9,1-1.8,2.1-2.5,3.2c-0.2,0.2-0.3,0.4-0.4,0.6c-0.1,0.2-0.1,0.4,0,0.6c-0.3,0.6-0.8,1.2-1,1.8h-0.1
			c-0.2,0.6-0.1,1.3,0,1.9c0.1,0.4,0.2,0.7,0.5,1c0.2,0.1,0.4,0.2,0.6,0.2c0.2,0.1,0.4,0.1,0.6,0.2l0,0c-0.3,0-0.6,0-0.7,0.2
			c-0.1,0.1-0.1,0.2-0.1,0.3l-0.5,2.5c-0.1,0.2,0,0.4,0,0.6c0.1,0.1,0.3,0.3,0.4,0.3c0.3,0.1,0.7,0.2,1,0.3c0.1,0,0.3,0,0.4,0
			c0.1,0,0.2-0.2,0.2-0.3c0-0.2-0.3-0.3-0.4-0.5c-0.1-0.2,0.1-0.5,0.3-0.7l0.1-0.1c0.1,0.2,0.2,0.4,0.3,0.6s0.3,0.2,0.5,0.2
			c0.4-0.1,0.9-0.2,1.3-0.3h0.1c0.7,0.3,1.5,0.5,2.2,0.7c0.1,0,0.3,0.1,0.4,0c0.1,0,0.3-0.1,0.3-0.3c0-0.2-0.1-0.3-0.3-0.4
			c-0.3-0.2-0.6-0.3-0.9-0.4l1.4-0.2c0.5-0.1,1-0.1,1.5-0.2c0.6,0,1.3,0.1,1.8-0.2c0.3-0.2,0.5-0.5,0.6-0.9
			C701.8,320.2,701.9,320,701.8,319.7z M696.9,314.8c-0.2,0-0.5,0-0.7,0c0-0.2,0-0.3,0.1-0.5c0-0.1,0-0.1,0.1-0.1
			c0,0,0.1-0.1,0.2-0.1l0.9-0.2c0-0.1,0-0.3-0.1-0.4c0.1,0,0.1,0.1,0.2,0.1c0,0.3,0.1,0.7,0.2,1c0,0.1,0.1,0.1,0.1,0.2l0,0
			C697.5,314.8,697.2,314.8,696.9,314.8z"/>
		<path class="st25" d="M700.3,315c0.4,0,0.8,0.1,1.2,0.2s0.7,0.4,0.8,0.8c0.1,0.3,0,0.6-0.2,0.9s-0.4,0.5-0.7,0.7
			c-0.5,0.4-1,0.8-1.6,1.1c-0.3,0.1-0.6,0.2-0.9,0.3c-0.6,0.3-1.1,0.8-1.6,1.2c-0.5,0.4-0.8,0.9-1.2,1.4c0,0,0,0.1-0.1,0.1h-0.1
			l-1.3-0.6c-0.1,0-0.2-0.1-0.2-0.2c0,0,0-0.1,0.1-0.1c0.6-1.1,1.5-2.1,2.6-2.9c-0.9,0.5-2.1,0.5-3,0.1c-0.2-0.1-0.3-0.2-0.5-0.3
			c-0.2-0.3-0.1-0.8,0.1-1.1c0.2-0.3,0.3-0.6,0.5-0.9c0.5-0.7,1.7-0.6,2.5-0.6C698,314.9,699.1,314.9,700.3,315z"/>
		<path class="st12" d="M698.5,317.4c-0.2,0-0.4,0.1-0.6,0.2c0.3-0.2,1.1-0.1,1.5-0.2c0.5,0,1-0.1,1.4-0.2
			C700,317.2,699.2,317.3,698.5,317.4z"/>
		<path class="st22" d="M692.4,321.8c-0.2,0.2-0.4,0.4-0.3,0.7c0.1,0.2,0.3,0.3,0.4,0.5c0,0.1-0.1,0.3-0.2,0.3c-0.1,0-0.3,0.1-0.4,0
			c-0.4,0-0.7-0.1-1-0.3c-0.2-0.1-0.3-0.2-0.4-0.3c-0.1-0.2-0.1-0.4,0-0.6l0.5-2.5c0-0.1,0.1-0.2,0.1-0.3c0.2-0.2,0.5-0.2,0.7-0.2
			c0.3,0,0.6,0.1,0.8,0.2c0.2,0,0.4,0.1,0.5,0.3c0.1,0.2,0.1,0.4,0.1,0.6c0,0.3,0,0.8-0.1,1C692.9,321.4,692.6,321.6,692.4,321.8z"
			/>
		<path class="st22" d="M695.7,321.7c0.5,0.1,1.1,0.3,1.5,0.5c0.1,0.1,0.3,0.2,0.3,0.4c0,0.1-0.2,0.2-0.3,0.3c-0.1,0-0.3,0-0.4,0
			c-0.8-0.2-1.5-0.4-2.2-0.7c-0.2-0.1-0.4-0.2-0.5-0.3c-0.1-0.1-0.2-0.3,0-0.5c0.1-0.1,0.4-0.1,0.6-0.3c0.1-0.1,0.2-0.2,0.3-0.3
			c0.1,0,0.2,0,0.3,0.1s0.5,0.2,0.5,0.3C695.8,321.5,695.8,321.6,695.7,321.7z"/>
		<path class="st25" d="M690,315.9c0.9-0.1,1.8-0.3,2.7-0.3c0.7,0,1.4,0,2,0.3c0.2,0.1,0.3,0.2,0.5,0.4c0.5,0.4,1.2,0.6,1.8,0.8
			c1.4,0.5,2.7,1.2,4,2c0.3,0.2,0.6,0.4,0.7,0.7c0,0.2,0,0.5-0.1,0.7c-0.1,0.3-0.3,0.6-0.6,0.9c-0.5,0.3-1.2,0.2-1.8,0.2
			c-0.5,0-1,0.1-1.4,0.2c-1.5,0.3-3,0.5-4.6,0.8c-0.2,0-0.4-0.1-0.4-0.2c-0.3-0.4-0.5-0.9-0.5-1.4s0.1-1,0.2-1.5
			c-0.5-0.1-0.9-0.2-1.5-0.4c-0.2,0-0.4-0.1-0.5-0.2c-0.3-0.2-0.4-0.6-0.5-0.9C690,317.1,689.8,316.4,690,315.9z"/>
		<path class="st12" d="M698.9,319.9c-0.3-0.2-0.7-0.4-1.1-0.5c-0.2-0.1-0.5-0.1-0.8-0.1c-0.4,0-0.8,0-1.2,0.1
			c-1,0.1-1.9,0.1-2.9-0.2"/>
		<path class="st26" d="M705.6,299.8c0,0-4.2,16.9-4,17.4s1.6,2.9-0.9,10.7c0,0.3-0.4,0.6-0.8,0.6c-0.7,0-3.1-0.6-3.1-0.6
			c-0.2-0.2-0.3-0.4-0.2-0.7c0.1-0.5,0.9-7.9,4-10.3l3.8-17.1C704.5,299.6,705,299.3,705.6,299.8z"/>
		<path class="st26" d="M704.6,298.6l1.2,0.2c0.2,0,0.5,0.2,0.5,0.4c0.1,0.3,0,0.7-0.8,0.7c-1.3,0-1-0.3-1-0.3s-0.6,0-0.7-0.4
			c0-0.3,0.2-0.6,0.6-0.6C704.5,298.6,704.5,298.6,704.6,298.6z"/>
		<path class="st23" d="M699.7,307.9c-0.4,0-0.8-0.2-1.1-0.5c-0.1-0.1-0.1-0.1-0.2-0.2c-0.1,0-0.3,0-0.4,0c-0.4,0.2-0.6,0.7-0.6,1.2
			c0.1,0.4,0.3,0.9,0.6,1.2c0.2,0.3,0.5,0.6,0.8,0.8c0.3-0.3,0.7-0.6,1.2-0.6c0.4,0,0.8-0.3,1.1-0.6c0.2-0.2,0.4-0.1,0.3-0.4
			c-0.1-0.3-0.2-0.5-0.4-0.8c-0.1-0.1-0.2-0.3-0.2-0.5c-0.1-0.2,0-0.3-0.2-0.2c-0.1,0.1-0.2,0.2-0.4,0.3
			C700,307.9,699.9,307.9,699.7,307.9z"/>
		<path class="st23" d="M699.2,305.1c0-0.1,0-0.2,0-0.2c0.1-0.1,0.2-0.2,0.4-0.3l2.1-0.8c0.2-0.1,0.5-0.2,0.7-0.2
			c0.7-0.2,1.4,0,2.1-0.3c0.4-0.2,0.6-0.5,0.7-0.8c0.1-0.3,0-0.6-0.2-0.7s-0.6,0-0.9,0.1c-0.9,0.4-1.8,0.8-2.7,1.1
			c-0.9,0.3-1.8,0.5-2.7,0.8c-0.2,0.1-0.3,0.2-0.4,0.3c-0.1,0.1-0.2,0.3-0.3,0.4l-0.3,0.6c-0.3,0.5-0.5,1.1-0.3,1.6
			c0.1,0.2,0.2,0.3,0.4,0.3c0.1,0,0.3,0,0.4,0c0.3-0.1,0.9-0.1,1-0.4C699.4,306.2,699.2,305.5,699.2,305.1z"/>
		<path class="st23" d="M699.6,313.8c0.2-0.1,0.3-0.2,0.4-0.3c0.4-0.3,0.9-0.5,1.5-0.5c0.2,0,0.4,0.1,0.6,0.2
			c0.2,0.1,0.3,0.3,0.2,0.5s-0.2,0.3-0.4,0.4c-0.6,0.3-1.2,0.6-1.9,0.8c-0.7,0.2-1.3,0.2-2,0.1c-0.1,0-0.1,0-0.2-0.1
			c-0.1,0-0.1-0.1-0.1-0.2c-0.2-0.5-0.2-1.1-0.1-1.6c0,0.2,1.2,0,1.4,0.1s0.1,0.4,0.2,0.5C699.2,313.9,699.4,313.9,699.6,313.8z"/>
		<ellipse class="st23" cx="701.9" cy="308.1" rx="1.9" ry="1.7"/>
		<path class="st22" d="M697.7,306.3c0.4-0.1,0.8-0.1,1.1-0.1c0.2,0,0.4,0.1,0.5,0.3l0,0c0.1,0.2,0.1,0.4,0.1,0.6s-0.1,0.4-0.3,0.5
			c-0.1,0.1-0.3,0.1-0.5,0.2s-0.3,0.3-0.3,0.5s0,0.4,0.1,0.6c0.1,0.5,0.3,1,0.6,1.5c0.2,0.5,0.5,1,0.6,1.5c0.1,0.6-0.1,1.2-0.6,1.6
			s-1.2,0.4-1.7,0.1c0.1,0.1,0.1,0.3,0.1,0.4l-0.9,0.2c-0.1,0-0.2,0.1-0.2,0.2l0,0c0,0.3-0.1,0.6-0.2,0.9c-0.1,0.3-0.3,0.5-0.7,0.6
			c-0.3,0.1-0.6-0.1-0.9-0.2c-0.6-0.3-1.3-0.5-2-0.7c-0.3-0.1-0.7-0.2-1-0.4c-0.4-0.3-0.5-0.7-0.4-1.2c0.1-0.2,0.2-0.4,0.3-0.6
			c0.8-1.1,1.6-2.2,2.5-3.2c0.6-0.7,1.3-1.3,2-1.8c0.2-0.1,0.4-0.3,0.6-0.4c0.1-0.1,0.4-0.2,0.5-0.3s0-0.3,0.1-0.4
			C697.3,306.5,697.5,306.4,697.7,306.3z"/>
		<path class="st25" d="M704.4,309c-0.3,0.2-0.7,0.2-1.1,0.2c-0.4,0-0.8-0.1-1.2-0.1c-0.5,0-1,0.1-1.3,0.5c-0.1,0.2-0.1,0.3-0.2,0.5
			c0,0.2-0.2,0.3-0.3,0.4c-0.1,0-0.2,0-0.3,0c-1.7,0.2-3.1,1.2-3.5,2.7c-0.4-0.4-0.6-0.9-0.5-1.4c-0.1,0.4-0.7,0.8-0.6,1.3
			c-0.9-0.9-0.8-2.2,0.2-3c0.1,0,0.1-0.1,0.2-0.1c0.2-0.2,0.5-0.3,0.8-0.5c0.7-0.5,1.2-1.2,1.4-2c0.1-0.3,0-0.7,0.2-1
			c0.2-0.4,0.8-0.6,1.2-0.8c0.3-0.1,0.7-0.2,1.1-0.3c0.5-0.1,1,0,1.4,0c1,0.1,1.9,0.5,2.3,1.4c0.1,0.2,0.2,0.4,0.3,0.6
			c0.1,0.1,0.2,0.2,0.3,0.3C705.1,308.3,704.8,308.8,704.4,309z"/>
		<path class="st20" d="M592.2,328.6c0,0,15.7-6.7,21.6-4.3c5.9,2.3,19.8,1.9,19.8,1.9s24.7-0.9,27.5,0s28.6,0.9,29.8,0
			c1.3-0.9,15.9-1.6,18.3,0c1.4,1,3,1.8,4.6,2.5H592.2V328.6z"/>
		<path class="st21" d="M592.2,328.6c0,0,15.7-7.9,21.6-5.2c5.9,2.8,19.8,2.2,19.8,2.2s24.7-1.1,27.5,0s28.6,1.1,29.8,0
			c1.3-1.1,15.9-2,18.3,0c1.4,1.2,2.9,2.2,4.6,2.9L592.2,328.6z"/>
	</g>
</g>
<g>
	<path class="st27" d="M502,360.3c0,7.9-6.4,14.2-14.2,14.2h-67.3l0,0c0-14.2,11.2-25.9,25.3-26.7c0.9,0,1.8-0.2,2.7-0.4
		c11.5-3.2,25.6-3,40.8-1.3C496.5,346.9,502,353,502,360.3L502,360.3z"/>
	<path class="st2" d="M490.4,368.6h38.3c1.3,0,2.4,1.1,2.4,2.4l0,0c0,1.3-1.1,2.4-2.4,2.4h-38.3l0,0L490.4,368.6L490.4,368.6z"/>
	<path class="st2" d="M497,324.9l10.3-12.5c0.6-1.3,2.3-1.9,3.6-1.3c0.7,0.3,1.2,1,1.4,1.7l4.1,14.3L497,324.9z"/>
	<path class="st27" d="M484.6,331.3l3.9-15.7c0-1.5,1.2-2.7,2.7-2.7c0.8,0,1.5,0.3,2,0.9l9.8,11.1L484.6,331.3z"/>
	<path class="st27" d="M420.5,374.5h7.8l0,0V391c0,4.3-3.5,7.8-7.8,7.8l0,0l0,0l0,0V374.5L420.5,374.5z"/>
	<path class="st27" d="M488.9,369.6h38.3c1.3,0,2.4,1.1,2.4,2.4l0,0c0,1.3-1.1,2.4-2.4,2.4h-38.3l0,0L488.9,369.6L488.9,369.6z"/>
	<circle class="st27" cx="502" cy="348.3" r="26.2"/>
	<ellipse class="st2" cx="527.3" cy="350.2" rx="2.9" ry="6.8"/>
	<ellipse class="st2" cx="520.2" cy="343.2" rx="0.7" ry="1.7"/>
	<ellipse class="st2" cx="525.6" cy="339.8" rx="0.7" ry="1.7"/>
	<path class="st2" d="M499.8,321.8c0,0-1.5-2.5-1.5-4.1"/>
	<path class="st2" d="M500.5,320.1c0,0,0.8-2.8,1.9-3.9"/>
</g>
</svg>
