<?xml version="1.0" encoding="utf-8"?>
<!-- Generator: Adobe Illustrator 19.2.1, SVG Export Plug-In . SVG Version: 6.00 Build 0)  -->
<svg version="1.1" id="ba852881-1fdd-4058-baca-f1caa98e12dd"
	 xmlns="http://www.w3.org/2000/svg" xmlns:xlink="http://www.w3.org/1999/xlink" x="0px" y="0px" viewBox="0 0 1500 398.8"
	 style="enable-background:new 0 0 1500 398.8;" xml:space="preserve">
<style type="text/css">
	.st0{fill:#F8F0F0;}
	.st1{fill:#FF638B;}
	.st2{fill:#3F3D56;}
	.st3{fill:#E6E6E6;}
	.st4{fill:#FF6366;}
	.st5{opacity:0.4;fill:#FFFFFF;enable-background:new    ;}
	.st6{fill:none;stroke:#535461;stroke-miterlimit:10;}
	.st7{fill:none;stroke:#535461;stroke-width:2;stroke-miterlimit:10;}
	.st8{fill:#FC6681;}
	.st9{fill:#FFD037;}
	.st10{opacity:0.1;enable-background:new    ;}
	.st11{fill:url(#SVGID_1_);}
	.st12{fill:#E2E2EC;}
	.st13{fill:#F1F2FB;}
	.st14{fill:#E8EAF8;}
	.st15{opacity:0.1;fill:none;stroke:#000000;stroke-width:4;stroke-miterlimit:10;enable-background:new    ;}
	.st16{fill:#FF6584;}
</style>
<path class="st0" d="M408,341C180,265,0,399,0,399h822l300,1.3C664,133.3,575,138,408,341z"/>
<g>
	<g>
		<path class="st1" d="M5,168.6C5,129,32.2,35,65.8,35s60.8,93.9,60.8,133.6s-27.3,71.6-60.9,71.6C32.2,240.4,5,208.2,5,168.6
			L5,168.6z"/>
		<path class="st2" d="M65.8,386c-0.3,0-0.5-0.3-0.5-0.7V95.5c0-0.5,0.2-0.7,0.5-0.7s0.5,0.3,0.5,0.7v290
			C66.3,385.7,66.1,386,65.8,386z"/>
		<path class="st2" d="M65.8,143.1c-0.2,0-0.3,0-0.4-0.1l-24-28.5c-0.2-0.3-0.2-0.6,0-0.8c0.2-0.3,0.5-0.3,0.7,0l0,0L66.2,142
			c0.2,0.3,0.2,0.6,0,0.8C66.1,142.9,66,143.1,65.8,143.1L65.8,143.1z"/>
		<path class="st2" d="M65.8,192.1c-0.3,0-0.5-0.3-0.5-0.6c0-0.1,0.1-0.3,0.2-0.4l40.3-47.5c0.2-0.3,0.5-0.3,0.7,0s0.2,0.6,0,0.8
			l0,0L66.2,192C66.1,192.1,66,192.1,65.8,192.1z"/>
		<path class="st3" d="M323.6,207.3c0-28.5,19.6-96,43.7-96s43.7,67.6,43.7,96s-19.6,51.6-43.8,51.6
			C343.2,258.9,323.6,235.8,323.6,207.3L323.6,207.3z"/>
		<path class="st2" d="M367.3,338.8c-0.2,0-0.4-0.1-0.4-0.4l0,0V154.6c0-0.3,0.2-0.4,0.4-0.4s0.4,0.1,0.4,0.4v183.8
			C367.7,338.7,367.5,338.8,367.3,338.8L367.3,338.8z"/>
		<path class="st2" d="M367.3,189c-0.1,0-0.2,0-0.3-0.1l-17.3-20.5c-0.2-0.1-0.2-0.4,0-0.6c0.2-0.1,0.4-0.1,0.5,0l17.3,20.5
			c0.2,0.1,0.2,0.4,0,0.6C367.5,188.8,367.4,189,367.3,189L367.3,189z"/>
		<path class="st2" d="M367.3,224.2c-0.2,0-0.4-0.1-0.4-0.4c0-0.1,0.1-0.3,0.1-0.3l29-34.2c0.2-0.1,0.4-0.1,0.5,0s0.2,0.4,0,0.6
			l-29,34.2C367.5,224.2,367.4,224.2,367.3,224.2z"/>
		<ellipse class="st4" cx="154.9" cy="99.3" rx="31" ry="36.6"/>
		<path class="st3" d="M130,185.7c4.5-53.3,26-94.2,48.1-91.7s36.5,47.8,32,101.1s-26,94.2-48.1,91.7
			C139.9,284.1,125.5,238.9,130,185.7z"/>
		<path class="st2" d="M161.3,353c-6.6-117.2,18.8-230.2,19-231.4l1.6,0.6c-0.3,1.1-25.5,113.9-19,230.8H161.3z"/>
		<polygon class="st2" points="169.2,193.2 207.3,174.6 208,176.4 169.9,195.1 		"/>
		<polygon class="st2" points="131.8,179.1 132.7,177.4 167,204.5 166.1,206.1 		"/>
		<path class="st1" d="M214.9,129C221,56.2,250.5,0,280.7,3.5s49.9,65.5,43.8,138.2s-35.6,129-65.8,125.5
			C228.4,263.8,208.8,201.9,214.9,129z"/>
		<path class="st2" d="M258.1,351.7c-9-157.6,25.7-309.4,26-310.9l1.6,0.6c-0.4,1.5-34.9,153.1-26,310.4L258.1,351.7z"/>
		<polygon class="st2" points="268.7,139.7 320.9,114.2 321.5,116 269.4,141.5 		"/>
		<polygon class="st2" points="217.6,119.6 218.5,118.1 265.4,155.1 264.5,156.6 		"/>
		<path class="st2" d="M367.8,136.8l6.2-4.2c-4.8-0.5-6.8,1.8-7.6,3.5c-3.8-1.3-7.9,0.4-7.9,0.4l12.4,3.8
			C370.3,138.9,369.2,137.7,367.8,136.8z"/>
		<path class="st2" d="M197.8,144l6.2-4.2c-4.8-0.5-6.8,1.8-7.6,3.5c-3.8-1.3-7.9,0.4-7.9,0.4l12.4,3.8
			C200.3,146.2,199.2,144.9,197.8,144z"/>
		<path class="st2" d="M96.5,293.5l6.2-4.2c-4.8-0.5-6.8,1.8-7.6,3.5c-3.8-1.3-7.9,0.4-7.9,0.4l12.4,3.8
			C99,295.6,98,294.4,96.5,293.5z"/>
		<path class="st2" d="M192.4,249.8c2.3-27.2,13.3-48.2,24.6-46.8c11.3,1.3,18.6,24.4,16.3,51.6s-13.3,48.2-24.6,46.8
			C197.4,299.9,190.2,277,192.4,249.8z"/>
		<path class="st1" d="M208,350.7c-3.4-68,9.6-133.5,9.8-134.2l1.6,0.7c-0.2,0.7-13,65.9-9.7,133.5H208L208,350.7z"/>
		<polygon class="st1" points="212.3,253.1 231.8,243.6 232.4,245.4 212.9,254.9 		"/>
		<polygon class="st1" points="193.1,246.7 194,245.1 211.5,258.9 210.6,260.6 		"/>
	</g>
	<g>
		<path class="st4" d="M588.2,255.2c0,0-50.5-11.3,13.8-77.4c0,0,27.7,26.3,17.6,58.9c-4.1,13.1-17.2,21.2-30.6,18.6L588.2,255.2z"
			/>
		<path class="st5" d="M588.2,255.2c-1.1-0.2-49.5-12.4,13.8-77.4c0,0,27.7,26.3,17.6,58.9c-4.1,13.1-17.2,21.2-30.6,18.6
			L588.2,255.2z"/>
		<path class="st6" d="M588.9,255.5c0,0,26.7-40.2,13.1-77.8"/>
		<path class="st7" d="M796.1,294.2c0,0-8.7-35.1,4.5-60.1c5.5-10.5,7.7-22.4,5.9-34.1c-0.9-5.6-2.3-11-4.2-16.3"/>
		<path class="st4" d="M810.6,167.9c-0.2,4.2-8.4,16.2-8.4,16.2s-7.2-12.6-7-16.9c0.3-4.2,3.9-7.5,8.2-7.2
			C807.5,160.3,810.7,163.8,810.6,167.9z"/>
		<path class="st4" d="M822.3,192c-2.5,3.5-15.9,9.1-15.9,9.1s0.9-14.5,3.3-18c2.4-3.5,7.2-4.4,10.7-2.1c3.5,2.4,4.4,7.2,2.1,10.7
			C822.4,191.8,822.3,191.9,822.3,192L822.3,192z"/>
		<path class="st4" d="M820,232.1c-3.9,1.7-18.3-0.2-18.3-0.2s8.1-12.1,11.9-13.8c3.9-1.7,8.4,0.1,10.1,4
			C825.4,225.9,823.7,230.4,820,232.1z"/>
		<path class="st4" d="M811.4,262.1c-3.5,2.4-18,2.9-18,2.9s5.9-13.3,9.4-15.7c3.6-2.3,8.3-1.3,10.6,2.3
			C815.7,255.1,814.8,259.7,811.4,262.1z"/>
		<path class="st4" d="M790.2,201.2c2.9,3.1,17,6.8,17,6.8s-2.9-14.2-5.8-17.3c-3-3-7.8-3.1-10.9-0.1
			C787.6,193.4,787.5,198.1,790.2,201.2z"/>
		<path class="st4" d="M780.7,236.4c3.7,2.1,18.2,1.4,18.2,1.4s-7-12.7-10.7-14.8c-3.8-2-8.4-0.5-10.4,3.2
			C775.9,229.8,777.1,234.3,780.7,236.4z"/>
		<path class="st4" d="M776.1,271.9c3.3,2.7,17.7,4.4,17.7,4.4s-4.7-13.7-8.1-16.4c-3.4-2.6-8.2-2-10.8,1.4
			C772.4,264.5,772.9,269.2,776.1,271.9z"/>
		<path class="st8" d="M810.6,167.9c-0.2,4.2-8.4,16.2-8.4,16.2s-7.2-12.6-7-16.9c0.3-4.2,3.9-7.5,8.2-7.2
			C807.5,160.3,810.7,163.8,810.6,167.9z"/>
		<path class="st8" d="M822.3,192c-2.5,3.5-15.9,9.1-15.9,9.1s0.9-14.5,3.3-18c2.4-3.5,7.2-4.4,10.7-2.1c3.5,2.4,4.4,7.2,2.1,10.7
			C822.4,191.8,822.3,191.9,822.3,192L822.3,192z"/>
		<path class="st8" d="M820,232.1c-3.9,1.7-18.3-0.2-18.3-0.2s8.1-12.1,11.9-13.8c3.9-1.7,8.4,0.1,10.1,4
			C825.4,225.9,823.7,230.4,820,232.1z"/>
		<path class="st8" d="M811.4,262.1c-3.5,2.4-18,2.9-18,2.9s5.9-13.3,9.4-15.7c3.6-2.3,8.3-1.3,10.6,2.3
			C815.7,255.1,814.8,259.7,811.4,262.1z"/>
		<path class="st8" d="M790.2,201.2c2.9,3.1,17,6.8,17,6.8s-2.9-14.2-5.8-17.3c-3-3-7.8-3.1-10.9-0.1
			C787.6,193.4,787.5,198.1,790.2,201.2z"/>
		<path class="st8" d="M780.7,236.4c3.7,2.1,18.2,1.4,18.2,1.4s-7-12.7-10.7-14.8c-3.8-2-8.4-0.5-10.4,3.2
			C775.9,229.8,777.1,234.3,780.7,236.4z"/>
		<path class="st8" d="M776.1,271.9c3.3,2.7,17.7,4.4,17.7,4.4s-4.7-13.7-8.1-16.4c-3.4-2.6-8.2-2-10.8,1.4
			C772.4,264.5,772.9,269.2,776.1,271.9z"/>
		<path class="st7" d="M764.2,271.6c0,0,36.5-30.6,44.7-46.1c8.1-15.4,18.5-28.7,18.5-28.7"/>
		<path class="st4" d="M822.6,231.3l-15.8-3.6C806.8,227.7,810.5,244.4,822.6,231.3z"/>
		<path class="st4" d="M798.4,214.2l9.1,13.6C807.5,227.9,789.7,229.1,798.4,214.2z"/>
		<path class="st4" d="M828.8,218.5l-14.4-2.5C814.4,215.9,823.4,229.7,828.8,218.5z"/>
		<path class="st4" d="M807.4,206.3l7.1,9.3C814.6,215.6,801.9,216.8,807.4,206.3z"/>
		<path class="st4" d="M821.8,204.4c0,0,12.3,0.6,13.7,1.8s-1.8,8.1-6.5,6.9C824.4,212,821.8,204.4,821.8,204.4z"/>
		<path class="st4" d="M816.9,193.4c0,0,5,9.2,4.8,10.9s-7.7,3.7-9.2-2.9S816.9,193.4,816.9,193.4z"/>
		
			<ellipse transform="matrix(0.3019 -0.9533 0.9533 0.3019 390.2646 929.8168)" class="st9" cx="830" cy="198.4" rx="3.4" ry="3.4"/>
		
			<ellipse transform="matrix(0.3019 -0.9533 0.9533 0.3019 389.7477 922.3203)" class="st9" cx="824.7" cy="195" rx="3.4" ry="3.4"/>
		<path class="st4" d="M600.1,279.4c0,0,14.8-11-3.8-49.5c0,0-24.7-30.6,0-59.4c0,0-53.9,1.4-52.9,51.5c1,50.2,27,57.4,27,57.4
			H600.1z"/>
		<path class="st7" d="M586.3,279.4c0,0-3.7-26.5-13.7-42.6c-2-3.3-3.4-6.8-4.2-10.6c-3.3-14.6,1.4-30,12.2-40.4l15.7-15.3"/>
		<path class="st4" d="M630.8,191.1c0,0,3.4,4.4-1.6,11.1s-9,12.4-7.4,16.5c0,0,7.5-12.4,13.6-12.6
			C641.5,206,637.5,198.6,630.8,191.1z"/>
		<path class="st10" d="M630.8,191.1c0.3,0.4,0.5,0.9,0.7,1.4c5.9,7,9.1,13.5,3.4,13.7c-5.3,0.2-11.7,9.7-13.2,12.1
			c0.1,0.2,0.1,0.4,0.2,0.5c0,0,7.5-12.4,13.6-12.6C641.5,206,637.5,198.6,630.8,191.1z"/>
		<path class="st9" d="M637.1,196.8c0,1.6-0.2,2.8-0.4,2.8s-0.4-1.3-0.4-2.8s0.2-0.8,0.4-0.8C637,195.9,637.1,195.2,637.1,196.8z"/>
		<path class="st9" d="M639.3,198.6c-1.4,0.7-2.6,1.2-2.7,1c-0.1-0.2,0.9-0.9,2.3-1.7s0.8-0.2,0.9,0
			C640,198.1,640.7,197.9,639.3,198.6z"/>
		<path class="st4" d="M612.9,191.1c0,0-3.4,4.4,1.6,11.1s9,12.4,7.4,16.5c0,0-7.5-12.4-13.6-12.6
			C602.2,206,606.2,198.6,612.9,191.1z"/>
		<path class="st10" d="M612.9,191.1c-0.3,0.4-0.5,0.9-0.7,1.4c-5.9,7-9.1,13.5-3.4,13.7c5.3,0.2,11.7,9.7,13.2,12.1
			c-0.1,0.2-0.1,0.4-0.2,0.5c0,0-7.5-12.4-13.6-12.6C602.2,206,606.2,198.6,612.9,191.1z"/>
		<path class="st9" d="M606.6,196.8c0,1.6,0.2,2.8,0.4,2.8s0.4-1.3,0.4-2.8s-0.2-0.8-0.4-0.8C606.7,195.9,606.6,195.2,606.6,196.8z"
			/>
		<path class="st9" d="M604.4,198.6c1.4,0.7,2.6,1.2,2.7,1c0.1-0.2-0.9-0.9-2.3-1.7s-0.8-0.2-0.9,0S603.1,197.9,604.4,198.6z"/>
		
			<linearGradient id="SVGID_1_" gradientUnits="userSpaceOnUse" x1="733.0999" y1="-4402.2202" x2="733.1" y2="-4220.8418" gradientTransform="matrix(1 0 0 -1 -60.75 -4013.8203)">
			<stop  offset="0" style="stop-color:#808080;stop-opacity:0.25"/>
			<stop  offset="0.54" style="stop-color:#808080;stop-opacity:0.12"/>
			<stop  offset="1" style="stop-color:#808080;stop-opacity:0.1"/>
		</linearGradient>
		<path class="st11" d="M857.6,381.7l-30.1-132.4h-11.2c-0.4-5.1-0.7-10-0.9-14.6c0,0-40.5,8.9-72.9-16.8
			c-32.3-25.7-70.3,2.2-70.3,2.2l-0.1-0.1v-0.1v0.1c-2.6-1.9-39-26.8-70.2-2.1c-32.3,25.7-72.8,16.9-72.8,16.9
			c-0.1,4.7-0.4,9.6-0.9,14.7h-10.4l-30.7,132.7c0,0,124.9,4.7,168.7,0.4c1.6,3.3,8.3,5.8,16.4,5.8c9.1,0,16.5-3.2,16.8-7.1
			C723.1,383.9,796.5,388.1,857.6,381.7z"/>
		<path class="st12" d="M521.1,250.5l-30.1,130c0,0,165.6,6.2,179-2.5c0,0,102.8,10.4,183.8,2l-29.5-129.7L521.1,250.5z"/>
		<path class="st10" d="M531.3,255l-28.1,121.2c0,0,154.4,5.8,166.9-2.3c0,0,95.9,9.7,171.3,1.9l-27.5-120.9L531.3,255z"/>
		<path class="st13" d="M812.5,236.1c0,0-39.7,8.7-71.3-16.4s-68.9,2.2-68.9,2.2s-37.2-27.3-68.9-2.2
			c-31.6,25.1-71.3,16.4-71.3,16.4c-1.3,50.6-24.8,132.4-24.8,132.4s43.4,11.8,100.8-12.1c57.4-23.9,64.2,8.4,64.2,8.4
			s6.8-32.3,64.2-8.4s100.8,12.1,100.8,12.1S813.7,286.6,812.5,236.1z"/>
		<path class="st10" d="M595.7,365.7c0,0,52.4-11.8,76.6,5.6c0,0,23.3-21.1,77.2-4.7"/>
		<ellipse class="st14" cx="672.3" cy="379.4" rx="16.4" ry="7.1"/>
		<path class="st10" d="M672.1,221.6c0,0,11.8,59.9,0.3,144.2"/>
		<path class="st15" d="M543.4,254.8c0,0,24.7,5.7,46.1,0c21.4-5.7,60.6-24.5,73.5,0"/>
		<path class="st15" d="M543.4,265.4c0,0,24.7,5.7,46.1,0c21.4-5.7,67.6-5.4,73.5,0"/>
		<path class="st15" d="M543.4,284c0,0,24.7,5.7,46.1,0c21.4-5.7,60.6-24.5,73.5,0"/>
		<path class="st15" d="M543.4,294.5c0,0,24.7,5.7,46.1,0c21.4-5.7,67.6-5.4,73.5,0"/>
		<path class="st15" d="M801.1,254.8c0,0-24.7,5.7-46.1,0c-21.4-5.7-60.6-24.5-73.5,0"/>
		<path class="st15" d="M801.1,265.4c0,0-24.7,5.7-46.1,0c-21.4-5.7-67.6-5.4-73.5,0"/>
		<path class="st15" d="M801.1,284c0,0-24.7,5.7-46.1,0c-21.4-5.7-60.6-24.5-73.5,0"/>
		<path class="st15" d="M801.1,294.5c0,0-24.7,5.7-46.1,0c-21.4-5.7-67.6-5.4-73.5,0"/>
		<path class="st4" d="M778.7,386c1-0.8,2-1.7,2.3-2.8c0.3-1.2-0.4-2.5-1.6-2.9c-1.5-0.5-3.1,0.4-4.3,1.2c-1.2,0.8-2.6,1.8-4.1,1.6
			c1.6-1.2,2.4-3.1,2-4.8c-0.1-0.4-0.3-0.7-0.5-1c-0.8-0.7-2.3-0.4-3.3,0.2c-3.1,1.8-4,5.3-4,8.4c-0.3-1.1,0-2.3-0.1-3.5
			c0-1.2-0.4-2.4-1.6-3.1c-0.8-0.3-1.6-0.5-2.4-0.5c-1.4,0-3,0.1-3.9,0.9c-1.2,1-0.9,2.8,0.2,3.9c1,1.1,2.6,1.9,4.1,2.7
			c1.1,0.6,2.2,1.3,2.9,2.3c0.1,0.1,0.2,0.3,0.2,0.4h8.8C775.2,388.3,777,387.3,778.7,386z"/>
	</g>
	<g>
		<path class="st16" d="M585.8,330.8h-81.5l0,0c0-14.7,11.9-26.7,26.7-26.7c14.8-4.6,34.2-3.1,54.8,0V330.8z"/>
		<path class="st2" d="M574.2,324.9h38.3c1.3,0,2.4,1.1,2.4,2.4l0,0c0,1.3-1.1,2.4-2.4,2.4h-38.3l0,0V324.9L574.2,324.9z"/>
		<path class="st2" d="M580.8,281.2l10.3-12.5c0.6-1.3,2.3-1.9,3.6-1.3c0.7,0.3,1.2,1,1.4,1.7l4.1,14.3L580.8,281.2z"/>
		<path class="st16" d="M568.4,287.6l3.9-15.7c0-1.5,1.2-2.7,2.7-2.7c0.8,0,1.5,0.3,2,0.9l9.8,11.1L568.4,287.6z"/>
		<path class="st16" d="M504.3,330.8h7.8l0,0v16.5c0,4.3-3.5,7.8-7.8,7.8l0,0l0,0l0,0V330.8L504.3,330.8z"/>
		<path class="st16" d="M572.7,325.9H611c1.3,0,2.4,1.1,2.4,2.4l0,0c0,1.3-1.1,2.4-2.4,2.4h-38.3l0,0V325.9L572.7,325.9z"/>
		<circle class="st16" cx="585.8" cy="304.6" r="26.2"/>
		<ellipse class="st2" cx="611.1" cy="306.5" rx="2.9" ry="6.8"/>
		<ellipse class="st2" cx="604" cy="299.5" rx="0.7" ry="1.7"/>
		<ellipse class="st2" cx="609.4" cy="296.1" rx="0.7" ry="1.7"/>
		<path class="st2" d="M583.6,278.1c0,0-1.5-2.5-1.5-4.1"/>
		<path class="st2" d="M584.3,276.4c0,0,0.8-2.8,1.9-3.9"/>
	</g>
</g>
</svg>
