<?xml version="1.0" encoding="utf-8"?>
<!-- Generator: Adobe Illustrator 19.2.1, SVG Export Plug-In . SVG Version: 6.00 Build 0)  -->
<svg version="1.1" id="Layer_1" xmlns="http://www.w3.org/2000/svg" xmlns:xlink="http://www.w3.org/1999/xlink" x="0px" y="0px"
	 viewBox="0 0 656.4 109.9" style="enable-background:new 0 0 656.4 109.9;" xml:space="preserve">
<style type="text/css">
	.st0{fill:#FF638B;}
	.st1{fill:#3F3D56;stroke:#3F3D56;stroke-miterlimit:10;}
</style>
<g>
	<path class="st0" d="M82.8,21.7c-0.2,2-1.1,3.3-2.6,3.8c-1.6,0.5-2.8-0.3-3.6-2.3c-0.2-1.3-0.4-2.5-0.5-3.7
		c-0.2-1.2-0.5-2.3-1.1-3.6c-1.4-3-3.5-5-6.1-6.3c-2.8-1.3-5.6-2-8.7-2.2c-3.1-0.2-6.1,0.1-9.2,0.8c-3.1,0.7-5.6,1.8-7.7,3.1
		c-1.5,1-2.8,1.8-3.6,2.5s-1.6,1.5-2.2,2.2c-0.6,0.8-1.2,1.8-1.7,2.9s-1.3,2.4-2.2,4c-0.2,0.7-0.4,1.6-0.5,2.5
		c-0.2,1-0.3,1.8-0.5,2.6c0.5,0.4,1.1,0.8,1.6,1.4c0.5,0.5,1,0.8,1.6,1.1c1.3,0.6,2.6,1.2,4,1.5s2.9,0.7,4.2,1.3
		c3.1,0.8,6.1,1.7,9.4,2.3c3.3,0.7,6.5,1.5,9.5,2.3c3.2,0.8,6.2,1.9,9.3,3.1c3.1,1.2,6,2.6,8.8,4.3c1.3,0.8,2.9,2,4.7,3.6
		c1.8,1.5,3.4,3.3,4.9,5.2s2.5,4,3.4,6.1c0.8,2.1,0.8,4.3,0.2,6.5c-0.6,2.4-1.2,5-1.7,7.4S91.1,78.9,90,81c-2.5,5.2-5.7,9.5-9.5,13
		c-3.7,3.5-7.8,6.3-12.3,8.6s-9.1,3.8-14,5c-4.9,1.1-9.7,1.7-14.7,1.8c-3.8,0.1-8-0.7-12.8-2.6s-9.1-4.4-13.2-7.7
		c-4-3.3-7.4-7.1-9.9-11.5s-3.7-9.2-3.3-14.3c0.2-1.2,0.7-2,1.5-2.5c0.7-0.5,1.5-0.7,2.2-0.6s1.4,0.5,1.9,1.2c0.5,0.6,0.7,1.6,0.6,3
		c-0.3,3.3,0.3,6.2,1.9,9.1s3.5,5.4,5.9,7.7c2.3,2.2,5,4.2,7.7,5.8c2.8,1.6,5.2,2.9,7.4,3.6c4.9,1.6,9.9,2.3,15.3,2.1
		s10.6-1.3,15.7-3.3c5-2,9.6-4.8,13.9-8.5c4.2-3.6,7.5-7.9,10.1-13c2.2-4.8,3.2-8.9,2.8-12.4c-0.4-3.5-1.8-6.6-3.9-9.1
		c-2.2-2.5-5.1-4.7-8.6-6.3c-3.5-1.7-7.2-3.1-11-4.3c-3.8-1.2-7.6-2.1-11.4-3c-3.8-0.7-7-1.5-9.5-2.2c-1.4-0.4-3.1-0.8-5-1.3
		c-1.9-0.4-3.7-1.1-5.3-1.9c-1.7-0.8-3.1-2-4.3-3.3c-1.2-1.4-1.8-3.2-1.8-5.4c0-4.4,1.1-8.5,3.3-12.1c2.1-3.6,5-6.7,8.5-9.2
		S45.5,3,49.7,1.8s8.4-1.7,12.4-1.4s7.8,1.4,11.2,3.4c3.5,2,6.1,5,7.9,9c0.6,1.4,1.1,2.9,1.3,4.4C82.2,18.5,82.5,20.1,82.8,21.7z"/>
	<path class="st0" d="M107.9,83.7c-0.2,0-0.5-0.1-1-0.3c-0.2,3,0,5.6,0.7,8.1s2,4.7,3.8,6.2c4,3.6,8.1,5.4,12.6,5.6
		c4.3,0.2,8.5-0.7,12.4-2.9c3.9-2,7.4-4.9,10.5-8.5c3.2-3.6,5.6-7.2,7.3-11c0.5-1.2,1.1-2.3,1.6-3.6c0.5-1.2,0.6-2.3,0.4-3.6h-0.8
		c-1.2-0.1-2-0.5-2.5-1.2s-0.7-1.5-0.7-2.2c0.1-0.7,0.3-1.5,0.8-2c0.5-0.6,1.4-1,2.5-1.1c0.6,0,1.3,0,1.9-0.1
		c0.6-0.1,1.3-0.1,1.9-0.1c1.4,0.4,2.3,1.4,2.8,3c0.4,3.8,0,7.6-1.2,11.5c-1.3,3.9-3.1,7.5-5.5,10.9s-5.3,6.5-8.5,9.1
		c-3.3,2.6-6.6,4.7-9.8,5.9c-1.8,0.6-3.8,1.1-5.8,1.2c-2,0.2-4.1,0.4-6.1,0.7c-2.3,0.2-4.7-0.2-6.9-1.4c-2.2-1.2-4.4-2.1-6.7-2.9
		c-1.2-0.4-2.4-1.2-3.6-2.3c-1.3-1.2-2.3-2.2-3.2-3.3c-2-2.9-3.4-6.1-3.9-9.8c-0.5-3.8-0.4-7.7,0.2-11.7c0.7-4,1.9-7.9,3.7-11.9
		c1.8-3.8,3.9-7.2,6.6-10.2c2.5-3,5.5-5.3,8.8-6.9c3.3-1.6,6.9-2.2,10.6-1.8c2,0.2,4,1.1,5.9,2.5c1.9,1.5,3.4,3.3,4.7,5.3
		c1.2,2,1.9,4.2,2.2,6.6c0.3,2.3-0.2,4.4-1.6,6.3c-1.6,2.3-2.9,4.1-3.6,5.3c-0.8,1.2-1.7,2-2.6,2.8s-2.2,1.4-3.6,2
		c-1.5,0.6-3.6,1.7-6.6,3.1c-2.5,1.3-5.4,1.9-8.5,1.9C113.8,83.3,110.8,83.4,107.9,83.7z M129.6,54.1c-2.4-0.4-4.9,0-7.2,1.2
		c-2.3,1.3-4.4,3-6.3,5.2s-3.6,4.8-5,7.7c-1.4,3-2.4,6-3.3,9.1c2.5-0.3,5.2-0.5,7.7-0.7s5.2-0.5,7.7-1.2c3.1-0.7,5.7-2.2,8-4.3
		s3.9-4.4,4.7-6.7c0.8-2.3,0.7-4.4-0.2-6.5C134.9,55.9,132.8,54.6,129.6,54.1z"/>
	<path class="st0" d="M171.4,6.7c0.3-0.8,0.7-1.4,1.4-1.8c0.6-0.4,1.4-0.5,2.2-0.3s1.6,0.6,2.2,1.6c1.1,2,1.7,5,1.9,8.8
		s0.2,8.1,0,12.9s-0.6,9.7-1.2,15c-0.6,5.2-1.2,10.3-1.9,15c-0.6,4.8-1.3,9.2-1.9,13.1c-0.6,3.9-1,7.1-1.1,9.3
		c-0.1,1.5-0.3,3.4-0.5,5.7c-0.2,2.2-0.3,4.5-0.2,6.8c0,2.2,0.4,4.3,1,6.3c0.6,1.9,1.7,3.5,3.2,4.5c0.8,0.6,1.4,1.4,1.6,2.2
		c0.2,0.8,0.1,1.6-0.3,2.2c-0.4,0.6-1,1.1-1.8,1.4s-1.8,0.2-2.9-0.2c-0.6-0.5-1.4-1.1-2.1-1.5c-0.7-0.4-1.4-1-1.9-1.6
		c-1.2-1.7-2-3.7-2.3-6c-0.4-2.3-0.6-4.8-0.6-7.2c-0.1-2.4,0-4.9,0.2-7.3c0.2-2.3,0.3-4.4,0.4-6.3c0.4-5.8,1.1-11.6,1.9-17.4
		c0.8-5.7,1.6-11.4,2.2-17.2s1.2-11.5,1.5-17.4s0.2-11.5-0.3-17.4l-0.3-0.5C171.3,8.5,171.2,7.5,171.4,6.7z"/>
	<path class="st0" d="M200.6,70.9c-1,0.5-1.9,0.7-2.8,0.5c-0.8-0.2-1.5-0.6-1.9-1.3c-0.4-0.6-0.6-1.4-0.5-2.2
		c0.1-0.8,0.5-1.6,1.6-2.2c2.3-1.4,4.7-2.5,6.9-3.3s4.4-1.5,6.6-2c-0.3-3.1-0.5-6-0.6-8.9c-0.1-3,0-5.7,0.5-8.5
		c0.4-2.8,1.1-5.3,2-7.7c1-2.4,2.2-4.7,3.9-6.6c1.6-1.8,3.8-3.7,6.7-5.5s5.8-3.3,9-4.2c3.2-1,6.3-1.4,9.4-1.2
		c3.1,0.2,5.7,1.5,7.8,3.7c1,1,2,2.4,3.2,4.4s1.9,4,2.4,6.1s0.4,4-0.2,5.7c-0.6,1.7-2.1,2.8-4.5,3.1c-1.8-0.2-3-1.1-3.3-2.4
		c-0.3-1.4,0.2-2.5,1.6-3.4c-0.1-3.5-0.8-6-2.3-7.6s-3.3-2.5-5.5-2.9c-2.2-0.3-4.7,0-7.2,0.8s-5.1,2.1-7.4,3.9c-2.3,1.7-4.3,3.7-6,6
		c-1.7,2.3-2.6,4.8-3,7.2c-0.4,2.8-0.6,5.4-0.5,8.1c0,2.8,0.2,5.5,0.4,8.4c1.5-0.2,3.1-0.4,4.8-0.5s3.4-0.3,5.3-0.5
		c0.8-0.1,2-0.2,3.3-0.2c1.4,0,2.8-0.1,4.2-0.2c1.5-0.1,2.9-0.3,4-0.6c1.3-0.3,2.2-0.8,2.9-1.6c1-0.6,1.9-1,2.8-0.8
		c0.8,0.1,1.6,0.3,2,0.8s0.7,1.2,0.8,2s-0.2,1.8-0.8,2.8c-1.1,1.2-2.8,2.1-4.9,2.6c-2.1,0.6-4.5,1.1-7.2,1.5
		c-2.6,0.4-5.4,0.6-8.3,0.8s-5.5,0.3-8,0.4c0.7,4.7,1.7,9.2,2.8,13.8c1.1,4.5,2,9,3,13.4c0.1,0.8,0.4,2.1,0.8,3.9
		c0.5,1.7,0.8,3.5,1.1,5.3c0.2,1.8,0.2,3.5-0.2,5.1c-0.3,1.6-1.3,2.6-2.8,3.2c-1,0.2-1.8,0.2-2.4-0.2c-0.6-0.3-1.2-0.7-1.5-1.3
		c-0.3-0.5-0.4-1.2-0.4-1.8s0.3-1.3,0.8-1.8c0.1-1,0-2.4-0.2-4.3c-0.3-1.9-0.6-3.8-1.2-5.8s-1-3.8-1.4-5.6c-0.4-1.7-0.7-2.9-0.8-3.4
		c-0.5-2.9-1.2-5.9-2-9.3s-1.5-7-2-10.8c-0.2,0-0.3,0-0.4,0.1c-0.1,0.1-0.1,0.1-0.2,0.1c-1.8,0.3-3.5,1-5.1,1.9
		C203.9,69,202.3,69.9,200.6,70.9z"/>
	<path class="st1" d="M277.2,93.8c-0.8-0.6-0.9-1.7-0.3-2.4c0.6-0.8,1.7-0.8,2.4-0.2c1.7,1.2,3.4,2.6,5.4,3.8
		c0.8,0.6,1.1,1.7,0.5,2.4c-0.3,0.5-0.9,0.8-1.5,0.8c-0.3,0-0.6-0.2-0.9-0.3C280.7,96.6,278.9,95.2,277.2,93.8z M280.1,29.4
		c-0.2-0.9,0.6-1.7,1.5-1.8c0.9,0,1.8,0.6,1.8,1.5c0.3,2.3,0.8,4.3,1.8,6.1c0.5,0.8,0.2,1.8-0.8,2.3c-0.3,0.2-0.6,0.2-0.8,0.2
		c-0.6,0-1.2-0.3-1.7-0.9C281,34.6,280.3,32.2,280.1,29.4z M280.9,21.9c0.6-2.4,1.8-4.6,3.2-6.7c0.6-0.8,1.7-1.1,2.4-0.5
		c0.8,0.6,1.1,1.7,0.5,2.4c-1.2,1.8-2.3,3.7-2.8,5.7c-0.3,0.8-0.9,1.4-1.7,1.4c-0.2,0-0.5,0-0.6-0.2C281,23.8,280.6,22.8,280.9,21.9
		z M286.8,42.7c-0.8-0.6-0.8-1.7-0.2-2.4c0.8-0.8,1.8-0.8,2.4-0.2c1.5,1.4,3.4,2.8,5.4,3.8c0.9,0.5,1.2,1.5,0.8,2.4
		c-0.5,0.6-0.9,0.9-1.5,0.9c-0.3,0-0.6-0.2-0.9-0.3C290.5,45.8,288.5,44.4,286.8,42.7z M288.8,101.6c-0.8-0.5-1.1-1.5-0.6-2.3
		c0.5-0.9,1.5-1.2,2.3-0.8c2,1.1,4,2.1,6.1,3.1c0.9,0.3,1.4,1.4,0.9,2.3c-0.3,0.6-0.9,1.1-1.5,1.1c-0.3,0-0.5-0.2-0.8-0.2
		C293.1,103.8,290.8,102.9,288.8,101.6z M289.1,9.7c1.8-1.5,4-2.8,6.1-4c0.9-0.5,2-0.2,2.4,0.8c0.5,0.8,0.2,1.8-0.8,2.3
		c-2,1.1-3.8,2.3-5.5,3.7c-0.3,0.3-0.8,0.5-1.1,0.5c-0.6,0-1.1-0.3-1.4-0.8C288.4,11.5,288.5,10.3,289.1,9.7z M299.4,50.1
		c-0.9-0.3-1.4-1.4-1.1-2.1c0.5-0.9,1.4-1.4,2.3-1.1c2,0.8,4.1,1.5,6.4,2.1c0.9,0.3,1.5,1.2,1.2,2.1c-0.2,0.8-0.9,1.4-1.7,1.4
		c-0.2,0-0.3,0-0.5-0.2C303.8,51.8,301.5,51,299.4,50.1z M302,3c2.3-0.8,4.7-1.4,7.2-1.7c0.9-0.2,1.8,0.5,2,1.5
		c0.2,0.9-0.6,1.8-1.5,2c-2.3,0.3-4.4,0.8-6.6,1.4c-0.2,0.2-0.3,0.2-0.5,0.2c-0.8,0-1.4-0.5-1.7-1.2C300.6,4.2,301.1,3.3,302,3z
		 M302.1,107.1c-0.9-0.2-1.5-1.2-1.2-2.1s1.2-1.4,2.1-1.2c2.1,0.8,4.3,1.2,6.6,1.5c0.9,0.2,1.7,1.1,1.5,2s-0.9,1.5-1.8,1.5h-0.2
		C306.7,108.4,304.3,107.9,302.1,107.1z M316.2,54.7h-0.3c-0.9-0.2-2-0.3-2.9-0.6c-0.9-0.2-1.5-1.1-1.4-2c0.3-0.9,1.2-1.5,2.1-1.4
		s1.8,0.3,2.8,0.6h0.3c1.4,0.3,2.6,0.5,3.8,0.8c0.9,0.2,1.5,1.1,1.4,2c-0.3,0.9-0.9,1.5-1.8,1.5c0,0-0.2-0.2-0.3-0.2
		C318.7,55.3,317.4,55,316.2,54.7z M316.4,4.3c-0.9-0.2-1.8-0.9-1.8-1.8s0.9-1.7,1.8-1.7c2.4,0,4.9,0.2,7.2,0.6
		c1.1,0.2,1.7,1.1,1.5,2s-0.9,1.5-1.8,1.5c0,0-0.2-0.2-0.3-0.2C320.8,4.5,318.7,4.3,316.4,4.3z M314.5,107.6c0-0.9,0.9-1.7,1.8-1.7
		h0.2c2.3,0,4.4-0.2,6.6-0.5c0.9-0.2,1.8,0.6,2,1.5s-0.6,1.8-1.5,2c-2.3,0.3-4.6,0.5-7,0.5h-0.2
		C315.3,109.4,314.5,108.5,314.5,107.6z M326.6,57.1c-0.9-0.3-1.5-1.2-1.2-2.1c0.2-0.9,1.2-1.5,2.1-1.2c2.3,0.8,4.6,1.4,6.7,2.3
		c0.9,0.3,1.4,1.4,1.1,2.3c-0.3,0.6-0.9,1.1-1.7,1.1c-0.2,0-0.5,0-0.6-0.2C331.1,58.5,328.9,57.7,326.6,57.1z M329.5,6.5
		c-0.9-0.3-1.4-1.2-1.1-2.1s1.2-1.4,2.1-1.1c2.3,0.8,4.6,1.7,6.7,2.8c0.8,0.5,1.2,1.5,0.8,2.4c-0.3,0.6-0.9,0.9-1.5,0.9
		c-0.3,0-0.6,0-0.9-0.2C333.7,8.2,331.7,7.2,329.5,6.5z M329.7,104.1c2.1-0.6,4.3-1.4,6.3-2.3c0.9-0.5,2,0,2.3,0.8
		c0.5,0.9,0,2-0.8,2.3c-2.1,1.1-4.4,2-6.9,2.6c-0.2,0-0.3,0-0.5,0c-0.8,0-1.4-0.5-1.7-1.2C328.2,105.3,328.8,104.4,329.7,104.1z
		 M339.2,62c-0.8-0.5-1.1-1.5-0.6-2.3c0.5-0.9,1.5-1.2,2.3-0.8c2.3,1.2,4.3,2.6,6.1,4.1c0.8,0.6,0.9,1.7,0.3,2.4
		c-0.5,0.3-0.9,0.6-1.4,0.6s-0.8-0.2-1.1-0.5C343.2,64.5,341.3,63.2,339.2,62z M341.8,12.4c-0.9-0.5-1.2-1.5-0.6-2.3
		c0.5-0.9,1.5-1.1,2.3-0.6c2.1,1.2,4.1,2.6,6,3.8c0.9,0.5,1.1,1.5,0.6,2.3c-0.5,0.6-0.9,0.9-1.5,0.9c-0.3,0-0.6-0.2-0.9-0.3
		C345.6,15,343.8,13.7,341.8,12.4z M341.8,98.4c1.8-1.4,3.5-2.8,4.9-4.4c0.6-0.8,1.7-0.8,2.4-0.2c0.8,0.6,0.8,1.8,0.2,2.4
		c-1.7,1.8-3.5,3.5-5.5,4.9c-0.3,0.3-0.6,0.5-1.1,0.5s-1.1-0.3-1.4-0.8C340.7,100.1,341,99,341.8,98.4z M349.1,70.4
		c-0.5-0.8-0.3-1.8,0.5-2.4c0.9-0.5,2-0.3,2.4,0.5c1.5,2.1,2.4,4.4,3.1,6.9c0.3,1.1-0.3,2-1.2,2.1c-0.2,0-0.3,0-0.5,0
		c-0.8,0-1.5-0.5-1.7-1.2C351.3,74.1,350.3,72.3,349.1,70.4z M350.2,88.6c1.1-2,1.7-4,1.8-6.1c0.2-0.9,1.1-1.7,2-1.5s1.7,1.1,1.5,2
		c-0.3,2.4-1.1,4.9-2.1,7.2c-0.3,0.6-0.9,0.9-1.5,0.9c-0.3,0-0.6,0-0.8-0.2C350.2,90.6,349.9,89.6,350.2,88.6z"/>
	<path class="st1" d="M370.6,4.3c0-1.1,0.9-2,2-2s1.8,0.9,1.8,2V12c0,1.2-0.8,2-1.8,2c-1.1,0-2-0.8-2-2V4.3z M370.6,19.8
		c0-0.9,0.9-2,2-2s1.8,1.1,1.8,2v7.8c0,1.1-0.8,1.8-1.8,1.8c-1.1,0-2-0.8-2-1.8V19.8z M370.6,35.2c0-0.9,0.9-1.8,2-1.8
		s1.8,0.9,1.8,1.8V43c0,1.1-0.8,1.8-1.8,1.8c-1.1,0-2-0.8-2-1.8V35.2z M372.6,62.9c-1.1-0.2-1.8-1.1-1.8-2.3c0-0.3,0-0.6,0.2-0.9
		c-0.3-0.3-0.3-0.8-0.3-1.2v-7.8c0-0.9,0.9-1.8,2-1.8s1.8,0.9,1.8,1.8v0.9c0.3,0,0.6,0,1.1,0.2c0.9,0.3,1.4,1.5,0.9,2.4
		c-0.8,2.1-1.4,4.4-1.7,7c0,0.9-1.1,1.7-2,1.7C372.8,62.9,372.6,62.9,372.6,62.9z M370.6,68.7v-0.3v-2.1c0-1.1,0.9-2,2-2
		s1.8,0.9,1.8,2v7.6v0.5v2.1c0,0.9-0.8,1.8-1.8,1.8c-1.1,0-2-0.9-2-1.8V68.7z M370.6,84.2v-0.3v-2.1c0-0.9,0.9-2,2-2s1.8,1.1,1.8,2
		v7.8V90v2c0,0.9-0.8,2-1.8,2c-1.1,0-2-1.1-2-2V84.2z M370.6,105.3V105v-7.8c0-0.9,0.9-1.8,2-1.8s1.8,0.9,1.8,1.8v10.3
		c0,1.1-0.8,2-1.8,2c-1.1,0-2-0.9-2-2V105.3z M377.1,45.5c1.7-2.1,3.7-4,5.8-5.5c0.9-0.8,2.1-0.6,2.6,0.3c0.9,0.8,0.6,2-0.3,2.8
		c-2,1.4-3.5,3.1-5,5c-0.5,0.3-0.9,0.6-1.5,0.6c-0.5,0-0.8,0-1.2-0.5C376.6,47.6,376.4,46.6,377.1,45.5z M390.2,35.8
		c2.4-0.9,5.2-1.5,8-2c1.1,0,2.1,0.8,2.1,1.8c0.2,1.1-0.6,2.1-1.8,2.1c-2.4,0.2-4.7,0.8-6.9,1.7h-0.8c-0.8,0-1.4-0.3-1.8-1.2
		C388.7,37.4,389.3,36.3,390.2,35.8z M405.7,38.1c-0.9-0.2-1.7-1.1-1.5-2.3c0.2-0.9,1.2-1.7,2.3-1.5c2.8,0.6,5.5,1.4,7.8,2.4
		c0.9,0.6,1.4,1.8,0.9,2.8c-0.3,0.6-0.9,0.9-1.7,0.9c-0.5,0-0.6,0-0.8-0.2C410.6,39.4,408.3,38.6,405.7,38.1z M418.7,44.4
		c-0.9-0.8-0.9-2-0.2-2.8c0.5-0.9,1.8-0.9,2.6-0.2c2,1.7,4,3.8,5.5,6.1c0.6,1.1,0.2,2.1-0.6,2.8c-0.5,0.2-0.8,0.2-1.2,0.2
		s-1.1-0.2-1.5-0.8C421.9,47.6,420.4,45.9,418.7,44.4z M426.5,56.3c-0.5-1.1,0.2-2.1,1.1-2.4c0.9-0.5,2.1,0.2,2.6,1.4
		c0.8,2.4,1.1,5.2,1.2,8.1c0,0.9-0.8,1.8-1.8,1.8c-1.2,0-2-0.8-2-1.8C427.4,60.8,426.9,58.5,426.5,56.3z M427.5,71
		c0-1.1,0.8-1.8,2-1.8c0.9,0,1.8,0.8,1.8,1.8v7.8c0,0.9-0.9,2-1.8,2c-1.2,0-2-1.1-2-2V71z M427.5,86.6c0-1.2,0.8-2,2-2
		c0.9,0,1.8,0.8,1.8,2v7.6c0,1.1-0.9,2-1.8,2c-1.2,0-2-0.9-2-2V86.6z M427.5,102.1c0-1.2,0.8-2,2-2c0.9,0,1.8,0.8,1.8,2v5.4
		c0,1.1-0.9,2-1.8,2c-1.2,0-2-0.9-2-2V102.1z"/>
	<path class="st1" d="M452.6,78.4c-0.9,0-1.7-0.8-2-1.7c-0.2-1.5-0.2-3.2-0.2-4.7c0-1.1,0-2.3,0-3.4c0.2-0.9,1.2-1.8,2.1-1.8
		c1.2,0.2,2,1.2,1.7,2.1c0,0.9,0,2,0,3.1c0,1.4,0,2.9,0.3,4.3c0.2,0.9-0.8,1.8-1.8,2.1H452.6z M452,60.6c0.8-2.6,1.8-5,3.1-7.5
		c0.6-0.9,1.7-1.2,2.8-0.9c0.9,0.8,1.1,1.8,0.8,2.9c-1.1,2-2.1,4.3-2.9,6.7c-0.2,0.8-0.9,1.2-1.8,1.2c0,0-0.3,0-0.5,0
		C452.4,62.8,451.8,61.6,452,60.6z M459.1,89.9c0.5,1.1,0.2,2.1-0.6,2.8c-0.5,0.2-0.8,0.2-1.1,0.2c-0.8,0-1.2-0.2-1.7-0.8
		c-1.2-2.3-2.4-4.7-3.4-7.5c-0.3-0.9,0.2-2.1,1.4-2.3c0.9-0.3,1.8,0.2,2.1,1.2C456.7,85.7,457.9,88,459.1,89.9z M461.3,49.6
		c-0.6,0-1.1,0-1.4-0.3c-0.8-0.9-0.8-2-0.3-2.8c1.8-2.1,4-4,6.1-5.7c0.9-0.5,2.1-0.3,2.6,0.5c0.6,0.9,0.5,2.1-0.3,2.6
		c-2,1.5-3.7,3.2-5.5,5C462.2,49.5,461.7,49.6,461.3,49.6z M468.9,100.6c1.1,0.6,1.2,1.7,0.6,2.6c-0.3,0.8-1.1,0.9-1.5,0.9
		s-0.8,0-1.2-0.5c-2.1-1.4-4.3-3.4-6.1-5.2c-0.8-0.8-0.6-2,0.2-2.8c0.8-0.8,2-0.8,2.8,0C465.1,97.7,467.1,99.2,468.9,100.6z
		 M473.5,40.7c-0.8,0-1.4-0.6-1.7-1.1c-0.6-1.2,0-2.1,0.9-2.8c2.6-1.1,5-1.8,8-2.1c1.1-0.2,2,0.6,2.1,1.5c0.2,1.2-0.6,2.1-1.5,2.3
		c-2.4,0.5-4.9,1.1-7,2C474,40.6,473.8,40.7,473.5,40.7z M484.2,107.8c-0.3,0.9-1.1,1.7-2,1.7H482c-2.8-0.5-5.4-0.9-8-2
		c-0.9-0.3-1.5-1.4-1.1-2.4c0.3-0.9,1.5-1.5,2.4-1.1c2.1,0.6,4.6,1.2,7,1.7C483.6,105.6,484.4,106.5,484.2,107.8z M488.4,38.3
		c-0.9,0-1.7-1.1-1.7-2c0.2-1.2,0.9-2,2.1-2c2.6,0.5,5.4,1.1,8,1.8c1.1,0.3,1.5,1.5,1.2,2.4c-0.3,0.8-1.1,1.4-1.8,1.4
		c-0.2,0-0.5-0.3-0.6-0.3C493.3,39.1,491,38.4,488.4,38.3z M499.2,104.9c0.5,0.9-0.3,2.1-1.2,2.4c-2.4,0.9-5,1.5-7.8,2H490
		c-1.1,0-1.8-0.6-2-1.5c-0.2-1.2,0.5-2.1,1.7-2.4c2.4-0.2,4.6-0.8,7-1.7C497.7,103.2,498.9,103.9,499.2,104.9z M507.6,47.5
		c-1.7-1.7-3.7-3.2-5.5-4.6c-1.1-0.6-1.2-1.7-0.6-2.4c0.6-1.1,1.8-1.2,2.4-0.8c2.4,1.5,4.6,3.2,6.4,5c0.8,0.8,0.8,2,0,2.8
		c-0.3,0.5-0.8,0.6-1.4,0.6C508.6,48.1,508.1,47.9,507.6,47.5z M511.5,95.4c0.8,0.8,0.8,2,0,2.8c-1.8,2.1-3.8,3.8-6.3,5.4
		c-0.2,0.2-0.5,0.5-0.9,0.5c-0.6,0-1.4-0.5-1.5-1.1c-0.9-0.8-0.5-1.8,0.3-2.6c2-1.4,3.8-2.9,5.5-4.7
		C509.3,94.8,510.4,94.6,511.5,95.4z M521.4,51.8v7.7c0,1.1-0.9,2-2,2c-0.5,0-0.9-0.2-1.2-0.5c-0.2,0-0.2,0-0.2,0
		c-0.3,0-0.8,0-0.8,0c-0.9,0-1.7-0.3-1.8-1.1c-1.1-2.3-2-4.7-3.2-6.6c-0.8-1.1-0.3-2.1,0.5-2.8c0.9-0.5,2.1-0.3,2.8,0.6
		c0.8,1.1,1.5,2.6,2.1,3.7v-3.1c0-1.2,0.8-2,1.8-2S521.4,50.5,521.4,51.8z M521.4,82.7v7.6c0,1.1-0.9,2-2,2s-1.8-0.9-1.8-2v-1.4
		c-0.3,0.8-1.1,1.7-1.4,2.6c-0.3,0.5-0.9,0.9-1.8,0.9c0,0-0.5,0-0.9-0.2c-0.8-0.6-1.1-1.7-0.5-2.8c1.1-2.1,2.1-4.3,2.9-6.6
		c0.2-0.9,1.1-1.4,1.8-1.4c0.5-0.6,0.9-0.9,1.7-0.9C520.5,80.7,521.4,81.4,521.4,82.7z M521.4,36.3V44c0,1.1-0.9,2-2,2
		s-1.8-0.9-1.8-2v-7.6c0-1.2,0.8-2,1.8-2S521.4,35.1,521.4,36.3z M521.4,67.2v7.6c0,1.1-0.9,2-2,2s-1.8-0.9-1.8-2v-7.6
		c0-1.2,0.8-2,1.8-2S521.4,66,521.4,67.2z M521.4,98.1v7.6c0,0.9-0.9,2-2,2s-1.8-1.1-1.8-2v-7.6c0-1.2,0.8-2,1.8-2
		S521.4,96.9,521.4,98.1z"/>
	<path class="st1" d="M541.2,36.3c0-0.9,0.8-2,2-2c0.9,0,2,1.1,2,2v8c0,1.2-1.1,2-2,2c-1.2,0-2-0.8-2-2V36.3z M541.2,52.2
		c0-1.1,0.8-2.1,2-2.1c0.9,0,2,1.1,2,2.1V60c0,1.2-1.1,2-2,2c-1.2,0-2-0.8-2-2V52.2z M541.2,72.6v-0.2V68c0-1.1,0.8-2,2-2h0.3
		c0.2-0.3,0.5-0.8,0.6-1.2c0.3-1.1,1.4-1.5,2.4-1.1c1.1,0.3,1.5,1.5,1.2,2.6c-1.5,3.4-2.3,5.7-2.6,6.6V76c0,1.1-1.1,1.8-2,1.8
		c-1.2,0-2-0.8-2-1.8L541.2,72.6L541.2,72.6z M541.2,83.7c0-1.1,0.8-2,2-2c0.9,0,2,0.9,2,2v8c0,1.1-1.1,2-2,2c-1.2,0-2-0.9-2-2V83.7
		z M541.2,99.6c0-1.1,0.8-2.1,2-2.1c0.9,0,2,1.1,2,2.1v7.8c0,1.2-1.1,2-2,2c-1.2,0-2-0.8-2-2V99.6z M547.7,57.6
		c1.4-2.4,2.8-4.9,4.4-7c0.6-0.9,1.8-1.1,2.8-0.5c0.8,0.8,1.1,1.8,0.5,2.9c-1.5,2.1-2.9,4.3-4.1,6.3c-0.5,0.8-0.9,1.2-1.8,1.2
		c-0.3,0-0.6-0.3-0.9-0.5C547.4,59.7,547.2,58.3,547.7,57.6z M557.5,44.3c2-1.7,4.3-3.5,6.6-5.2c0.9-0.3,2.1-0.2,2.8,0.9
		c0.6,0.8,0.2,2.1-0.6,2.6c-2.1,1.2-4.1,2.9-6,4.7c-0.3,0.3-1.1,0.5-1.4,0.5c-0.6,0-0.9-0.2-1.4-0.5C556.7,46.4,556.7,45,557.5,44.3
		z M571.7,35.8c2.6-0.8,5.4-1.2,8.3-1.5c1.1,0,2,1.1,2,2c0,1.2-0.8,2-2,2c-2.4,0.3-4.9,0.6-7.2,1.2c0,0-0.3,0.2-0.5,0.2
		c-0.9,0-1.8-0.6-2-1.5C570,37.2,570.5,36.2,571.7,35.8z"/>
	<path class="st1" d="M586.8,71.5c-0.6,0-1.1-0.2-1.4-0.5c-1.1-0.3-2-1.2-1.8-2.1c0.3-2.8,0.8-5.4,1.5-7.8c0.3-1.2,1.4-1.7,2.4-1.4
		c0.9,0.2,1.4,1.4,1.2,2.3c-0.6,1.8-1.1,4-1.2,5.8h6.7c1.2,0,2,0.8,2,1.8c0,1.1-0.8,1.8-2,1.8L586.8,71.5L586.8,71.5z M583.9,77
		c-0.3-1.2,0.5-2.1,1.7-2.1c0.9-0.2,2,0.6,2,1.5c0.3,2.6,0.9,4.7,1.7,7.2c0.3,0.9-0.3,2-1.2,2.4h-0.5c-0.8,0-1.7-0.5-1.8-1.2
		C584.8,82.4,584.2,79.8,583.9,77z M588.1,53.6c1.4-2.6,2.9-4.6,4.7-6.7c0.6-0.8,1.8-0.8,2.6-0.3c0.8,0.8,0.9,2,0.2,2.9
		c-1.4,1.7-2.8,3.7-4.3,5.8c0,0.8-0.9,1.2-1.4,1.2s-0.8-0.3-1.1-0.5C588,55.6,587.5,54.5,588.1,53.6z M589.2,92.2
		c-0.6-1.1-0.5-2.1,0.5-2.8c1.1-0.5,2.1-0.2,2.8,0.6c1.1,2.1,2.6,4,4.4,5.8c0.8,0.8,0.6,2-0.2,2.8c-0.3,0.3-0.8,0.5-1.2,0.5
		s-1.2-0.2-1.5-0.5C592.3,96.6,590.4,94.4,589.2,92.2z M598.9,41.5c2.1-1.7,4.6-2.9,7-4.1c0.9-0.5,2.1,0,2.4,0.9
		c0.5,1.1,0,2.1-0.9,2.6c-2.3,0.9-4.4,2.3-6.4,3.5c-0.3,0.3-0.6,0.5-1.1,0.5c-0.6,0-1.1-0.2-1.5-0.8C597.8,43.2,597.9,42,598.9,41.5
		z M600.4,103.6c-1.1-0.5-1.2-1.7-0.6-2.6c0.6-1.1,1.7-1.2,2.8-0.6c1.8,1.4,3.8,2.4,6.3,3.2c0.9,0.5,1.5,1.7,1.1,2.4
		c-0.2,0.9-0.9,1.4-1.7,1.4c-0.2,0-0.3-0.2-0.8-0.2C605,106.4,602.5,105.3,600.4,103.6z M602.1,71.5c-1.1,0-2-0.8-2-1.8
		c0-1.1,0.9-1.8,2-1.8h7.7c1.2,0,2,0.8,2,1.8c0,1.1-0.8,1.8-2,1.8H602.1z M613.5,35.1c2.1-0.3,4-0.6,6.1-0.6c0.6,0,1.4,0,2,0.3
		c1.1,0,1.8,0.9,1.8,1.8c-0.2,1.2-0.9,2-2.1,2c-0.5-0.3-1.1-0.3-1.7-0.3c-1.8,0-3.7,0.3-5.4,0.6h-0.5c-0.9,0-1.7-0.8-1.8-1.5
		C611.9,36.2,612.6,35.2,613.5,35.1z M613.8,107.1c0-1.1,0.9-1.8,2-1.8c1.2,0.3,2.6,0.3,3.8,0.3s2.4,0,3.4-0.3c1.2,0,2,0.8,2,1.8
		c0.3,1.1-0.5,2.1-1.5,2.1c-1.2,0.2-2.4,0.2-3.8,0.2c-1.5,0-2.9,0-4.4-0.2C614.3,109,613.5,108.1,613.8,107.1z M617.4,71.5
		c-0.9,0-1.8-0.8-1.8-1.8c0-1.1,0.9-1.8,1.8-1.8h7.7c1.2,0,2,0.8,2,1.8c0,1.1-0.8,1.8-2,1.8H617.4z M628.5,39.7
		c-0.9-0.3-1.5-1.4-1.1-2.3c0.2-1.2,1.4-1.7,2.3-1.4c2.6,0.9,5,1.8,7.5,3.1c0.9,0.6,1.1,1.8,0.8,2.8c-0.5,0.6-1.2,0.9-1.7,0.9
		s-0.9,0-1.1-0.2C633.1,41.5,630.8,40.4,628.5,39.7z M630.1,103.9c2.3-0.8,4.4-2,6.6-3.2c0.9-0.5,2.1-0.3,2.6,0.8
		c0.6,0.6,0.3,1.8-0.5,2.4c-2.4,1.4-4.9,2.6-7.3,3.5h-0.8c-0.8,0-1.5-0.3-1.8-1.1C628.5,105.3,629.1,104.2,630.1,103.9z M632.7,71.5
		c-0.9,0-1.8-0.8-1.8-1.8c0-1.1,0.9-1.8,1.8-1.8h7.8c1.2,0,1.8,0.8,1.8,1.8c0,1.1-0.6,1.8-1.8,1.8H632.7z M640.9,46.9
		c-0.8-0.8-0.8-2,0-2.8s2-0.9,2.9-0.2c1.8,1.8,3.5,3.8,5.4,6.1c0.5,0.8,0.3,2.1-0.8,2.8c-0.3,0.2-0.8,0.3-1.1,0.3
		c-0.6,0-1.1-0.3-1.5-0.9C644.4,50.2,642.9,48.4,640.9,46.9z M642.2,96.1c1.7-1.7,3.4-3.7,4.6-5.8c0.6-0.6,1.7-1.1,2.8-0.5
		c0.8,0.5,1.1,1.7,0.6,2.6c-1.7,2.4-3.4,4.4-5.2,6.4c-0.2,0.5-0.8,0.6-1.4,0.6c-0.5,0-0.9-0.2-1.4-0.6
		C641.4,98.1,641.4,96.9,642.2,96.1z M648.1,71.5c-0.9,0-1.8-0.8-1.8-1.8c0-1.1,0.9-1.8,1.8-1.8h5.8c0.9,0,2,0.8,2,1.8
		c0,1.1-1.1,1.8-2,1.8H648.1z M649.5,58.5c-0.6-0.9,0-2,0.9-2.4s2.1,0,2.6,1.2c0.9,2.1,1.7,4.9,2.1,7.6c0.3,0.9-0.3,2-1.4,2.3h-0.5
		c-0.8,0-1.7-0.8-2-1.5C651,63.1,650.3,60.8,649.5,58.5z"/>
</g>
</svg>
