<?xml version="1.0" encoding="utf-8"?>
<!-- Generator: Adobe Illustrator 19.2.1, SVG Export Plug-In . SVG Version: 6.00 Build 0)  -->
<svg version="1.1" id="ba852881-1fdd-4058-baca-f1caa98e12dd"
	 xmlns="http://www.w3.org/2000/svg" xmlns:xlink="http://www.w3.org/1999/xlink" x="0px" y="0px" viewBox="0 0 1500 398.8"
	 style="enable-background:new 0 0 1500 398.8;" xml:space="preserve">
<style type="text/css">
	.st0{fill:#E6E6E6;}
	.st1{fill:#3F3D56;}
	.st2{fill:#FF638B;}
	.st3{fill:#FF6584;}
	.st4{fill:#FFF0F0;}
</style>
<g>
	<path class="st0" d="M1393,283.4c0-21.9-13.9-74-30.9-74s-30.9,52-30.9,74s13.9,39.7,31,39.7C1379.1,323.1,1393,305.3,1393,283.4
		L1393,283.4z"/>
	<path class="st1" d="M1362,384.9c0.1,0,0.2-0.1,0.2-0.3l0,0V242.7c0-0.1-0.1-0.3-0.2-0.3s-0.2,0.1-0.2,0.3v141.8
		C1361.7,384.7,1361.9,384.9,1362,384.9L1362,384.9z"/>
	<path class="st1" d="M1362,269.2c0.1,0,0.1,0,0.2-0.1l12.2-15.7c0.1-0.1,0.1-0.3,0-0.4c-0.1-0.1-0.2-0.1-0.4,0l-12.2,15.7
		c-0.1,0.1-0.1,0.3,0,0.4C1361.9,269.1,1362,269.2,1362,269.2L1362,269.2z"/>
	<path class="st1" d="M1362,296.4c0.1,0,0.2-0.1,0.2-0.3s0-0.1-0.1-0.3l-20.5-26.3c-0.1-0.1-0.2-0.1-0.4,0c-0.1,0.1-0.1,0.3,0,0.4
		l20.5,26.3C1361.9,296.4,1362,296.4,1362,296.4z"/>
	<path class="st2" d="M1483.5,263.8c-5.1-41.4-29.6-73.4-54.9-71.4s-41.6,37.2-36.5,78.5c5.1,41.4,29.6,73.4,54.9,71.4
		C1472.3,340.4,1488.6,305.1,1483.5,263.8z"/>
	<path class="st1" d="M1447.5,390.4c7.5-89.6-21.4-175.9-21.7-176.7l-1.3,0.3c0.3,0.9,29.1,87.1,21.6,176.5h1.4V390.4z"/>
	<polygon class="st1" points="1438.7,269.8 1395.2,255.4 1394.7,256.3 1438.2,270.8 	"/>
	<polygon class="st1" points="1481.3,258.4 1480.6,257.5 1441.5,278.6 1442.2,279.5 	"/>
	<g>
		<path class="st2" d="M5,168.6C5,129,32.2,35,65.8,35s60.8,93.9,60.8,133.6s-27.3,71.6-60.9,71.6C32.2,240.4,5,208.2,5,168.6
			L5,168.6z"/>
		<path class="st1" d="M65.8,352.5c-0.3,0-0.5-0.3-0.5-0.6V95.4c0-0.4,0.2-0.6,0.5-0.6s0.5,0.3,0.5,0.6V352
			C66.3,352.2,66.1,352.5,65.8,352.5z"/>
		<path class="st1" d="M65.8,143.1c-0.2,0-0.3,0-0.4-0.1l-24-28.5c-0.2-0.3-0.2-0.6,0-0.8c0.2-0.3,0.5-0.3,0.7,0l0,0L66.2,142
			c0.2,0.3,0.2,0.6,0,0.8C66.1,142.9,66,143.1,65.8,143.1L65.8,143.1z"/>
		<path class="st1" d="M65.8,192.1c-0.3,0-0.5-0.3-0.5-0.6c0-0.1,0.1-0.3,0.2-0.4l40.3-47.5c0.2-0.3,0.5-0.3,0.7,0s0.2,0.6,0,0.8
			l0,0L66.2,192C66.1,192.1,66,192.1,65.8,192.1z"/>
		<path class="st0" d="M323.6,242.3c0-28.5,19.6-96,43.7-96s43.7,67.6,43.7,96s-19.6,51.6-43.8,51.6
			C343.2,293.9,323.6,270.8,323.6,242.3L323.6,242.3z"/>
		<path class="st1" d="M367.3,373.8c-0.2,0-0.4-0.1-0.4-0.4l0,0V189.6c0-0.3,0.2-0.4,0.4-0.4s0.4,0.1,0.4,0.4v183.8
			C367.7,373.7,367.5,373.8,367.3,373.8L367.3,373.8z"/>
		<path class="st1" d="M367.3,224c-0.1,0-0.2,0-0.3-0.1l-17.3-20.5c-0.2-0.1-0.2-0.4,0-0.6c0.2-0.1,0.4-0.1,0.5,0l17.3,20.5
			c0.2,0.1,0.2,0.4,0,0.6C367.5,223.8,367.4,224,367.3,224L367.3,224z"/>
		<path class="st1" d="M367.3,259.2c-0.2,0-0.4-0.1-0.4-0.4c0-0.1,0.1-0.3,0.1-0.3l29-34.2c0.2-0.1,0.4-0.1,0.5,0s0.2,0.4,0,0.6
			l-29,34.2C367.5,259.2,367.4,259.2,367.3,259.2z"/>
		<ellipse class="st3" cx="154.9" cy="99.3" rx="31" ry="36.6"/>
		<path class="st0" d="M130,185.7c4.5-53.3,26-94.2,48.1-91.7s36.5,47.8,32,101.1s-26,94.2-48.1,91.7
			C139.9,284.1,125.5,238.9,130,185.7z"/>
		<path class="st1" d="M161.3,348.4c-6.6-115.1,18.8-226.1,19-227.3l1.6,0.6c-0.3,1.1-25.5,111.9-19,226.7H161.3z"/>
		<polygon class="st1" points="169.2,193.2 207.3,174.6 208,176.4 169.9,195.1 		"/>
		<polygon class="st1" points="131.8,179.1 132.7,177.4 167,204.5 166.1,206.1 		"/>
		<path class="st2" d="M214.9,137C221,64.2,250.5,8,280.7,11.5s49.9,65.5,43.8,138.2s-35.6,129-65.8,125.5
			C228.4,271.8,208.8,209.9,214.9,137z"/>
		<path class="st1" d="M258.1,359.7c-9-157.6,25.7-309.4,26-310.9l1.6,0.6c-0.4,1.5-34.9,153.1-26,310.4L258.1,359.7z"/>
		<polygon class="st1" points="268.7,147.7 320.9,122.2 321.5,124 269.4,149.5 		"/>
		<polygon class="st1" points="217.6,127.6 218.5,126.1 265.4,163.1 264.5,164.6 		"/>
		<path class="st1" d="M367.8,171.8l6.2-4.2c-4.8-0.5-6.8,1.8-7.6,3.5c-3.8-1.3-7.9,0.4-7.9,0.4l12.4,3.8
			C370.3,173.9,369.2,172.7,367.8,171.8z"/>
		<path class="st1" d="M197.8,144l6.2-4.2c-4.8-0.5-6.8,1.8-7.6,3.5c-3.8-1.3-7.9,0.4-7.9,0.4l12.4,3.8
			C200.3,146.2,199.2,144.9,197.8,144z"/>
		<path class="st1" d="M96.5,293.5l6.2-4.2c-4.8-0.5-6.8,1.8-7.6,3.5c-3.8-1.3-7.9,0.4-7.9,0.4l12.4,3.8
			C99,295.6,98,294.4,96.5,293.5z"/>
		<path class="st1" d="M192.4,249.8c2.3-27.2,13.3-48.2,24.6-46.8c11.3,1.3,18.6,24.4,16.3,51.6s-13.3,48.2-24.6,46.8
			C197.4,299.9,190.2,277,192.4,249.8z"/>
		<path class="st2" d="M208,332.9c-3.4-59,9.6-115.8,9.8-116.4l1.6,0.6c-0.2,0.6-13,57.2-9.7,115.8L208,332.9L208,332.9z"/>
		<polygon class="st2" points="212.3,253.1 231.8,243.6 232.4,245.4 212.9,254.9 		"/>
		<polygon class="st2" points="193.1,246.7 194,245.1 211.5,258.9 210.6,260.6 		"/>
	</g>
	<path class="st4" d="M407,374C73,265,0,399,0,399h1500l0,0C1280.3,325.7,746.8,355.2,407,374z"/>
	<path class="st1" d="M1356.1,185.4l-5.2-4.1c4-0.5,5.7,1.7,6.3,3.5c3.1-1.3,6.5,0.4,6.5,0.4l-10.3,3.7
		C1354,187.5,1354.9,186.3,1356.1,185.4z"/>
</g>
</svg>
