<?xml version="1.0" encoding="utf-8"?>
<!-- Generator: Adobe Illustrator 19.2.1, SVG Export Plug-In . SVG Version: 6.00 Build 0)  -->
<svg version="1.1" id="b40c2b55-1f8d-4d18-9af5-df4559b41727"
	 xmlns="http://www.w3.org/2000/svg" xmlns:xlink="http://www.w3.org/1999/xlink" x="0px" y="0px" viewBox="0 0 486.2 368.9"
	 style="enable-background:new 0 0 486.2 368.9;" xml:space="preserve">
<style type="text/css">
	.st0{fill:#3F3D56;}
	.st1{fill:#FF638B;}
	.st2{opacity:0.4;fill:#FF638B;enable-background:new    ;}
</style>
<title>Character_drawing</title>
<g>
	<path class="st0" d="M471,6.9c-31-25-62,26-62,26v25l-3-21l-13,26l-1-5c-9,9-1,52-1,52s-4-18-6-23s-5-12-5-12c-1,6-11,14-17,21
		s-7,20-7,20l-2-3c-20,20-4,80-4,80c-28-31-5-71-5-71c-5,1-13,15-13,15s-24,34-22,46s-3,18-3,18c-5.3,6-7.9,14-7,22l-2-4
		c-8.7,7.7-6.2,34.9-6,36.9l17.1,40.9l-12-14.7H296v9c-7,2,3,10,3,10c-4,6-2,8-2,8v2c0,0,0-1,3,0s0,7,0,7c0,6,10,1,10,1l7.6,2.8
		c0,0,5.4,2.2,9.4,2.2s3-2,3-3s7-1,7-3s2-1,3-2s-2-4-2-4s8,1,7,0c-0.3-0.3-0.5-0.6-0.6-1l-20.3-1.3l24.6-7.9
		c-1.5-1.2-0.7-3.8-0.7-3.8c16-2,29-15,29-18s19-49,19-49l-3-2l4-3c12-7,16-30,16-30c-3,5-11,7-11,7s-43,18-40,12s37-18,37-18
		c29-8,38-56,38-56l-47,25l37-22c17-15,24-40,24-40l-39,17l39-20l25-34C476,66.9,502,31.9,471,6.9z"/>
	<polygon class="st0" points="306,367.9 0,368.9 0,366.9 306,365.9 	"/>
	<path class="st1" d="M473.8,11.1c-5.4,6-120.2,135-164.3,345.6c-0.5,2.4-1,4.8-1.5,7.2c-0.7,3.6-5,7-6,0c0,0,0.6-3,1.8-8.5
		C313.3,314.1,360.1,131.2,473.8,11.1z"/>
	<path class="st0" d="M309.5,356.7c-0.5,2.4-1,4.8-1.5,7.2c-0.7,3.6-5,7-6,0c0,0,0.6-3,1.8-8.5C305.8,355.4,307.7,355.9,309.5,356.7
		z"/>
	<circle class="st2" cx="284.1" cy="72.2" r="19.5"/>
	<circle class="st2" cx="303" cy="104.2" r="13.7"/>
	<circle class="st2" cx="354.8" cy="337.5" r="13.7"/>
</g>
</svg>
