<?xml version="1.0" encoding="utf-8"?>
<!-- Generator: Adobe Illustrator 19.2.1, SVG Export Plug-In . SVG Version: 6.00 Build 0)  -->
<svg version="1.1" id="Layer_1" xmlns="http://www.w3.org/2000/svg" xmlns:xlink="http://www.w3.org/1999/xlink" x="0px" y="0px"
	 viewBox="0 0 1833.6 3122.3" style="enable-background:new 0 0 1833.6 3122.3;" xml:space="preserve">
<style type="text/css">
	.st0{fill:none;stroke:#787878;stroke-width:4;stroke-miterlimit:10;}
	.st1{fill:none;stroke:#787878;stroke-width:4;stroke-miterlimit:10;stroke-dasharray:12.01,12.01;}
</style>
<title>road</title>
<path class="st0" d="M1454.7,321.2l5.7,1.8"/>
<path class="st1" d="M1296,12.3c369.5-29.5,980,644,10.4,657.7C930.5,693.5-17.7,468,2.3,862c17.6,345.8,898.4-215.6,924,206
	c12.8,210.7-314.8,59-337.2,212.3c-51.7,354.5,1271.3,51.1,1098.8,380.1c-56.4,107.5-776.2,44.7-715.5,290.7
	c60.7,246,833.7,236.4,699.6,376.9c-134.1,140.5-1076.5,12.9-1370.4,386.6c-275.9,350.8,689.5,400.5,808.9,405.2"/>
<path class="st0" d="M1116.6,3120.1l6,0.2"/>
</svg>
