<?xml version="1.0" encoding="utf-8"?>
<!-- Generator: Adobe Illustrator 19.2.1, SVG Export Plug-In . SVG Version: 6.00 Build 0)  -->
<svg version="1.1" id="Layer_1" xmlns="http://www.w3.org/2000/svg" xmlns:xlink="http://www.w3.org/1999/xlink" x="0px" y="0px"
	 viewBox="0 0 128 128" style="enable-background:new 0 0 128 128;" xml:space="preserve">
<style type="text/css">
	.st0{fill:#FFB000;}
</style>
<path class="st0" d="M91,111.8c-1.2,0-2.3-0.4-3.3-1c-0.5-0.4-18.8-13.7-23.7-17.3l-23.7,17.2c-1,0.7-2.2,1.1-3.4,1.1
	c-3.2,0-5.9-2.6-5.9-5.9c0-0.6,0.1-1.3,0.3-2l0-0.1c0.3-0.7,6.2-19,9-27.6c-7.3-5.4-23-16.8-23.7-17.3c-1.6-1.1-2.5-2.9-2.5-4.8
	c0-3.3,2.6-6,5.8-6h29.3l8.9-27.6c0.7-2.4,3-4.2,5.6-4.2c2.6,0,4.9,1.8,5.6,4.3l8.9,27.5h29.3c3.2,0,5.8,2.7,5.8,6
	c0,1.9-0.9,3.7-2.5,4.8c-0.7,0.5-16.3,11.9-23.7,17.3c2.8,8.6,8.8,26.9,9,27.6c0.2,0.7,0.4,1.4,0.4,2
	C96.9,109.2,94.3,111.8,91,111.8z M64,88.6l1.2,0.9c8.4,6.1,24.4,17.8,24.8,18.1c0.3,0.2,0.7,0.3,1,0.3c1,0,1.9-0.8,1.9-1.9
	c0-0.2,0-0.4-0.1-0.7c-0.1-0.4-6.7-20.5-9.5-29.1l-0.4-1.4l1.2-0.9c2.5-1.8,24.3-17.8,24.9-18.2c0.5-0.3,0.8-0.9,0.8-1.5
	c0-1.1-0.8-2-1.8-2H75.7l-9.9-30.4c-0.3-0.9-1-1.4-1.8-1.4c-0.8,0-1.5,0.5-1.8,1.4l-9.9,30.4H20.1c-1,0-1.8,0.9-1.8,2
	c0,0.6,0.3,1.2,0.8,1.5c0.6,0.4,22.4,16.3,24.9,18.2l1.2,0.9l-0.4,1.4c-2.7,8.3-8.9,27.4-9.5,29.1h0c-0.1,0.3-0.1,0.5-0.1,0.7
	c0,1,0.8,1.9,1.9,1.9c0.4,0,0.7-0.1,1.1-0.3L64,88.6z"/>
</svg>
