<?xml version="1.0" encoding="utf-8"?>
<!-- Generator: Adobe Illustrator 19.2.1, SVG Export Plug-In . SVG Version: 6.00 Build 0)  -->
<svg version="1.1" id="Layer_1" xmlns="http://www.w3.org/2000/svg" xmlns:xlink="http://www.w3.org/1999/xlink" x="0px" y="0px"
	 viewBox="0 0 128 128" style="enable-background:new 0 0 128 128;" xml:space="preserve">
<style type="text/css">
	.st0{fill:#FFB000;}
</style>
<path class="st0" d="M107.9,48.2H78.6l-8.9-27.5c-0.7-2.5-3-4.3-5.6-4.3c-2.6,0-4.9,1.8-5.6,4.2l-8.9,27.6H20.1
	c-3.2,0-5.8,2.7-5.8,6c0,1.9,0.9,3.7,2.5,4.8c0.6,0.4,16.3,11.9,23.7,17.3c-2.8,8.6-8.8,26.9-9,27.6l0,0.1c-0.2,0.7-0.3,1.3-0.3,2
	c0,3.2,2.6,5.9,5.9,5.9c1.2,0,2.3-0.4,3.4-1.1L64,93.5c4.9,3.6,23.2,16.9,23.7,17.3c1,0.7,2.2,1,3.3,1c3.2,0,5.9-2.6,5.9-5.9
	c0-0.6-0.1-1.3-0.4-2c-0.3-0.7-6.2-19-9-27.6c7.3-5.4,23-16.8,23.7-17.3c1.6-1.1,2.5-2.9,2.5-4.8C113.7,50.9,111.1,48.2,107.9,48.2z
	"/>
</svg>
